<svg width="24" height="24" viewBox="0 0 24 24" fill="none" xmlns="http://www.w3.org/2000/svg">
<path fill-rule="evenodd" clip-rule="evenodd" d="M7.76554 22.0898C3.82999 20.4248 1.10156 16.5375 1.10156 12.0362C1.10156 5.98883 6.00443 1.125 12.0128 1.125C16.5135 1.125 20.4013 3.85343 22.0664 7.78836C23.1781 10.4176 23.2419 13.503 22.0664 16.2835C19.6875 21.9083 13.2305 24.4006 7.76554 22.0898ZM12.0128 1.87419C6.4097 1.87419 1.85075 6.43313 1.85075 12.0362C1.85075 17.6393 6.4097 22.1983 12.0128 22.1983C17.6159 22.1983 22.1748 17.6393 22.1748 12.0362C22.1748 6.43313 17.6159 1.87419 12.0128 1.87419Z" fill="#030401"/>
<path fill-rule="evenodd" clip-rule="evenodd" d="M3.17116 18.1451C2.9741 18.1451 2.80927 17.9908 2.79749 17.7918C2.78572 17.5849 2.94374 17.4083 3.15009 17.3965C8.02073 17.1176 12.672 15.5461 16.2463 12.9708C18.4102 11.4117 20.1038 9.5669 21.2793 7.48727C21.3809 7.30695 21.6096 7.24374 21.7899 7.34537C21.9702 7.447 22.0334 7.67566 21.9318 7.85598C18.4808 13.9567 11.0732 17.6921 3.19346 18.1444C3.18541 18.1451 3.17859 18.1451 3.17116 18.1451Z" fill="#030401"/>
<path fill-rule="evenodd" clip-rule="evenodd" d="M18.3226 20.8497C18.1336 20.8497 17.9781 20.7103 17.9521 20.5287C16.8218 13.6479 12.8961 7.17659 6.92558 2.99812C6.75578 2.87915 6.71489 2.64615 6.83324 2.47636C6.95222 2.30657 7.18522 2.26567 7.35501 2.38403C13.3851 6.60277 17.5102 13.2066 18.6926 20.4135C18.7298 20.6489 18.5488 20.8497 18.3226 20.8497Z" fill="#030401"/>
<path fill-rule="evenodd" clip-rule="evenodd" d="M19.2062 13.464C18.3492 12.8306 18.0196 12.1106 17.8932 11.8949C17.069 10.4815 16.7263 4.39068 16.6216 2.76837C16.6111 2.5614 16.7703 2.38603 16.9767 2.37549C17.1836 2.36496 17.359 2.52422 17.3695 2.73057C17.3708 2.74916 17.4668 4.62677 17.6639 6.65435C18.0047 10.1642 18.3592 11.2077 18.5401 11.5163C18.5773 11.5795 18.6138 11.6464 18.6566 11.727C18.9088 12.2023 19.9183 13.7416 22.3505 13.5668C22.5575 13.5526 22.7359 13.7075 22.7508 13.9132C22.7657 14.1196 22.6101 14.2987 22.4044 14.3135C21.2487 14.399 20.1339 14.1493 19.2062 13.464Z" fill="#030401"/>
<path fill-rule="evenodd" clip-rule="evenodd" d="M9.33767 22.5153C9.22241 22.3437 9.26765 22.1113 9.43992 21.9954C11.9608 20.3012 14.5969 17.7637 13.7981 14.8202C13.6364 14.2247 12.8426 13.5679 11.5604 12.9717C10.872 12.652 10.1402 12.4085 9.38539 12.2492L1.55518 10.5965C1.35255 10.5538 1.22365 10.3548 1.26579 10.1528C1.30855 9.9502 1.50746 9.82131 1.70948 9.86345L9.53969 11.5161C10.3502 11.6871 11.1353 11.948 11.8759 12.2926C13.4046 13.004 14.2944 13.7885 14.5212 14.6244C15.4154 17.9248 12.7 20.7071 9.85758 22.617C9.68283 22.7347 9.45169 22.6845 9.33767 22.5153Z" fill="#030401"/>
<path fill-rule="evenodd" clip-rule="evenodd" d="M3.37286 17.3821C7.06922 17.1404 10.6311 16.1545 13.6824 14.5508C13.3868 14.0309 12.6494 13.48 11.5588 12.9731C10.8703 12.6534 10.1385 12.4098 9.38371 12.2506L1.94204 10.6797C1.88255 11.124 1.85156 11.5776 1.85156 12.0386C1.85156 13.9974 2.40865 15.8286 3.37286 17.3821Z" fill="#F57E6C"/>
<path fill-rule="evenodd" clip-rule="evenodd" d="M2.07031 9.93808L9.54049 11.5152C10.351 11.6862 11.1362 11.9471 11.8767 12.2916C13.1371 12.8784 13.9637 13.5148 14.3417 14.189C14.804 13.9263 15.2533 13.6487 15.6877 13.3568C13.7716 9.36054 10.853 5.79555 7.12004 3.13281C4.57132 4.53947 2.68813 7.00826 2.07031 9.93808Z" fill="#FF826E"/>
<path fill-rule="evenodd" clip-rule="evenodd" d="M7.875 2.75618C11.484 5.4121 14.3741 8.93557 16.3088 12.9232C16.8361 12.5402 17.335 12.1405 17.8053 11.7241C17.0772 10.1154 16.7506 4.80606 16.636 2.98856C15.2485 2.27655 13.677 1.875 12.0132 1.875C10.5402 1.87438 9.13976 2.1898 7.875 2.75618Z" fill="#FF826E"/>
<path fill-rule="evenodd" clip-rule="evenodd" d="M17.6675 6.65571C17.9321 9.37732 18.2041 10.6154 18.3975 11.1787C19.5129 10.1011 20.4455 8.92248 21.1842 7.65463C20.3501 5.91644 19.0358 4.45029 17.4141 3.42969C17.4593 4.1609 17.5436 5.37856 17.6675 6.65571Z" fill="#F57E6C"/>
<path fill-rule="evenodd" clip-rule="evenodd" d="M21.5454 8.50391C20.7689 9.73706 19.827 10.8667 18.75 11.8849C19.0945 12.4469 20.0544 13.6137 22.0609 13.5803C22.1384 13.0765 22.178 12.5609 22.178 12.0354C22.178 10.7942 21.9543 9.60445 21.5454 8.50391Z" fill="#F57E6C"/>
<path fill-rule="evenodd" clip-rule="evenodd" d="M19.2084 13.4647C18.7132 13.0991 18.3941 12.7037 18.1884 12.3945C17.6951 12.8252 17.1771 13.2336 16.6367 13.6196C17.5241 15.5852 18.1822 17.6556 18.5837 19.7835C20.2215 18.3924 21.4144 16.4924 21.9151 14.3304C20.9373 14.3199 20.004 14.0522 19.2084 13.4647Z" fill="#FF826E"/>
<path fill-rule="evenodd" clip-rule="evenodd" d="M17.9158 20.3039C17.544 18.1586 16.9008 16.0548 16.0085 14.0508C15.5499 14.3544 15.0771 14.642 14.5913 14.914C15.1961 17.8029 13.0625 20.2798 10.5938 22.0985C11.0579 22.1636 11.5319 22.1976 12.014 22.1976C14.2126 22.1976 16.2508 21.4956 17.9158 20.3039Z" fill="#FF826E"/>
<path fill-rule="evenodd" clip-rule="evenodd" d="M9.5734 21.9035C11.917 20.3022 14.3052 17.9803 13.895 15.2891C10.8871 16.842 7.43242 17.8068 3.85938 18.0962C5.24621 19.9577 7.25395 21.3297 9.5734 21.9035Z" fill="#F57E6C"/>
</svg>
