<svg width="25" height="24" viewBox="0 0 25 24" fill="none" xmlns="http://www.w3.org/2000/svg">
<path d="M3.5 10.1878C3.5 7.80287 5.43341 5.86946 7.8184 5.86946V5.86946C8.25637 5.86946 8.67799 5.70309 8.99794 5.40402L9.3 5.12167C9.63007 4.81315 9.79511 4.65889 9.97502 4.53421C10.3551 4.27084 10.7908 4.09889 11.2483 4.03177C11.4649 4 11.6908 4 12.1426 4H12.5H12.8574C13.3092 4 13.5351 4 13.7517 4.03177C14.2092 4.09889 14.6449 4.27084 15.025 4.53421C15.2049 4.65889 15.3699 4.81315 15.7 5.12168L16.0021 5.40402C16.322 5.70309 16.7436 5.86946 17.1816 5.86946V5.86946C19.5666 5.86946 21.5 7.80287 21.5 10.1879V13.9975C21.5 16.3345 21.5 17.503 21.0268 18.3873C20.6541 19.0837 20.0837 19.6541 19.3873 20.0268C18.503 20.5 17.3345 20.5 14.9975 20.5H10.0025C7.6655 20.5 6.49702 20.5 5.61271 20.0268C4.91634 19.6541 4.34588 19.0837 3.97323 18.3873C3.5 17.503 3.5 16.3345 3.5 13.9975V10.1878Z" stroke="#9747FF" stroke-width="1.4"/>
<circle cx="12.5" cy="14" r="3" stroke="#9747FF" stroke-width="1.4"/>
<path d="M16.5 9H17.5" stroke="#9747FF" stroke-width="1.4" stroke-linecap="round"/>
</svg>
