<svg width="36" height="36" viewBox="0 0 36 36" fill="none" xmlns="http://www.w3.org/2000/svg">
<path d="M12.8703 4.59375L32.7266 19.3594C31.6184 20.8556 31.9278 22.9706 33.4241 24.0844L28.0522 31.3013C26.5559 30.1931 24.4409 30.5025 23.3328 31.9988L3.47094 17.2275C4.58469 15.7312 4.26969 13.6163 2.77344 12.5081L8.14531 5.28562C9.64156 6.39937 11.7509 6.08438 12.8703 4.59375Z" fill="#65BC6A"/>
<path d="M34.9858 21.0381C35.2333 21.2237 35.2839 21.5781 35.0983 21.8256L33.422 24.0869C31.9258 22.9731 31.6164 20.8581 32.7245 19.3619L34.9858 21.0381ZM28.0501 31.3037L26.3739 33.565C26.1883 33.8125 25.8339 33.8631 25.5864 33.6775L23.3308 32.0012C24.4389 30.505 26.5539 30.1956 28.0501 31.3037ZM21.1201 14.2319C23.3589 15.9025 23.8258 19.075 22.1608 21.3194C20.4901 23.5637 17.3176 24.025 15.0789 22.36C12.8345 20.6894 12.3676 17.5169 14.0326 15.2781C15.7033 13.0337 18.8758 12.5669 21.1201 14.2319Z" fill="#398F3E"/>
<path d="M15.7488 21.457C15.8495 21.5318 15.9676 21.5684 16.0841 21.5684C16.2562 21.5684 16.4255 21.4902 16.5357 21.3417L17.0133 20.6993C17.0516 20.7049 17.0876 20.7156 17.1264 20.7184C17.1674 20.7213 17.2085 20.7229 17.249 20.7229C18.1248 20.7229 18.8667 20.0434 18.9314 19.1569C18.9528 18.8611 18.896 18.5646 18.7666 18.2986C18.7076 18.1771 18.6339 18.0629 18.5472 17.9588C18.5152 17.9166 18.4775 17.8784 18.4342 17.8463C18.3138 17.7563 18.2351 17.6253 18.2131 17.4768C18.1912 17.3283 18.2283 17.1798 18.3183 17.0594C18.4077 16.939 18.5394 16.8603 18.6879 16.8383C18.8375 16.8169 18.9849 16.8541 19.1058 16.9441C19.1862 17.0037 19.247 17.0808 19.2864 17.1713C19.3061 17.2169 19.3196 17.2653 19.3269 17.3136C19.3724 17.6213 19.6593 17.8323 19.9653 17.7884C20.2724 17.7428 20.4851 17.4576 20.4401 17.1499C20.4187 17.0043 20.3782 16.8619 20.3197 16.7264C20.2792 16.6324 20.2201 16.5492 20.1633 16.4648L20.5644 15.9254C20.75 15.6762 20.6982 15.3241 20.4485 15.1384C20.1999 14.9534 19.8472 15.0046 19.6616 15.2543L19.265 15.7876C19.0276 15.7139 18.7767 15.688 18.5247 15.7257C18.0787 15.7915 17.6849 16.0266 17.4161 16.3883C16.8772 17.1134 17.0077 18.1326 17.6996 18.6996C17.7209 18.7283 17.7395 18.7587 17.7552 18.7908C17.7986 18.8802 17.8171 18.9764 17.8098 19.0765C17.7873 19.3859 17.5094 19.6199 17.2085 19.5968C17.0583 19.5861 16.9216 19.5175 16.8237 19.4039C16.7253 19.2903 16.6769 19.1451 16.6882 18.9955C16.7107 18.6856 16.4772 18.4161 16.1679 18.3936C15.8461 18.3728 15.5885 18.6046 15.566 18.9139C15.5334 19.3634 15.6779 19.7988 15.9732 20.1396C15.9834 20.1514 15.9957 20.1593 16.0059 20.1706L15.6346 20.6701C15.4473 20.9198 15.4991 21.2719 15.7488 21.457ZM3.47 17.2309L19.1187 28.8691H19.1131L3.81875 24.0034C4.38687 22.2259 3.4025 20.3303 1.625 19.7622L2.24937 17.7991L2.62625 16.6066L3.47 17.2309Z" fill="#65BC6A"/>
<path d="M19.1122 28.868L13.6166 27.1186L2.34406 18.7373L2.02344 18.5011L2.24844 17.798L2.62531 16.6055L3.46906 17.2298L19.1122 28.868Z" fill="#398F3E"/>
<path d="M20.3906 29.8113H5.625C5.625 27.9494 4.11187 26.4363 2.25 26.4363V23.5L3.81938 24.0006L19.1138 28.8663H19.1194L20.3906 29.8113Z" fill="#65BC6A"/>
<path d="M20.3906 29.8113H16.7794L3.81938 25.6881L2.25 25.1875V23.5L3.81938 24.0006L19.1138 28.8663H19.1194L20.3906 29.8113Z" fill="#29752B"/>
<path d="M33.7495 26.4375V29.25C33.7495 29.5594 33.4964 29.8125 33.187 29.8125H31.4883L31.6458 29.3119L32.4839 26.685C32.872 26.5219 33.2995 26.4375 33.7495 26.4375Z" fill="#236823"/>
<path d="M33.75 23.6406V26.4363C33.3 26.4363 32.8725 26.5206 32.4844 26.6838L33.2269 24.3494V24.3438L33.4237 24.085L33.75 23.6406Z" fill="#29752B"/>
<path d="M33.2281 24.3516L32.4856 26.6859L31.6475 29.3128C31.2481 29.1834 30.8375 29.1384 30.4381 29.1609C30.1231 29.1778 29.8138 29.2397 29.5156 29.3409L33.2281 24.3516Z" fill="#65BC6A"/>
<path d="M31.6448 29.3119L31.4873 29.8125L30.7898 31.995C30.6998 32.2875 30.3792 32.4506 30.0867 32.3606L27.8086 31.635L28.0505 31.3031L29.513 29.34C29.8111 29.2387 30.1205 29.1769 30.4355 29.16C30.8348 29.1375 31.2455 29.1825 31.6448 29.3119ZM33.7486 14.625V16.9987L32.6292 16.6388L31.1048 16.155H31.0992C30.6436 15.5812 30.3736 14.8556 30.3736 14.0625H33.1861C33.4955 14.0625 33.7486 14.3156 33.7486 14.625Z" fill="#398F3E"/>
<path d="M31.1011 16.155L26.4155 14.6644H26.4098L25.6055 14.0625H30.3755C30.3755 14.8556 30.6455 15.5812 31.1011 16.155Z" fill="#65BC6A"/>
<path d="M6.00281 8.16563L4.80469 9.78V9.77437L5.37844 7.96875L6.00281 8.16563Z" fill="#398F3E"/>
<path d="M5.62521 29.8111H2.81271C2.50334 29.8111 2.25021 29.5579 2.25021 29.2486V26.4361C4.11209 26.4361 5.62521 27.9492 5.62521 29.8111ZM1.62584 19.7592C3.40334 20.3273 4.38771 22.2229 3.81959 24.0004L2.25021 23.4998L1.13646 23.1454C0.843964 23.0554 0.680839 22.7348 0.770839 22.4423L1.62584 19.7592ZM12.8702 4.58856V4.59418C11.7508 6.08481 9.64146 6.39981 8.14521 5.28606L9.82709 3.03043C10.0071 2.77731 10.3615 2.72668 10.609 2.91231L12.8702 4.58856ZM2.77334 12.5086C4.26959 13.6167 4.58459 15.7317 3.47084 17.2279L1.21521 15.5517C0.962089 15.3661 0.911464 15.0117 1.09709 14.7642L2.77334 12.5086Z" fill="#398F3E"/>
<path d="M32.6128 16.6891C32.3709 17.3472 32.3316 18.3991 32.4834 19.1753L26.4141 14.6641L31.0997 16.1547H31.1053L32.6297 16.6384L32.6128 16.6891Z" fill="#65BC6A"/>
<path d="M32.4856 19.1775C32.3337 18.4013 32.3731 17.3494 32.615 16.6913L32.6319 16.6406L33.7512 17.0006L34.865 17.355C35.1575 17.445 35.3206 17.7656 35.2306 18.0581L34.415 20.6119L32.7275 19.3631L32.4856 19.1775ZM33.2281 24.3525L32.4856 26.6869L31.6475 29.3138C31.2481 29.1844 30.8375 29.1394 30.4381 29.1619C30.1231 29.1788 29.8137 29.2406 29.5156 29.3419L33.2281 24.3525Z" fill="#398F3E"/>
<path d="M30.4355 29.1618C30.1205 29.1787 29.8111 29.2405 29.513 29.3418L28.5398 30.6524L28.0505 31.3049L27.8086 31.6368L29.6255 32.2162L30.0867 32.3624C30.3792 32.4524 30.6998 32.2893 30.7898 31.9968L31.4873 29.8143L31.5436 29.6343L31.6448 29.3137C31.2455 29.1843 30.8348 29.1393 30.4355 29.1618Z" fill="#29752B"/>
<path d="M31.6925 16.3391L31.1075 16.1534H31.1019C30.9781 16.0016 30.8712 15.8384 30.7812 15.6641L31.6925 16.3391Z" fill="#236823"/>
<path d="M31.1011 16.155L26.4155 14.6644H26.4098L25.6055 14.0625H28.6261L30.7805 15.6656C30.8705 15.84 30.9773 16.0031 31.1011 16.155Z" fill="#29752B"/>
<path d="M32.4159 17.6172C32.4441 17.3866 32.4778 17.1616 32.5284 16.9647L31.6903 16.3403L31.1053 16.1547H31.0997L26.4141 14.6641L32.0728 18.8716L32.4834 19.1753C32.3934 18.7084 32.3709 18.1403 32.4159 17.6172Z" fill="#398F3E"/>
<path d="M34.3633 20.5698L34.4758 20.418L34.4139 20.6092L34.3633 20.5698Z" fill="#398F3E"/>
<path d="M34.9877 18.7873L32.7264 17.1111L32.5295 16.9648C32.4789 17.1617 32.4452 17.3867 32.417 17.6173C32.372 18.1405 32.3945 18.7086 32.4845 19.1755L32.7264 19.3611L34.3633 20.5705L34.4758 20.4186L34.9933 18.793L34.9877 18.7873Z" fill="#29752B"/>
</svg>
