<svg width="40" height="40" viewBox="0 0 40 40" fill="none" xmlns="http://www.w3.org/2000/svg">
<path d="M18.6677 19.7836V24.4108H17.1992V12.9844H21.0921C22.0787 12.9844 22.92 13.3133 23.6084 13.971C24.312 14.6287 24.6638 15.4318 24.6638 16.3802C24.6638 17.3515 24.312 18.1545 23.6084 18.8046C22.9277 19.4547 22.0864 19.7759 21.0921 19.7759H18.6677V19.7836ZM18.6677 14.3916V18.3763H21.1227C21.704 18.3763 22.1935 18.1775 22.5759 17.7874C22.9659 17.3973 23.1648 16.9232 23.1648 16.3878C23.1648 15.8601 22.9659 15.3935 22.5759 15.0035C22.1934 14.5981 21.7116 14.3993 21.1227 14.3993H18.6677V14.3916Z" fill="#383E41"/>
<path d="M28.5048 16.3359C29.5909 16.3359 30.4475 16.6266 31.0746 17.2078C31.7018 17.7891 32.0153 18.5845 32.0153 19.5941V24.4124H30.6157V23.3264H30.5545C29.9503 24.2212 29.1396 24.6648 28.1301 24.6648C27.2659 24.6648 26.5469 24.4124 25.9656 23.9C25.3844 23.3876 25.0938 22.7527 25.0938 21.988C25.0938 21.1773 25.3997 20.5348 26.0116 20.0606C26.6234 19.5788 27.4418 19.3417 28.459 19.3417C29.3309 19.3417 30.0498 19.5023 30.6081 19.8235V19.487C30.6081 18.9746 30.4093 18.5463 30.0039 18.1869C29.5985 17.8274 29.1244 17.6515 28.5813 17.6515C27.763 17.6515 27.1129 17.9956 26.6387 18.6916L25.3461 17.8809C26.0574 16.8484 27.1129 16.3359 28.5048 16.3359ZM26.6081 22.0109C26.6081 22.3933 26.7687 22.7145 27.0976 22.9669C27.4188 23.2193 27.8012 23.3493 28.2372 23.3493C28.8567 23.3493 29.4073 23.1198 29.8892 22.6609C30.3711 22.202 30.6158 21.6666 30.6158 21.0472C30.1569 20.6877 29.5221 20.5041 28.7038 20.5041C28.1072 20.5041 27.6101 20.6495 27.2123 20.9324C26.807 21.2307 26.6081 21.5902 26.6081 22.0109Z" fill="#383E41"/>
<path d="M40.0001 16.5859L35.1052 27.8441H33.5909L35.4111 23.9052L32.1836 16.5859H33.782L36.1071 22.1997H36.1377L38.4016 16.5859H40.0001Z" fill="#383E41"/>
<path d="M12.706 17.4766H6.55078V20.0005L10.0957 20.0012C9.95195 20.841 9.48922 21.5569 8.78023 22.0341V22.0346C8.78047 22.0345 8.78078 22.0343 8.78102 22.0341L8.71719 23.5427L10.8912 23.6709C10.8909 23.6711 10.8905 23.6714 10.8903 23.6716C12.1224 22.5313 12.8284 20.8456 12.8284 18.8541C12.8284 18.3752 12.7855 17.9171 12.706 17.4766Z" fill="#0085F7"/>
<path d="M8.77906 22.0311C8.77883 22.0312 8.77852 22.0314 8.77828 22.0316C8.19102 22.4274 7.43484 22.659 6.55039 22.659C4.84101 22.659 3.39094 21.5072 2.87164 19.9546H2.87141C2.87148 19.9548 2.87156 19.9552 2.87164 19.9554L1.05672 19.668L0.695312 21.6438C1.77383 23.7835 3.99008 25.2517 6.55047 25.2517C8.31977 25.2517 9.80625 24.67 10.8884 23.6685C10.8888 23.6683 10.8891 23.668 10.8893 23.6677L8.77906 22.0311Z" fill="#00A94B"/>
<path d="M2.66844 18.704C2.66844 18.268 2.74109 17.8466 2.87344 17.4505L2.30672 15.7617H0.696719C0.250859 16.6466 0 17.6455 0 18.704C0 19.7625 0.251641 20.7613 0.696719 21.6462L0.697031 21.646L2.87344 19.9575C2.87336 19.9573 2.87328 19.957 2.8732 19.9567C2.74102 19.5609 2.66844 19.1397 2.66844 18.704Z" fill="#FFBB00"/>
<path d="M6.55078 12.1523C3.99094 12.1523 1.77375 13.6208 0.695312 15.7608L2.87195 17.4495C3.39125 15.897 4.84133 14.7452 6.5507 14.7452C7.51664 14.7452 8.38172 15.0779 9.06469 15.728L10.9347 13.8595C9.79898 12.8016 8.31828 12.1523 6.55078 12.1523Z" fill="#FF4031"/>
</svg>
