<svg width="40" height="40" viewBox="0 0 40 40" fill="none" xmlns="http://www.w3.org/2000/svg">
<g clip-path="url(#clip0_43_12620)">
<path d="M38.4734 4.0107L35.0834 7.40086L34.0377 8.44656L32.2866 10.1976L31.2409 11.2433L28.6963 13.788L26.1699 11.2608L30.3053 7.12625L35.9472 1.48438L38.4734 4.0107Z" fill="#EAEAE4"/>
<path d="M26.1684 11.2602L27.4316 12.5234L37.2084 2.74668L35.9452 1.48345L26.1684 11.2602Z" fill="#D1D1CB"/>
<path d="M30.3704 17.4484L16.154 31.6648L9.4798 38.339L8.49332 39.3255C7.70465 40.1142 6.42684 40.1134 5.63816 39.3255L0.632227 34.3196C-0.155664 33.5318 -0.156445 32.2532 0.632227 31.4645L22.5102 9.5873C23.2981 8.79863 24.5767 8.79941 25.3645 9.5873L30.3703 14.5932C31.1582 15.3811 31.1591 16.6597 30.3704 17.4484Z" fill="#EFBC4B"/>
<path d="M16.1561 31.6655L9.48187 38.3397C8.77414 37.5126 8.34766 36.4393 8.34766 35.2667C8.34766 32.6511 10.4675 30.5312 13.0831 30.5312C14.2566 30.5312 15.3298 30.9577 16.1561 31.6655Z" fill="#D3A13D"/>
<path d="M1.75707 32.5877L23.6345 10.7103C24.4231 9.92168 25.7014 9.9223 26.4894 10.7103L25.3664 9.5873C24.5785 8.79934 23.3002 8.79871 22.5115 9.5873L0.63418 31.4648C-0.154414 32.2534 -0.153789 33.5317 0.63418 34.3197L1.75715 35.4427C0.969102 34.6546 0.968555 33.3762 1.75707 32.5877Z" fill="#D3A13D"/>
<path d="M30.3714 17.4482L29.7476 18.072L21.8867 10.2111L22.5105 9.5873C23.2991 8.79871 24.5774 8.79934 25.3655 9.5873L30.3714 14.5932C31.1595 15.3812 31.16 16.6595 30.3714 17.4482Z" fill="#455256"/>
<path d="M39.6313 2.8907L37.0671 0.326484C36.6318 -0.108828 35.9259 -0.108828 35.4905 0.326484C35.0552 0.761797 35.0552 1.46773 35.4905 1.90305L38.0548 4.46727C38.4901 4.90258 39.196 4.90258 39.6313 4.46727C40.0667 4.03195 40.0667 3.32609 39.6313 2.8907Z" fill="#455256"/>
<path d="M36.6653 1.50125C37.1006 1.06594 37.8065 1.06594 38.2419 1.50125L37.0671 0.326484C36.6318 -0.108828 35.9259 -0.108828 35.4905 0.326484C35.0552 0.761797 35.0552 1.46773 35.4905 1.90305L36.6653 3.07781C36.2299 2.6425 36.2299 1.93664 36.6653 1.50125Z" fill="#374447"/>
<path d="M35.0818 7.40227L34.0361 8.44797L33.5679 6.38906L33.0996 4.3318L34.1463 3.28516L34.6136 5.34328L35.0818 7.40227Z" fill="#E22342"/>
<path d="M32.286 10.1991L31.2403 11.2448L30.7721 9.18594L30.3047 7.12781L31.3505 6.08203L31.8178 8.14016L32.286 10.1991Z" fill="#E22342"/>
<path d="M16.2175 40.0014C18.8326 40.0014 20.9526 37.8814 20.9526 35.2663C20.9526 32.6512 18.8326 30.5312 16.2175 30.5312C13.6024 30.5312 11.4824 32.6512 11.4824 35.2663C11.4824 37.8814 13.6024 40.0014 16.2175 40.0014Z" fill="#E22342"/>
<path d="M14.48 35.2663C14.48 33.1752 15.836 31.402 17.7163 30.7748C17.2452 30.6176 16.7416 30.5312 16.2176 30.5312C13.6025 30.5312 11.4824 32.6512 11.4824 35.2663C11.4824 37.8815 13.6023 40.0013 16.2176 40.0013C16.7416 40.0013 17.2452 39.9149 17.7163 39.7578C15.8361 39.1305 14.48 37.3573 14.48 35.2663Z" fill="#C9183A"/>
<path d="M31.3505 6.08203L31.8178 8.14016L30.7721 9.18594L30.3047 7.12781L31.3505 6.08203Z" fill="#C9183A"/>
<path d="M34.6136 5.34328L33.5679 6.38906L33.0996 4.3318L34.1463 3.28516L34.6136 5.34328Z" fill="#C9183A"/>
</g>
<defs>
<clipPath id="clip0_43_12620">
<rect width="40" height="40" fill="white"/>
</clipPath>
</defs>
</svg>
