<svg width="116" height="116" viewBox="0 0 116 116" fill="none" xmlns="http://www.w3.org/2000/svg">
<g clip-path="url(#clip0_301_23081)">
<path fill-rule="evenodd" clip-rule="evenodd" d="M58 0C26.0187 0 0 26.0189 0 58C0 89.9811 26.0182 116 58 116C89.9818 116 116 89.9813 116 58C116 26.0187 89.9816 0 58 0Z" fill="#0E795D"/>
<g clip-path="url(#clip1_301_23081)">
<path d="M81.4475 70.2825C77.6675 67.0875 75.5 62.4175 75.5 57.47V50.5C75.5 41.7025 68.965 34.42 60.5 33.2V30.5C60.5 29.1175 59.38 28 58 28C56.62 28 55.5 29.1175 55.5 30.5V33.2C47.0325 34.42 40.5 41.7025 40.5 50.5V57.47C40.5 62.4175 38.3325 67.0875 34.53 70.3025C33.5575 71.135 33 72.345 33 73.625C33 76.0375 34.9625 78 37.375 78H78.625C81.0375 78 83 76.0375 83 73.625C83 72.345 82.4425 71.135 81.4475 70.2825Z" fill="white"/>
<path d="M57.9999 88C62.5274 88 66.3149 84.7725 67.1849 80.5H48.8149C49.6849 84.7725 53.4724 88 57.9999 88Z" fill="white"/>
</g>
</g>
<defs>
<clipPath id="clip0_301_23081">
<rect width="116" height="116" fill="white"/>
</clipPath>
<clipPath id="clip1_301_23081">
<rect width="60" height="60" fill="white" transform="translate(28 28)"/>
</clipPath>
</defs>
</svg>
