<svg width="24" height="24" viewBox="0 0 24 24" fill="none" xmlns="http://www.w3.org/2000/svg">
<path d="M2 12C2 6.47715 6.47715 2 12 2V2C17.5228 2 22 6.47715 22 12V12C22 17.5228 17.5228 22 12 22V22C6.47715 22 2 17.5228 2 12V12Z" stroke="#030401" stroke-width="1.4"/>
<path d="M9.5 10.5V10.25C9.5 9.00736 10.522 8 11.7646 8V8C12.9912 8 14 8.99435 14 10.2209V10.2209C14 10.7252 13.8284 11.2145 13.5133 11.6083L12 13.5" stroke="#030401" stroke-width="1.4" stroke-linecap="round" stroke-linejoin="round"/>
<path d="M11.2165 16.1073C11.2165 15.6747 11.5672 15.324 11.9999 15.324C12.4325 15.324 12.7832 15.6747 12.7832 16.1073C12.7832 16.5399 12.4325 16.8906 11.9999 16.8906C11.5672 16.8906 11.2165 16.5399 11.2165 16.1073Z" fill="#030401"/>
</svg>
