<svg width="40" height="40" viewBox="0 0 40 40" fill="none" xmlns="http://www.w3.org/2000/svg">
<g clip-path="url(#clip0_43_4451)">
<path d="M20 40C31.0457 40 40 31.0457 40 20C40 8.9543 31.0457 0 20 0C8.9543 0 0 8.9543 0 20C0 31.0457 8.9543 40 20 40Z" fill="#FEA95C"/>
<path d="M40.0002 19.999C40.0002 31.045 31.0462 39.999 20.0002 39.999C15.0566 39.999 10.5315 38.2047 7.04102 35.2331C9.99398 36.953 13.4276 37.938 17.0916 37.938C28.1377 37.938 37.0916 28.984 37.0916 17.938C37.0916 11.8378 34.3609 6.37625 30.0559 2.70703C36.0033 6.17266 40.0002 12.6191 40.0002 19.999Z" fill="#FE9738"/>
<path d="M38.0688 11.472C37.8268 10.9592 37.5665 10.4623 37.2875 9.98023L30.6304 13.1219C30.1978 13.326 29.6842 13.1095 29.5265 12.6579C28.2829 9.09703 27.9127 5.4032 28.324 1.83602C27.3758 1.40219 26.3952 1.04312 25.3917 0.761719C24.7395 5.15031 25.151 9.7382 26.7663 14.1307C26.9106 14.523 26.7344 14.9605 26.3565 15.1389L21.5337 17.4149C21.132 17.6045 20.6527 17.4325 20.463 17.0309L13.0285 1.27711C12.5067 1.4718 11.9898 1.68992 11.477 1.93195C10.9642 2.17398 10.4673 2.4343 9.98531 2.71336L17.4199 18.467C17.6095 18.8687 17.4375 19.348 17.0359 19.5377L12.213 21.8137C11.835 21.992 11.3854 21.8499 11.1742 21.4891C8.81039 17.4499 5.53047 14.2157 1.72812 11.9293C1.3075 12.8829 0.96125 13.868 0.693359 14.8758C3.70852 16.8259 6.32453 19.4598 8.28273 22.6835C8.53109 23.0923 8.37172 23.6265 7.93914 23.8306L1.28203 26.9723C1.47672 27.4941 1.69484 28.0109 1.93687 28.5237C2.17891 29.0366 2.43961 29.5342 2.71828 30.0155L9.3793 26.872C9.81141 26.668 10.3244 26.8838 10.4827 27.3346C11.7348 30.8984 12.1116 34.597 11.7042 38.1695C12.6539 38.6027 13.6359 38.961 14.6405 39.2411C15.287 34.8495 14.8684 30.2592 13.2444 25.8657C13.0991 25.4727 13.2745 25.0337 13.6534 24.8548L18.472 22.5808C18.8737 22.3912 19.353 22.5632 19.5427 22.9648L26.9773 38.7186C27.4991 38.5239 28.0167 38.3055 28.5287 38.0637C29.0416 37.8217 29.5385 37.5614 30.0205 37.2823L22.5858 21.5287C22.3962 21.127 22.5682 20.6477 22.9698 20.4581L27.7884 18.1841C28.1674 18.0052 28.6177 18.1489 28.8287 18.5109C31.1878 22.5576 34.4652 25.7987 38.2662 28.0913C38.6894 27.1374 39.037 26.1516 39.3056 25.1435C36.2888 23.1869 33.6734 20.5448 31.7183 17.3128C31.471 16.904 31.6305 16.3709 32.0626 16.1669L38.7236 13.0234C38.529 12.5017 38.3108 11.9848 38.0688 11.472Z" fill="#685E68"/>
<path d="M11.7934 37.2305C12.7719 37.4988 13.78 37.694 14.813 37.8105C14.7688 38.2892 14.7117 38.7655 14.6419 39.2403C13.637 38.9608 12.6545 38.6017 11.7051 38.1687C11.7404 37.8571 11.7702 37.5446 11.7934 37.2305Z" fill="#554E56"/>
<path d="M28.6104 34.293L30.0218 37.2828C29.5398 37.5616 29.0426 37.8218 28.5301 38.0644C28.0176 38.3054 27.5002 38.5238 26.9781 38.7191L25.6953 36.0007C26.7179 35.5123 27.693 34.9404 28.6104 34.293Z" fill="#554E56"/>
<path d="M36.6984 13.9792C36.4727 12.8522 36.1514 11.7589 35.7441 10.7091L37.288 9.98047C37.5676 10.4624 37.8279 10.9597 38.0696 11.4722C38.3114 11.9847 38.5299 12.502 38.7243 13.0234L36.6984 13.9792Z" fill="#554E56"/>
<path d="M39.3077 25.1422C39.0394 26.1503 38.6915 27.1367 38.2682 28.0902C37.2625 27.4837 36.2937 26.8114 35.3691 26.0732C35.8117 25.0812 36.1748 24.0465 36.452 22.9766C37.3532 23.7717 38.3084 24.4947 39.3077 25.1422Z" fill="#554E56"/>
</g>
<defs>
<clipPath id="clip0_43_4451">
<rect width="40" height="40" fill="white"/>
</clipPath>
</defs>
</svg>
