<svg width="40" height="40" viewBox="0 0 40 40" fill="none" xmlns="http://www.w3.org/2000/svg">
<g clip-path="url(#clip0_38_4348)">
<path d="M19.9999 39.9998C31.0456 39.9998 39.9998 31.0456 39.9998 19.9999C39.9998 8.95427 31.0456 0 19.9999 0C8.95427 0 0 8.95427 0 19.9999C0 31.0456 8.95427 39.9998 19.9999 39.9998Z" fill="#F8E4C5"/>
<g opacity="0.15">
<path d="M5.71947 26.5356L6.31836 27.7109L15.396 23.0855L14.7971 21.9102L5.71947 26.5356Z" fill="#030401"/>
<path d="M8.85011 9.7798L14.918 15.8477L15.8507 14.9149L9.78288 8.84703L8.85011 9.7798Z" fill="#030401"/>
<path d="M22.2328 14.1628L23.4082 14.7617L27.5677 6.59849L26.3923 5.9996L22.2328 14.1628Z" fill="#030401"/>
<path d="M26.1235 21.6358L34.7637 23.0039L34.97 21.701L26.3298 20.3328L26.1235 21.6358Z" fill="#030401"/>
<path d="M20.1738 25.3151L21.8867 36.1328L23.1896 35.9265L21.4767 25.1088L20.1738 25.3151Z" fill="#030401"/>
</g>
<path d="M14.375 15.2763L13.1912 22.7503C13.1176 23.2151 13.3516 23.6747 13.7711 23.8883L20.5135 27.3237C20.9329 27.5374 21.4422 27.4568 21.7751 27.1239L27.1258 21.7731C27.4587 21.4402 27.5394 20.931 27.3256 20.5115L23.8902 13.7691C23.6765 13.3497 23.2171 13.1156 22.7522 13.1892L15.2782 14.373C14.8132 14.4467 14.4486 14.8113 14.375 15.2763Z" fill="#272F37"/>
<path d="M11.8687 1.72266C9.68828 2.69195 7.64547 4.06938 5.85734 5.85758C4.06938 7.64555 2.69195 9.68836 1.72266 11.8685L9.70187 10.6048C10.1667 10.5312 10.5314 10.1666 10.6051 9.70156L11.8687 1.72266Z" fill="#272F37"/>
<path d="M0.109375 22.0859C0.568672 26.488 2.48375 30.7672 5.85734 34.1408C6.10648 34.3899 6.3607 34.6309 6.61938 34.8641L7.8825 26.8891C7.95609 26.4243 7.72203 25.9648 7.30258 25.7511L0.109375 22.0859Z" fill="#272F37"/>
<path d="M22.0879 0.109375L25.7528 7.30219C25.9665 7.72156 26.4259 7.9557 26.8909 7.88211L34.8652 6.61906C34.632 6.36039 34.3912 6.10633 34.1421 5.85727C30.7686 2.48391 26.4898 0.568828 22.0879 0.109375Z" fill="#272F37"/>
<path d="M15.8379 39.5635C20.6088 40.574 25.6769 39.8263 30.0072 37.3209L22.8096 33.6536C22.3902 33.4399 21.8809 33.5206 21.548 33.8534L15.8379 39.5635Z" fill="#272F37"/>
<path d="M37.3209 30.0046C39.8261 25.6744 40.5737 20.6066 39.5632 15.8359L33.8534 21.5457C33.5205 21.8786 33.4399 22.3878 33.6537 22.8073L37.3209 30.0046Z" fill="#272F37"/>
<path opacity="0.15" d="M29.304 2.29297C28.3405 3.5382 27.7656 5.09945 27.7656 6.79578C27.7656 10.8642 31.0637 14.1623 35.1321 14.1623C36.4706 14.1623 37.7245 13.8035 38.8062 13.1796C37.1005 8.47758 33.6816 4.59789 29.304 2.29297Z" fill="white"/>
<path opacity="0.15" d="M22.0546 37.9448C11.0089 37.9448 2.05461 28.9905 2.05461 17.9448C2.05461 12.9448 3.88945 8.37352 6.92242 4.86719C2.68273 8.53453 0 13.9537 0 19.9995C0 31.0452 8.9543 39.9995 20 39.9995C26.0458 39.9995 31.4648 37.3168 35.1322 33.077C31.6259 36.1099 27.0546 37.9448 22.0546 37.9448Z" fill="#030401"/>
</g>
<defs>
<clipPath id="clip0_38_4348">
<rect width="40" height="40" fill="white"/>
</clipPath>
</defs>
</svg>
