<svg width="49" height="62" viewBox="0 0 49 62" fill="none" xmlns="http://www.w3.org/2000/svg">
<path fill-rule="evenodd" clip-rule="evenodd" d="M42.9112 6.55642H34.8585V2.26779C34.8585 1.66634 34.6196 1.08952 34.1943 0.664222C33.769 0.238928 33.1922 0 32.5907 0H16.4095C15.8081 0 15.2313 0.238928 14.806 0.664222C14.3807 1.08952 14.1417 1.66634 14.1417 2.26779V6.55642H6.08903C4.47469 6.55828 2.927 7.2004 1.78549 8.34191C0.643979 9.48342 0.00186064 11.0311 0 12.6454V16.4665C0 17.0679 0.238929 17.6447 0.664223 18.07C1.08952 18.4953 1.66634 18.7342 2.26779 18.7342H3.24295V52.5947C3.24553 54.8842 4.15619 57.0793 5.77515 58.6982C7.39411 60.3172 9.58916 61.2279 11.8787 61.2305H37.1215C39.4112 61.2281 41.6064 60.3176 43.2255 58.6986C44.8446 57.0797 45.7554 54.8846 45.758 52.5949V18.734H46.7331C47.3346 18.734 47.9114 18.4951 48.3367 18.0698C48.762 17.6445 49.0009 17.0677 49.0009 16.4662V12.6452C48.999 11.031 48.3569 9.48337 47.2154 8.34191C46.074 7.20045 44.5264 6.55834 42.9121 6.55642H42.9112ZM18.6773 4.53559H30.3229V6.55687H18.6773V4.53559ZM4.53559 12.6452C4.54099 12.2349 4.70641 11.843 4.99658 11.5529C5.28676 11.2628 5.67875 11.0975 6.08903 11.0922H42.9112C43.3215 11.0976 43.7135 11.263 44.0036 11.5532C44.2937 11.8434 44.4591 12.2354 44.4644 12.6457V14.1991H4.53559V12.6452ZM41.2224 52.5945C41.2212 53.6817 40.7888 54.724 40.02 55.4928C39.2512 56.2615 38.2088 56.6938 37.1215 56.6949H11.8787C10.7915 56.6938 9.74915 56.2616 8.98034 55.4929C8.21152 54.7242 7.77906 53.6819 7.77785 52.5947V18.734H41.2224V52.5945ZM22.2323 50.336V25.0929C22.2323 24.4915 22.4713 23.9146 22.8965 23.4893C23.3218 23.0641 23.8987 22.8251 24.5001 22.8251C25.1016 22.8251 25.6784 23.0641 26.1037 23.4893C26.529 23.9146 26.7679 24.4915 26.7679 25.0929V50.336C26.7679 50.9374 26.529 51.5142 26.1037 51.9395C25.6784 52.3648 25.1016 52.6038 24.5001 52.6038C23.8987 52.6038 23.3218 52.3648 22.8965 51.9395C22.4713 51.5142 22.2323 50.9374 22.2323 50.336ZM12.7373 50.336V25.0929C12.7373 24.4915 12.9762 23.9146 13.4015 23.4893C13.8268 23.0641 14.4036 22.8251 15.0051 22.8251C15.6065 22.8251 16.1834 23.0641 16.6087 23.4893C17.034 23.9146 17.2729 24.4915 17.2729 25.0929V50.336C17.2729 50.9374 17.034 51.5142 16.6087 51.9395C16.1834 52.3648 15.6065 52.6038 15.0051 52.6038C14.4036 52.6038 13.8268 52.3648 13.4015 51.9395C12.9762 51.5142 12.7373 50.9374 12.7373 50.336ZM31.7274 50.336V25.0929C31.7274 24.4915 31.9663 23.9146 32.3916 23.4893C32.8169 23.0641 33.3937 22.8251 33.9951 22.8251C34.5966 22.8251 35.1734 23.0641 35.5987 23.4893C36.024 23.9146 36.2629 24.4915 36.2629 25.0929V50.336C36.2629 50.9374 36.024 51.5142 35.5987 51.9395C35.1734 52.3648 34.5966 52.6038 33.9951 52.6038C33.3937 52.6038 32.8169 52.3648 32.3916 51.9395C31.9663 51.5142 31.7274 50.9374 31.7274 50.336Z" fill="white"/>
</svg>
