<svg width="24" height="24" viewBox="0 0 24 24" fill="none" xmlns="http://www.w3.org/2000/svg">
<path d="M22.7131 9.17401C22.8863 9.09803 23 8.914 23 8.71V5.50001C23 5.22401 22.7946 5 22.5416 5H1.45835C1.20535 5.00005 1 5.22401 1 5.50001V8.71C1 8.914 1.11365 9.09798 1.2869 9.17401C2.2118 9.57901 2.8333 10.715 2.8333 12C2.8333 13.285 2.2118 14.421 1.2869 14.826C1.11365 14.902 1 15.086 1 15.29V18.5C1 18.776 1.20535 19 1.45835 19H22.5417C22.7947 19 23 18.776 23 18.5V15.29C23 15.086 22.8863 14.902 22.7131 14.826C21.7882 14.421 21.1667 13.285 21.1667 12C21.1667 10.715 21.7881 9.57901 22.7131 9.17401ZM20.25 12C20.25 13.558 20.9751 14.963 22.0833 15.607V18H16.5833C16.125 17.9999 16.378 17.9999 16.125 17.9999L15.6666 18H1.91665V15.607C3.0249 14.963 3.74999 13.559 3.74999 12C3.74999 10.441 3.0249 9.037 1.91665 8.39303V6.00003H15.6666C16.125 6 15.6666 6 16.125 6C16.5833 6 16.125 6 16.5833 5.99998L22.0833 6.00003V8.39303C20.9751 9.03803 20.25 10.442 20.25 12Z" fill="#9747FF"/>
<path d="M11.5 15H6.50002C6.22402 15 6 15.224 6 15.5C6 15.776 6.22402 16 6.50002 16H11.5C11.776 16 12 15.776 12 15.5C12 15.224 11.776 15 11.5 15Z" fill="#9747FF"/>
<path d="M13.5 13H6.50002C6.22402 13 6 13.224 6 13.5C6 13.776 6.22402 14 6.50002 14H13.5C13.776 14 14 13.776 14 13.5C14 13.224 13.776 13 13.5 13Z" fill="#9747FF"/>
</svg>
