<svg width="80" height="80" viewBox="0 0 80 80" fill="none" xmlns="http://www.w3.org/2000/svg">
<g clip-path="url(#clip0_0_46)">
<path d="M40 80C62.0914 80 80 62.0914 80 40C80 17.9086 62.0914 0 40 0C17.9086 0 0 17.9086 0 40C0 62.0914 17.9086 80 40 80Z" fill="#D9D9D9"/>
<mask id="mask0_0_46" style="mask-type:alpha" maskUnits="userSpaceOnUse" x="0" y="0" width="80" height="80">
<path d="M40 80C62.0914 80 80 62.0914 80 40C80 17.9086 62.0914 0 40 0C17.9086 0 0 17.9086 0 40C0 62.0914 17.9086 80 40 80Z" fill="#A3A3B5"/>
</mask>
<g mask="url(#mask0_0_46)">
<path d="M8.75 81.25C10.1693 67.6555 15.3516 56.3481 28.3204 49.8804C30.7356 48.6786 30.0781 47.9807 28.4245 46.6045C17.2916 37.339 20.0065 20.1907 33.3464 15.0476C41.7774 11.7976 50.9831 14.8021 55.8269 22.3876C60.5144 29.7406 59.3555 39.342 53.0144 45.4286C51.9401 46.4624 50.7747 47.3992 49.375 48.6205C63.6198 55.0107 69.8112 66.5894 71.25 81.25C50.4166 81.25 29.5834 81.25 8.75 81.25Z" fill="white"/>
</g>
</g>
<defs>
<clipPath id="clip0_0_46">
<rect width="80" height="80" fill="white"/>
</clipPath>
</defs>
</svg>
