<svg width="24" height="24" viewBox="0 0 24 24" fill="none" xmlns="http://www.w3.org/2000/svg">
<path d="M19.071 4.92895C17.1823 3.0402 14.671 2 11.9999 2C9.32883 2 6.81766 3.0402 4.92891 4.92895C3.04016 6.8177 2 9.32891 2 12C2 14.6711 3.04016 17.1823 4.92891 19.0711C6.81766 20.9598 9.32887 22 11.9999 22C14.671 22 17.1822 20.9598 19.071 19.0711C20.9598 17.1823 21.9999 14.6711 21.9999 12C21.9999 9.32891 20.9598 6.8177 19.071 4.92895ZM11.9999 20.8281C7.13211 20.8281 3.17187 16.8679 3.17187 12C3.17187 7.13215 7.13211 3.17188 11.9999 3.17188C16.8678 3.17188 20.828 7.13215 20.828 12C20.828 16.8679 16.8678 20.8281 11.9999 20.8281Z" fill="#030401"/>
<path d="M8.23434 7.64844C6.87309 7.64844 5.76562 8.75594 5.76562 10.1172C5.76562 10.4408 6.02797 10.7032 6.35156 10.7032C6.67516 10.7032 6.9375 10.4408 6.9375 10.1172C6.9375 9.40211 7.51926 8.82031 8.23434 8.82031C8.94941 8.82031 9.53117 9.40211 9.53117 10.1172C9.53117 10.4408 9.79352 10.7032 10.1171 10.7032C10.4407 10.7032 10.703 10.4408 10.703 10.1172C10.703 8.75594 9.59559 7.64844 8.23434 7.64844Z" fill="#030401"/>
<path d="M15.7656 7.64844C14.4043 7.64844 13.2969 8.75594 13.2969 10.1172C13.2969 10.4408 13.5592 10.7032 13.8828 10.7032C14.2064 10.7032 14.4688 10.4408 14.4688 10.1172C14.4688 9.40211 15.0505 8.82031 15.7656 8.82031C16.4807 8.82031 17.0624 9.40211 17.0624 10.1172C17.0624 10.4408 17.3248 10.7032 17.6484 10.7032C17.972 10.7032 18.2343 10.4408 18.2343 10.1172C18.2343 8.75594 17.1268 7.64844 15.7656 7.64844Z" fill="#030401"/>
<path d="M17.5203 13.3305C17.2153 13.2227 16.8805 13.3826 16.7726 13.6877C16.0591 15.7064 14.1406 17.0627 11.9985 17.0627C9.85651 17.0627 7.93795 15.7064 7.22448 13.6877C7.11667 13.3826 6.78182 13.2227 6.47678 13.3305C6.17166 13.4383 6.01174 13.7731 6.11959 14.0782C6.99827 16.5642 9.36084 18.2345 11.9985 18.2345C14.6362 18.2345 16.9988 16.5642 17.8775 14.0782C17.9853 13.7731 17.8255 13.4383 17.5203 13.3305Z" fill="#030401"/>
</svg>
