<svg width="40" height="40" viewBox="0 0 40 40" fill="none" xmlns="http://www.w3.org/2000/svg">
<path d="M13.6796 31.6031L12.289 33.0539C11.9772 33.3794 11.5912 33.6245 11.1639 33.7681C10.7366 33.9116 10.2809 33.9494 9.83586 33.8781L5.60461 33.2024C3.61633 32.8852 2.41477 30.7516 3.27336 28.9305C3.29758 28.8797 3.32258 28.8289 3.34993 28.7789C3.5702 28.3696 3.88017 28.0153 4.25664 27.7426C4.63311 27.4699 5.06635 27.2859 5.52398 27.2042C5.9816 27.1226 6.45177 27.1454 6.89932 27.271C7.34688 27.3966 7.76024 27.6218 8.10852 27.9297L10.1656 29.7461C10.3486 29.9078 10.5873 29.992 10.8313 29.9811C11.0753 29.9701 11.3055 29.8649 11.4734 29.6875L11.6163 29.5406L13.6499 31.5742L13.6796 31.6031Z" fill="#91B1C4"/>
<path d="M12.9766 28.1406L11.6133 29.5398L13.6469 31.5734L13.6766 31.6023L15.0281 30.1922L12.9766 28.1406Z" fill="#799AAA"/>
<path d="M25.3594 15.9531L33.0922 8.22031L34.8732 10.0013L27.1404 17.7341L25.3594 15.9531Z" fill="#6D7486"/>
<path d="M36.6398 6.45449C36.7569 6.57141 36.8497 6.71025 36.913 6.86307C36.9764 7.01589 37.009 7.17969 37.009 7.34512C37.009 7.51054 36.9764 7.67435 36.913 7.82716C36.8497 7.97998 36.7569 8.11882 36.6398 8.23574L34.8789 9.99668L33.0977 8.21543L34.8586 6.45449C35.0949 6.21849 35.4152 6.08594 35.7492 6.08594C36.0832 6.08594 36.4035 6.21849 36.6398 6.45449Z" fill="#4A5160"/>
<path d="M26.8148 17.4L14.5789 29.7391L13.4609 28.6211L25.6961 16.2812L26.8148 17.4Z" fill="#D4E1F4"/>
<path d="M5.61711 28.9305C5.64133 28.8797 5.66633 28.8289 5.69368 28.7789C6.03084 28.1488 6.57775 27.6565 7.23969 27.3871C6.53392 27.0977 5.74601 27.0798 5.0278 27.3368C4.30959 27.5938 3.7119 28.1075 3.34993 28.7789C3.32258 28.8289 3.29758 28.8797 3.27336 28.9305C2.41477 30.7516 3.61633 32.8852 5.60461 33.2023L9.83586 33.8781C10.316 33.9546 10.8078 33.9041 11.2624 33.7316L7.94836 33.2023C5.96008 32.8852 4.75852 30.7516 5.61711 28.9305Z" fill="#7A97A5"/>
<path d="M16.2304 31.8968C16.1377 31.8968 16.0471 31.8693 15.97 31.8178C15.8929 31.7663 15.8329 31.6931 15.7974 31.6075C15.7619 31.5218 15.7526 31.4275 15.7707 31.3366C15.7888 31.2457 15.8335 31.1622 15.899 31.0966L16.9482 30.0475C17.0361 29.9596 17.1553 29.9102 17.2796 29.9102C17.404 29.9101 17.5232 29.9595 17.6111 30.0474C17.699 30.1353 17.7484 30.2546 17.7484 30.3789C17.7484 30.5032 17.6991 30.6224 17.6112 30.7104L16.5619 31.7596C16.5184 31.8032 16.4668 31.8377 16.4099 31.8613C16.353 31.8848 16.292 31.8969 16.2304 31.8968Z" fill="#B0B5CA"/>
<path d="M18.4687 29.5906C18.376 29.5906 18.2854 29.5631 18.2083 29.5116C18.1312 29.4601 18.0712 29.3869 18.0357 29.3012C18.0002 29.2156 17.9909 29.1213 18.009 29.0304C18.0271 28.9395 18.0717 28.856 18.1372 28.7904L22.6458 24.2818C22.6894 24.2383 22.741 24.2038 22.7979 24.1802C22.8548 24.1566 22.9158 24.1445 22.9773 24.1445C23.0389 24.1445 23.0998 24.1567 23.1567 24.1802C23.2136 24.2038 23.2652 24.2383 23.3088 24.2818C23.3523 24.3254 23.3868 24.3771 23.4104 24.4339C23.4339 24.4908 23.446 24.5518 23.446 24.6133C23.446 24.6749 23.4339 24.7358 23.4104 24.7927C23.3868 24.8496 23.3523 24.9013 23.3087 24.9448L18.8001 29.4533C18.7567 29.4969 18.705 29.5315 18.6481 29.555C18.5913 29.5786 18.5303 29.5907 18.4687 29.5906Z" fill="#B0B5CA"/>
<path d="M25.668 22.39C25.5753 22.39 25.4847 22.3625 25.4076 22.311C25.3305 22.2595 25.2704 22.1863 25.2349 22.1006C25.1994 22.015 25.1901 21.9207 25.2082 21.8298C25.2263 21.7388 25.271 21.6553 25.3365 21.5898L26.8425 20.0838C26.9306 19.9971 27.0495 19.9487 27.1731 19.9492C27.2968 19.9497 27.4152 19.9991 27.5027 20.0865C27.5901 20.174 27.6395 20.2924 27.64 20.4161C27.6405 20.5397 27.5921 20.6586 27.5054 20.7467L25.9995 22.2527C25.956 22.2963 25.9044 22.3309 25.8475 22.3544C25.7906 22.378 25.7296 22.3901 25.668 22.39Z" fill="#B0B5CA"/>
<path d="M24.2148 23.8449C24.1221 23.8449 24.0315 23.8174 23.9544 23.7659C23.8773 23.7144 23.8173 23.6412 23.7818 23.5556C23.7463 23.4699 23.737 23.3757 23.7551 23.2848C23.7732 23.1938 23.8178 23.1103 23.8833 23.0448L24.149 22.7791C24.2371 22.6924 24.356 22.644 24.4796 22.6445C24.6033 22.645 24.7217 22.6944 24.8092 22.7818C24.8966 22.8693 24.946 22.9877 24.9465 23.1114C24.947 23.235 24.8986 23.3539 24.8119 23.442L24.5462 23.7077C24.5027 23.7512 24.4511 23.7858 24.3942 23.8093C24.3373 23.8329 24.2764 23.845 24.2148 23.8449Z" fill="#B0B5CA"/>
</svg>
