<svg width="40" height="40" viewBox="0 0 40 40" fill="none" xmlns="http://www.w3.org/2000/svg">
<path d="M22.111 13.1618L22.5037 13.5545L23.0562 13.002L22.6634 12.6094L22.9673 12.3055L22.4149 11.753L22.111 12.0569L20.2863 10.2323L21.7436 8.77508L21.1912 8.22266L19.7339 9.67984L17.9113 7.85719L19.7053 6.06313L19.1529 5.5107L17.3588 7.30477L15.5341 5.48L16.9908 4.02344L16.4384 3.47094L14.9816 4.9275L13.1591 3.105L13.463 2.80117L12.9105 2.24891L12.6066 2.55281L12.214 2.16016L11.6616 2.71258L12.0542 3.10523L10.2317 4.92742L8.01211 2.70781L7.45953 3.26023L9.67922 5.47984L7.85563 7.30359L5.12781 4.5757L4.57539 5.12812L7.30328 7.85594L5.4793 9.67969L3.25984 7.46023L2.70734 8.01273L4.9268 10.2321L3.1018 12.0571L2.71258 11.668L2.16016 12.2204L2.5493 12.6095L2.24852 12.9103L2.80102 13.4627L3.1018 13.162L4.92422 14.9845L3.47039 16.4381L4.02289 16.9906L5.47664 15.5369L7.30164 17.3619L5.51039 19.1532L6.06281 19.7056L7.85414 17.9144L9.67656 19.7369L8.22211 21.1913L8.77453 21.7438L10.2291 20.2893L12.0538 22.1141L11.7529 22.415L12.3053 22.9677L12.6063 22.6667L12.9956 23.0561L13.548 22.5037L13.1587 22.1143L14.9838 20.2892L17.2035 22.5088L17.7559 21.9564L15.5363 19.7367L17.36 17.913L20.0879 20.6409L20.6403 20.0884L17.9127 17.3603L19.7363 15.5367L21.9558 17.7567L22.5082 17.2043L20.2885 14.9846L22.111 13.1618ZM21.5586 12.6094L19.7361 14.4318L17.9114 12.6071L19.7339 10.7847L21.5586 12.6094ZM19.1815 10.2323L17.359 12.0547L15.5363 10.2321L17.3588 8.40961L19.1815 10.2323ZM12.0554 12.6083L10.2316 14.4321L8.40664 12.6072L10.2305 10.7834L12.0554 12.6083ZM10.783 10.2309L12.6066 8.40727L14.4315 10.2321L12.608 12.0557L10.783 10.2309ZM12.6078 13.1605L14.4304 14.9833L12.6066 16.807L10.7841 14.9845L12.6078 13.1605ZM13.1603 12.608L14.9839 10.7845L16.8065 12.607L14.983 14.4307L13.1603 12.608ZM16.8064 7.85711L14.9839 9.67953L13.1591 7.85477L14.9816 6.03234L16.8064 7.85711ZM12.6066 3.65742L14.4291 5.47992L12.6066 7.30234L10.7841 5.47984L12.6066 3.65742ZM10.2316 6.03242L12.0541 7.85492L10.2305 9.67859L8.40805 7.85594L10.2316 6.03242ZM7.85563 8.40836L9.67828 10.2309L7.85445 12.0546L6.03172 10.2321L7.85563 8.40836ZM3.65422 12.6095L5.4793 10.7845L7.30172 12.607L5.47664 14.432L3.65422 12.6095ZM6.02922 14.9845L7.8543 13.1595L9.67922 14.9845L7.85422 16.8095L6.02922 14.9845ZM8.40664 17.362L10.2317 15.5369L12.0542 17.3595L10.2291 19.1845L8.40664 17.362ZM12.6063 21.5614L10.7815 19.7366L12.6066 17.9116L14.4314 19.7362L12.6063 21.5614ZM14.9838 19.1838L13.1591 17.3591L14.983 15.5356L16.8077 17.3603L14.9838 19.1838ZM17.36 16.8077L15.5353 14.9833L17.359 13.1597L19.1837 14.9844L17.36 16.8077Z" fill="#CCD3DF"/>
<path d="M38.5171 35.7124C38.5914 35.7867 38.6504 35.8749 38.6906 35.9719C38.7308 36.069 38.7515 36.173 38.7515 36.278C38.7515 36.3831 38.7308 36.4871 38.6906 36.5842C38.6504 36.6812 38.5914 36.7694 38.5171 36.8437L36.8437 38.5171C36.7694 38.5914 36.6812 38.6504 36.5842 38.6906C36.4871 38.7308 36.3831 38.7515 36.278 38.7515C36.173 38.7515 36.069 38.7308 35.9719 38.6906C35.8749 38.6504 35.7867 38.5914 35.7124 38.5171L28.1952 30.9999C28.1202 30.9248 28.0608 30.8356 28.0206 30.7373C27.9804 30.6391 27.9601 30.5338 27.961 30.4276C27.9618 30.3215 27.9838 30.2166 28.0257 30.119C28.0675 30.0214 28.1283 29.9331 28.2046 29.8593L29.8593 28.2046C29.9331 28.1283 30.0214 28.0675 30.119 28.0257C30.2166 27.9838 30.3215 27.9618 30.4276 27.961C30.5338 27.9601 30.6391 27.9804 30.7373 28.0206C30.8356 28.0608 30.9248 28.1202 30.9999 28.1952L38.5171 35.7124Z" fill="#E75163"/>
<path d="M38.5171 35.7124C38.5914 35.7867 38.6504 35.8749 38.6906 35.9719C38.7308 36.069 38.7515 36.173 38.7515 36.278C38.7515 36.3831 38.7308 36.4871 38.6906 36.5842C38.6504 36.6812 38.5914 36.7694 38.5171 36.8437L36.8437 38.5171C36.7694 38.5914 36.6812 38.6504 36.5842 38.6906C36.4871 38.7308 36.3831 38.7515 36.278 38.7515C36.173 38.7515 36.069 38.7308 35.9719 38.6906C35.8749 38.6504 35.7867 38.5914 35.7124 38.5171L28.1952 30.9999C28.1202 30.9248 28.0608 30.8356 28.0206 30.7373C27.9804 30.6391 27.9601 30.5338 27.961 30.4276C27.9618 30.3215 27.9838 30.2166 28.0257 30.119C28.0675 30.0214 28.1283 29.9331 28.2046 29.8593L29.8593 28.2046C29.9331 28.1283 30.0214 28.0675 30.119 28.0257C30.2166 27.9838 30.3215 27.9618 30.4276 27.961C30.5338 27.9601 30.6391 27.9804 30.7373 28.0206C30.8356 28.0608 30.9248 28.1202 30.9999 28.1952L38.5171 35.7124Z" fill="#E75163"/>
<path d="M36.9234 37.3063L29.4062 29.7891C29.3311 29.714 29.2717 29.6247 29.2315 29.5265C29.1913 29.4282 29.171 29.3229 29.1719 29.2168C29.1728 29.1106 29.1948 29.0057 29.2366 28.9081C29.2784 28.8105 29.3393 28.7223 29.4155 28.6484L28.2046 29.8594C28.1283 29.9332 28.0675 30.0215 28.0257 30.1191C27.9838 30.2166 27.9618 30.3216 27.961 30.4277C27.9601 30.5339 27.9804 30.6392 28.0206 30.7374C28.0608 30.8357 28.1202 30.9249 28.1952 31L35.7124 38.5172C35.7867 38.5915 35.8749 38.6504 35.9719 38.6907C36.069 38.7309 36.173 38.7516 36.278 38.7516C36.3831 38.7516 36.4871 38.7309 36.5842 38.6907C36.6812 38.6504 36.7694 38.5915 36.8437 38.5172L38.0546 37.3063C37.9803 37.3806 37.8922 37.4395 37.7951 37.4797C37.6981 37.5199 37.594 37.5406 37.489 37.5406C37.3839 37.5406 37.2799 37.5199 37.1829 37.4797C37.0858 37.4395 36.9976 37.3806 36.9234 37.3063Z" fill="#B2495B"/>
<path d="M37.8953 7.74501C38.7013 8.17071 32.7354 18.7786 32.6617 19.3458L31.4297 19.1841L34.9211 7.86142C35.6403 6.62462 37.1837 6.34431 37.8953 7.74501Z" fill="#F9E48A"/>
<path d="M34.9188 7.8629L31.4273 19.1856L30.1953 19.0238L31.7148 7.44258C32.4589 6.05657 34.5432 6.30672 34.9188 7.8629Z" fill="#FFEEA9"/>
<path d="M32.6602 19.3461L32.4984 20.5781L27.5703 19.9313L27.732 18.6992L32.6602 19.3461Z" fill="#94F0FF"/>
<path d="M32.5001 20.5805C32.4662 22.3351 31.5354 23.9131 29.5836 23.707C27.6439 23.4023 27.1539 21.6377 27.5719 19.9336L32.5001 20.5805Z" fill="#E84D7A"/>
<path d="M30.025 6.11343C30.416 6.10834 30.797 6.23737 31.1045 6.47903C31.412 6.72069 31.6274 7.06038 31.7148 7.44155L30.1953 19.0228L28.9633 18.8611L28.5117 7.02124C28.6563 6.74558 28.874 6.51504 29.1409 6.35491C29.4079 6.19478 29.7137 6.11123 30.025 6.11343Z" fill="#F9E48A"/>
<path d="M26.5625 28.2227L28.2169 26.5682L29.8534 28.2047L28.199 29.8591L26.5625 28.2227Z" fill="#94F0FF"/>
<path d="M28.5144 7.02187L28.966 18.8617L27.7339 18.7C27.8025 18.0812 24.7857 6.38859 25.6704 6.14218C26.6607 4.97226 28.1836 5.66523 28.5144 7.02187Z" fill="#FFEEA9"/>
<path d="M28.2219 26.5672L26.5672 28.2219C23.8209 25.4296 20.0563 23.952 16.1719 23.775C17.305 23.5602 18.391 23.1462 19.3797 22.5523C20.8109 22.7737 22.2197 23.1209 23.5898 23.5898C23.1209 22.2197 22.7737 20.8109 22.5523 19.3797C23.1462 18.391 23.5602 17.305 23.775 16.1719H23.7758C23.9527 20.0566 25.4296 23.8211 28.2219 26.5672Z" fill="#6D7486"/>
<path d="M25.9309 30.5179C25.8796 30.518 25.8288 30.5079 25.7814 30.4883C25.734 30.4687 25.6909 30.4398 25.6547 30.4035C23.8279 28.5779 21.5511 27.2674 19.0548 26.6048C19.0049 26.592 18.9581 26.5694 18.917 26.5383C18.8759 26.5073 18.8413 26.4684 18.8152 26.4239C18.7892 26.3795 18.7722 26.3303 18.7653 26.2793C18.7583 26.2282 18.7616 26.1763 18.7748 26.1265C18.788 26.0767 18.8109 26.03 18.8422 25.9891C18.8735 25.9482 18.9126 25.9139 18.9573 25.8881C19.0019 25.8624 19.0512 25.8458 19.1023 25.8392C19.1534 25.8326 19.2053 25.8361 19.255 25.8497C21.8845 26.5476 24.2828 27.928 26.2071 29.8511C26.2617 29.9058 26.2989 29.9754 26.314 30.0511C26.329 30.1269 26.3213 30.2054 26.2917 30.2768C26.2622 30.3482 26.2121 30.4092 26.1479 30.4521C26.0837 30.495 26.0082 30.5179 25.9309 30.5179Z" fill="#D4E1F4"/>
<path d="M17.6711 26.3045C17.6504 26.3045 17.6297 26.3028 17.6093 26.2995C17.3026 26.2506 16.9908 26.2112 16.6828 26.1823C16.6313 26.178 16.5811 26.1636 16.5352 26.1398C16.4893 26.1161 16.4486 26.0834 16.4154 26.0438C16.3822 26.0042 16.3572 25.9583 16.3418 25.909C16.3265 25.8596 16.3211 25.8077 16.3259 25.7562C16.3308 25.7048 16.3458 25.6548 16.3702 25.6092C16.3945 25.5636 16.4276 25.5232 16.4676 25.4905C16.5077 25.4578 16.5538 25.4334 16.6033 25.4186C16.6528 25.4038 16.7048 25.3991 16.7562 25.4045C17.0808 25.4352 17.409 25.4768 17.7321 25.5282C17.8292 25.5435 17.917 25.5949 17.9779 25.6721C18.0388 25.7493 18.0684 25.8466 18.0607 25.9446C18.053 26.0427 18.0086 26.1342 17.9364 26.2009C17.8642 26.2677 17.7695 26.3047 17.6711 26.3047V26.3045Z" fill="#D4E1F4"/>
<path d="M12.3093 22.4142C22.2312 23.8328 25.7556 12.4697 19.1553 6.06259C14.6408 1.27431 5.82737 1.32744 3.26244 8.01275C0.866663 14.2095 5.94838 21.4938 12.3093 22.4142ZM20.0906 5.12744C25.2324 10.179 25.5133 18.7613 19.3804 22.5502C14.8211 25.186 9.19674 24.0619 5.13041 20.0877C-5.9299 8.6658 8.66651 -5.93584 20.0906 5.12744Z" fill="#5AC5DF"/>
</svg>
