<svg width="24" height="24" viewBox="0 0 24 24" fill="none" xmlns="http://www.w3.org/2000/svg">
<g clip-path="url(#clip0_31_20639)">
<path d="M11.9992 23.6155C18.4147 23.6155 23.6155 18.4147 23.6155 11.9992C23.6155 5.58363 18.4147 0.382812 11.9992 0.382812C5.58363 0.382812 0.382812 5.58363 0.382812 11.9992C0.382812 18.4147 5.58363 23.6155 11.9992 23.6155Z" fill="#F8E4C5"/>
<path d="M8.73052 9.25514L8.04295 13.5962C8.0002 13.8662 8.13619 14.1331 8.37975 14.2572L12.2959 16.2526C12.5395 16.3767 12.8353 16.3299 13.0286 16.1365L16.1365 13.0286C16.3298 12.8353 16.3766 12.5395 16.2525 12.2959L14.2572 8.37975C14.1331 8.13614 13.8662 8.0002 13.5962 8.04295L9.25509 8.73052C8.98505 8.77331 8.77327 8.9851 8.73052 9.25514Z" fill="#272F37"/>
<path d="M7.2759 1.38281C6.00952 1.94578 4.82293 2.74585 3.78441 3.78446C2.74589 4.82293 1.94588 6.00948 1.38281 7.27576L6.01731 6.54174C6.28731 6.49899 6.49913 6.28721 6.54188 6.01717L7.2759 1.38281Z" fill="#272F37"/>
<path d="M0.445312 13.2109C0.712032 15.7678 1.82438 18.2532 3.7839 20.2126C3.9286 20.3573 4.07626 20.4973 4.22649 20.6328L4.96013 16.0007C5.00288 15.7307 4.8669 15.4638 4.62334 15.3397L0.445312 13.2109Z" fill="#272F37"/>
<path d="M13.2109 0.445312L15.3396 4.62305C15.4637 4.86666 15.7305 5.0026 16.0006 4.95985L20.6322 4.22626C20.4968 4.07602 20.357 3.92846 20.2123 3.7838C18.2529 1.82447 15.7677 0.712126 13.2109 0.445312Z" fill="#272F37"/>
<path d="M9.58203 23.3608C12.3531 23.9477 15.2968 23.5134 17.8119 22.0582L13.6314 19.9282C13.3878 19.8041 13.092 19.8509 12.8986 20.0442L9.58203 23.3608Z" fill="#272F37"/>
<path d="M22.0582 17.8115C23.5132 15.2964 23.9474 12.353 23.3606 9.58203L20.0442 12.8984C19.8509 13.0917 19.804 13.3875 19.9282 13.6311L22.0582 17.8115Z" fill="#272F37"/>
<path opacity="0.15" d="M17.4053 1.71484C16.8456 2.43813 16.5117 3.34492 16.5117 4.33019C16.5117 6.69321 18.4273 8.60881 20.7903 8.60881C21.5677 8.60881 22.2961 8.40045 22.9243 8.03806C21.9337 5.30702 19.9479 3.05364 17.4053 1.71484Z" fill="white"/>
<path d="M23.9683 11.1367C23.7797 8.46503 22.7172 5.96579 20.9188 3.97224C20.9185 3.97201 20.9183 3.97163 20.9181 3.97135C20.9174 3.97065 20.9168 3.9699 20.9161 3.9692C20.8498 3.89574 20.7825 3.82304 20.7142 3.75099C20.7103 3.74687 20.7065 3.74255 20.7026 3.73843C20.6309 3.66305 20.5583 3.58838 20.4845 3.51451C20.4198 3.44982 20.3543 3.38612 20.2883 3.32302C20.2518 3.2881 20.2147 3.25388 20.1778 3.21938C20.1512 3.19468 20.1248 3.16974 20.0981 3.14527C20.0432 3.09493 19.9877 3.04543 19.9319 2.99621C19.9274 2.99222 19.9229 2.98815 19.9184 2.98416C17.7276 1.05474 14.9449 0 11.9996 0C9.35641 0 6.84414 0.849564 4.77324 2.41819C4.76354 2.42555 4.75388 2.43296 4.74423 2.44032C4.68385 2.48635 4.62381 2.5328 4.56418 2.58005C4.54431 2.5958 4.52457 2.61179 4.50484 2.62758C4.45398 2.66846 4.40321 2.70947 4.35291 2.75119C4.32493 2.77444 4.29718 2.79807 4.26938 2.82151C4.22649 2.85779 4.18356 2.89393 4.14113 2.93082C4.10602 2.96133 4.07138 2.99241 4.03655 3.0233C4.00107 3.05485 3.96535 3.08621 3.93015 3.11827C3.88674 3.15779 3.8439 3.1981 3.80096 3.23837C3.77434 3.2633 3.74748 3.28782 3.72109 3.31299C3.65162 3.37927 3.58271 3.4464 3.51465 3.51451C3.44654 3.58262 3.37951 3.65143 3.31318 3.7209C3.28796 3.74734 3.26344 3.77429 3.23846 3.80087C3.19824 3.84376 3.15797 3.88651 3.11846 3.92996C3.08649 3.96512 3.05523 4.0007 3.02368 4.03613C2.99269 4.07101 2.96152 4.10574 2.93091 4.14095C2.89402 4.18332 2.85793 4.22621 2.82169 4.26906C2.79821 4.2969 2.77449 4.32465 2.75124 4.35268C2.70952 4.40293 2.66851 4.4537 2.62768 4.50456C2.61179 4.52438 2.5958 4.54407 2.58005 4.56395C2.53285 4.62352 2.48644 4.68353 2.44046 4.74385C2.43305 4.7536 2.42555 4.76331 2.41819 4.7731C0.849564 6.84404 0 9.35627 0 11.9994C0 14.9447 1.05469 17.7275 2.98412 19.918C2.98819 19.9227 2.99227 19.9273 2.9964 19.9319C3.04557 19.9876 3.09507 20.043 3.14537 20.0978C3.16979 20.1246 3.19468 20.1509 3.21933 20.1774C3.25383 20.2144 3.2881 20.2515 3.32307 20.2881C3.38616 20.3541 3.44991 20.4196 3.51455 20.4843C3.58838 20.5581 3.66305 20.6307 3.73838 20.7023C3.74138 20.7052 3.74452 20.708 3.74752 20.7108C3.82084 20.7803 3.89485 20.8488 3.96957 20.9163C3.97023 20.9169 3.97088 20.9175 3.97154 20.9181C3.97196 20.9185 3.97234 20.9188 3.97276 20.9191C5.94746 22.7004 8.4183 23.7596 11.0614 23.9626C11.0641 23.9628 11.0666 23.9631 11.0692 23.9633C11.1364 23.9684 11.2038 23.9724 11.2712 23.9765C11.517 23.9915 11.7628 24 12.0081 24C12.5006 24 12.9913 23.9693 13.478 23.9093C13.4833 23.9086 13.4886 23.9079 13.4939 23.9073C13.5852 23.8959 13.6765 23.8838 13.7675 23.8703C13.7907 23.8669 13.8139 23.863 13.8371 23.8595C13.8895 23.8514 13.9419 23.8431 13.9942 23.8343C14.0453 23.8258 14.0962 23.817 14.147 23.8079C14.1502 23.8073 14.1534 23.8067 14.1567 23.8061C16.5407 23.3757 18.7352 22.2337 20.4845 20.4844C22.2334 18.7355 23.3753 16.5415 23.8058 14.158C23.8063 14.1553 23.8068 14.1527 23.8073 14.15C23.8198 14.0804 23.8316 14.0106 23.8429 13.9407C23.8483 13.908 23.8536 13.8752 23.8587 13.8424C23.8659 13.7955 23.8727 13.7486 23.8793 13.7016C23.8876 13.6436 23.8955 13.5854 23.9029 13.5273C23.9063 13.5007 23.9096 13.4742 23.9127 13.4476C23.9225 13.3666 23.9315 13.2854 23.9396 13.2042C23.9403 13.1969 23.9411 13.1896 23.9418 13.1823C24.0083 12.5051 24.018 11.821 23.9683 11.1367ZM20.4859 4.63918C21.6994 6.03418 22.5363 7.68194 22.9451 9.45743L19.7751 12.6274C19.7163 12.6861 19.6661 12.7506 19.6243 12.8192L16.6801 12.3529C16.6617 12.2748 16.6338 12.1979 16.596 12.124L14.6007 8.20783C14.563 8.13381 14.5172 8.06608 14.4648 8.00523L15.8183 5.34873C15.8458 5.35103 15.8736 5.35253 15.9016 5.35253C15.9546 5.35253 16.0081 5.3484 16.0618 5.33987L20.4859 4.63918ZM15.8678 12.7597L12.76 15.8675C12.6837 15.9438 12.5681 15.9621 12.472 15.9132L8.55583 13.9178C8.45978 13.8689 8.40663 13.7645 8.4235 13.658L9.11106 9.31699C9.12794 9.21053 9.21077 9.12771 9.31722 9.11083L13.6583 8.42327C13.7647 8.40625 13.869 8.45959 13.918 8.55555L15.9133 12.4717C15.9623 12.5678 15.944 12.6835 15.8678 12.7597ZM19.6144 3.7419C19.6484 3.7733 19.6825 3.80457 19.7162 3.83645C19.7385 3.85754 19.7606 3.87896 19.7828 3.90024C19.8048 3.92143 19.8266 3.94295 19.8485 3.96437L15.942 4.58307C15.8354 4.59999 15.7312 4.54674 15.6823 4.45079L13.8863 0.926017C16.0198 1.28986 18.0189 2.27157 19.6144 3.7419ZM6.92139 6.07811L7.62306 1.64799C8.98956 1.07002 10.4711 0.76622 11.9996 0.76622C12.3242 0.76622 12.6465 0.780705 12.9662 0.807798L14.9996 4.79865C15.0373 4.87262 15.0834 4.93988 15.1357 5.00068L13.7821 7.65742C13.7022 7.65081 13.6204 7.65358 13.5384 7.66661L9.19732 8.35413C9.11528 8.36716 9.03667 8.38975 8.96266 8.42074L6.85469 6.31276C6.88576 6.2387 6.9084 6.16014 6.92139 6.07811ZM3.05138 5.2067C3.06263 5.19198 3.07374 5.17721 3.08504 5.16249C3.11672 5.12134 3.14874 5.08042 3.18104 5.03964C3.20279 5.01221 3.22477 4.98488 3.24676 4.9576C3.27385 4.92404 3.30085 4.89043 3.32832 4.85715C3.37712 4.79813 3.42638 4.7394 3.47644 4.68127C3.49177 4.66351 3.50743 4.64598 3.5229 4.62831C3.56359 4.58162 3.6046 4.53507 3.64613 4.48899C3.66512 4.4679 3.68434 4.44695 3.70351 4.42599C3.74443 4.38132 3.78568 4.33688 3.82745 4.29268C3.84446 4.27463 3.86138 4.25659 3.87854 4.23868C3.93718 4.17737 3.99634 4.11648 4.05648 4.05634C4.11671 3.9961 4.17765 3.9369 4.23891 3.87821C4.25673 3.8612 4.27468 3.84437 4.29259 3.82745C4.33693 3.78563 4.38151 3.74415 4.42637 3.70313C4.44718 3.68415 4.4679 3.66512 4.48881 3.64627C4.53545 3.60423 4.58246 3.56274 4.62971 3.52154C4.64687 3.50663 4.66379 3.4914 4.68099 3.47658C4.73945 3.42624 4.79842 3.37674 4.85771 3.32771C4.89029 3.3008 4.9232 3.27432 4.9561 3.24783C4.98423 3.2251 5.01245 3.20246 5.04076 3.18001C5.08084 3.14827 5.12106 3.11677 5.16156 3.08565C5.17731 3.07355 5.1931 3.06165 5.20885 3.0496C5.7054 2.67188 6.23134 2.337 6.78409 2.04741L6.16464 5.95811C6.14776 6.06456 6.06493 6.14734 5.95848 6.16426L2.04769 6.78362C2.33761 6.23036 2.67301 5.70376 3.05138 5.2067ZM0.766267 11.9995C0.766267 10.471 1.07016 8.98938 1.64813 7.62283L6.07839 6.92111C6.16042 6.90812 6.23898 6.88548 6.313 6.8545L8.42097 8.96247C8.38999 9.03649 8.36734 9.1151 8.35436 9.19713L7.6668 13.5382C7.65381 13.6202 7.65105 13.7019 7.65766 13.7819L5.00143 15.1352C4.94059 15.0829 4.87285 15.0371 4.79884 14.9993L0.807752 12.9658C0.780751 12.6461 0.766267 12.324 0.766267 11.9995ZM4.58335 15.9418L3.9646 19.8486C3.94318 19.8267 3.92166 19.8049 3.90038 19.7828C3.8791 19.7606 3.85768 19.7385 3.83659 19.7162C3.80452 19.6824 3.77302 19.6481 3.74143 19.6139C2.27124 18.0182 1.28967 16.0193 0.925924 13.8859L4.45098 15.6819C4.54707 15.7309 4.60023 15.8353 4.58335 15.9418ZM4.63942 20.486L5.34015 16.0616C5.35314 15.9796 5.35595 15.8978 5.34929 15.8179L8.00552 14.4645C8.06636 14.5169 8.13409 14.5627 8.20811 14.6004L12.1242 16.5958C12.1983 16.6334 12.2751 16.6613 12.3532 16.6798L12.8195 19.6242C12.7509 19.6658 12.6864 19.7161 12.6277 19.7749L9.45747 22.9451C7.68203 22.5362 6.03437 21.6995 4.63942 20.486ZM13.8468 23.0819C13.8006 23.0895 13.7544 23.0971 13.708 23.1041C13.6809 23.1082 13.6538 23.1122 13.6267 23.1162C13.0924 23.1932 12.5491 23.2328 11.9996 23.2328C11.731 23.2328 11.464 23.2231 11.1986 23.2045C11.1498 23.201 11.101 23.197 11.0521 23.1929C11.031 23.1912 11.0098 23.1893 10.9887 23.1875C10.7828 23.1688 10.577 23.1447 10.3714 23.1146L13.1694 20.3166C13.2456 20.2403 13.3613 20.222 13.4573 20.271L16.9853 22.0686C15.9892 22.5625 14.9316 22.9018 13.8468 23.0819ZM19.9427 19.9426C19.2899 20.5955 18.5706 21.1578 17.8003 21.6239L13.8052 19.5883C13.7312 19.5506 13.6543 19.5227 13.5762 19.5042L13.1098 16.5587C13.1783 16.517 13.2432 16.4679 13.3018 16.4092L16.4097 13.3014C16.4684 13.2426 16.5186 13.1782 16.5604 13.1096L19.5046 13.5759C19.5231 13.654 19.5509 13.7308 19.5887 13.8048L21.6243 17.7999C21.158 18.5703 20.5957 19.2897 19.9427 19.9426ZM23.1161 13.6277C23.1122 13.654 23.1083 13.6804 23.1043 13.7068C23.0971 13.754 23.0894 13.8012 23.0816 13.8483C22.9015 14.9325 22.5623 15.9894 22.0687 16.985L20.2712 13.457C20.2223 13.361 20.2406 13.2453 20.3168 13.1691L23.1146 10.3714C23.1446 10.5767 23.1688 10.7822 23.1874 10.9879C23.1893 11.0098 23.1913 11.0318 23.1931 11.0539C23.1972 11.1018 23.2011 11.1498 23.2045 11.1978C23.2231 11.4634 23.2329 11.7307 23.2329 11.9996C23.2329 12.5493 23.1933 13.0931 23.1161 13.6277Z" fill="#030401"/>
<path opacity="0.15" d="M13.1926 22.4231C6.77704 22.4231 1.57621 17.2222 1.57621 10.8067C1.57621 7.90262 2.64191 5.24747 4.40352 3.21094C1.94094 5.34099 0.382812 8.48856 0.382812 12.0001C0.382812 18.4156 5.58365 23.6165 11.9992 23.6165C15.5107 23.6165 18.6583 22.0583 20.7883 19.5958C18.7518 21.3574 16.0967 22.4231 13.1926 22.4231Z" fill="#030401"/>
</g>
<defs>
<clipPath id="clip0_31_20639">
<rect width="24" height="24" fill="white"/>
</clipPath>
</defs>
</svg>
