<svg width="24" height="24" viewBox="0 0 24 24" fill="none" xmlns="http://www.w3.org/2000/svg">
<path d="M4.40403 17.3222C4.44068 16.9879 4.45901 16.8208 4.48196 16.7015C4.76052 15.2543 5.93111 14.2799 7.40491 14.2686C7.52634 14.2677 7.71595 14.2816 8.09516 14.3095C9.27296 14.3959 10.5997 14.4667 11.7861 14.4667C13.0244 14.4667 14.3976 14.3896 15.5914 14.298C15.9571 14.27 16.1399 14.256 16.2588 14.2563C17.6551 14.2601 18.7831 15.1264 19.147 16.4745C19.178 16.5893 19.2076 16.748 19.2668 17.0653C19.3321 17.4153 19.3647 17.5902 19.3774 17.7324C19.5246 19.3759 18.3169 20.8298 16.6742 20.9865C16.5321 21 16.3541 21 15.9982 21L7.70058 21C7.37668 21 7.21474 21 7.08232 20.9882C5.51066 20.8487 4.31572 19.5155 4.34832 17.938C4.35106 17.8051 4.36872 17.6441 4.40403 17.3222Z" fill="#0E795D"/>
<path fill-rule="evenodd" clip-rule="evenodd" d="M16.2575 14.7563C16.1639 14.756 16.008 14.7676 15.6296 14.7966C14.4299 14.8885 13.0425 14.9667 11.7861 14.9667C10.5823 14.9667 9.24199 14.895 8.05855 14.8081C7.66622 14.7793 7.5042 14.7679 7.40873 14.7686C6.17319 14.7781 5.20647 15.5827 4.97294 16.7961C4.95485 16.89 4.93898 17.0307 4.90104 17.3767C4.86451 17.7097 4.85037 17.8433 4.8482 17.9483C4.82104 19.2629 5.81682 20.3739 7.12654 20.4902C7.23123 20.4995 7.36552 20.5 7.70057 20.5L15.9982 20.5C16.3665 20.5 16.5145 20.4994 16.6267 20.4887C17.9956 20.3582 19.0021 19.1466 18.8794 17.777C18.8694 17.6647 18.8428 17.5191 18.7753 17.157C18.714 16.8286 18.6887 16.6953 18.6643 16.6048C18.3592 15.4744 17.4283 14.7595 16.2575 14.7563ZM15.5911 13.7966C15.9213 13.7712 16.1211 13.7559 16.2602 13.7563C17.882 13.7607 19.2071 14.7785 19.6297 16.3442C19.666 16.4784 19.6988 16.6546 19.7524 16.942L19.7646 17.0073C19.8239 17.3252 19.8605 17.5216 19.8754 17.6878C20.0472 19.6052 18.6381 21.3014 16.7216 21.4842C16.5556 21.5 16.3558 21.5 16.0325 21.5L7.66966 21.5C7.3752 21.5 7.19288 21.5 7.03808 21.4863C5.20448 21.3235 3.81038 19.7681 3.84842 17.9277C3.85163 17.7723 3.87151 17.5911 3.90363 17.2984C3.90474 17.2883 3.90586 17.278 3.907 17.2677C3.90824 17.2563 3.90947 17.2451 3.91068 17.2341C3.94384 16.9315 3.96413 16.7465 3.99097 16.607C4.31456 14.9258 5.68902 13.7818 7.40107 13.7687C7.54308 13.7676 7.74987 13.7828 8.09217 13.8079L8.13174 13.8108C9.30391 13.8968 10.617 13.9667 11.7861 13.9667C13.0062 13.9667 14.3652 13.8906 15.5531 13.7995L15.5911 13.7966Z" fill="#0E795D"/>
<path d="M8.00068 7C8.00068 4.79086 9.79154 3 12.0007 3C14.2098 3 16.0007 4.79086 16.0007 7V7.57143C16.0007 9.46498 14.4657 11 12.5721 11H11.4293C9.5357 11 8.00068 9.46498 8.00068 7.57143V7Z" fill="#0E795D"/>
</svg>
