<svg width="69" height="77" viewBox="0 0 69 77" fill="none" xmlns="http://www.w3.org/2000/svg">
<path opacity="0.3" fill-rule="evenodd" clip-rule="evenodd" d="M30.1065 60.3299C28.7879 59.8859 27.435 59.1508 26.2358 57.9623C19.0902 61.5027 12.442 57.8598 8.95555 55.2049C8.99811 57.1744 9.20708 59.1389 9.63264 61.0374C13.9409 66.0555 23.0015 69.1519 26.4873 68.7105C29.9731 68.2684 32.0297 64.1992 30.1065 60.3299Z" fill="white"/>
<path fill-rule="evenodd" clip-rule="evenodd" d="M51.0506 10.7368C53.5665 10.7368 55.6054 12.756 55.6054 15.2462C55.6054 17.7364 53.5659 19.7556 51.0506 19.7556C48.5354 19.7556 46.4959 17.7364 46.4959 15.2462C46.4959 12.756 48.5354 10.7368 51.0506 10.7368Z" fill="white"/>
<mask id="mask0_6_8204" style="mask-type:luminance" maskUnits="userSpaceOnUse" x="0" y="0" width="33" height="69">
<path d="M30.1065 60.3306C27.691 59.5175 25.1631 57.7272 23.6679 53.9636C20.1453 45.0944 19.843 31.143 20.8497 24.6653C21.8564 18.1883 35.6464 15.3975 31.4182 0.0512873C31.4182 0.0512873 31.6195 8.4224 22.2591 13.4047C12.8981 18.387 -0.489878 20.1811 0.0138056 34.8305C0.0138056 34.8305 1.22189 29.6482 7.16002 26.9581C13.0988 24.2673 13.4005 31.4423 10.3809 43.5003C9.05471 48.797 8.32999 55.2288 9.63271 61.038C13.941 66.0561 23.0016 69.1526 26.4874 68.7111C29.9732 68.269 32.0298 64.1998 30.1065 60.3306Z" fill="white"/>
</mask>
<g mask="url(#mask0_6_8204)">
<path d="M35.6451 0.0512873H-0.491175V69.1526H35.6451V0.0512873Z" fill="white"/>
</g>
<path fill-rule="evenodd" clip-rule="evenodd" d="M14.1112 0C17.6694 0 20.5531 2.85493 20.5531 6.37769C20.5531 9.90045 17.6694 12.7554 14.1112 12.7554C10.5537 12.7554 7.66942 9.89982 7.66942 6.37769C7.66942 2.85493 10.5537 0 14.1112 0Z" fill="white"/>
<mask id="mask1_6_8204" style="mask-type:luminance" maskUnits="userSpaceOnUse" x="9" y="8" width="60" height="69">
<path d="M45.8123 70.2316C47.6517 67.9847 49.2663 65.1053 50.4458 61.4869C54.4721 49.1302 50.797 43.9983 51.955 36.3749C53.1122 28.7514 54.1189 28.0534 58.5981 27.7051C63.0773 27.356 68.7144 30.8939 68.7144 30.8939C62.5234 22.2241 53.6159 24.2169 44.2041 20.4803C34.7929 16.7431 35.193 8.42295 35.193 8.42295C35.193 8.42295 31.5694 17.0928 38.7163 21.8757C45.8625 26.6593 46.6685 32.439 45.4604 38.418C44.3775 43.7794 40.0571 56.5914 30.106 60.3318C28.9589 60.7625 27.7368 61.0738 26.4366 61.2385C20.7659 61.9573 14.6455 61.6228 9.63215 61.0392C10.3931 64.433 11.8457 67.6137 14.2746 70.2316C16.7422 72.8916 20.2159 74.9705 24.9948 76.1018C24.9948 76.1018 25.7361 76.2678 31.5224 76.9268C35.6148 77.3934 41.3693 75.6584 45.8123 70.2316Z" fill="white"/>
</mask>
<g mask="url(#mask1_6_8204)">
<path d="M68.7144 8.42295H9.63215V77.394H68.7144V8.42295Z" fill="white"/>
</g>
</svg>
