<svg width="24" height="24" viewBox="0 0 24 24" fill="none" xmlns="http://www.w3.org/2000/svg">
<path d="M12.2837 2C14.6195 2 15.3387 3.34721 15.4902 4.64302C15.5626 5.26214 16.6826 5.93158 17.2626 5.70341C18.4148 5.25025 19.8508 5.22903 20.9439 7C22.0083 9.02485 20.9507 10.3803 19.8702 11.1632C19.4033 11.5015 19.4033 12.4985 19.8702 12.8368C20.9507 13.6197 22.0083 14.9751 20.9439 17C19.8508 18.771 18.4148 18.7497 17.2626 18.2966C16.6826 18.0684 15.5626 18.7379 15.4902 19.357C15.3387 20.6528 14.6195 22 12.2837 22C9.94781 22 9.22861 20.6528 9.0771 19.357C9.00471 18.7379 7.88475 18.0684 7.30467 18.2966C6.15256 18.7497 4.71647 18.771 3.6234 17C2.67854 15.2025 3.40589 13.9325 4.33703 13.1223C4.8012 12.7184 4.72357 11.4663 4.22247 11.1093C3.19005 10.3737 2.39475 9.10049 3.6234 7C4.67569 5.20101 5.99215 5.09638 7.0906 5.48925C7.69417 5.70512 9.00358 4.97007 9.12326 4.34033C9.35029 3.14576 10.1295 2 12.2837 2Z" stroke="#030401" stroke-width="1.4"/>
<circle cx="12" cy="12" r="2.3" stroke="#030401" stroke-width="1.4"/>
</svg>
