<svg width="40" height="40" viewBox="0 0 40 40" fill="none" xmlns="http://www.w3.org/2000/svg">
<g clip-path="url(#clip0_43_4489)">
<path d="M19.998 39.9961C31.0427 39.9961 39.9961 31.0427 39.9961 19.998C39.9961 8.95343 31.0427 0 19.998 0C8.95343 0 0 8.95343 0 19.998C0 31.0427 8.95343 39.9961 19.998 39.9961Z" fill="#85D052"/>
<path d="M14.342 39.177C13.0799 38.806 11.8548 38.3102 10.6861 37.696C12.0512 33.7471 12.2477 28.9064 9.6164 24.6847C7.35141 21.0513 3.65207 18.9103 0.101562 17.9709C0.228762 16.7378 0.469411 15.5207 0.819523 14.3359C5.72461 15.0539 10.5331 18.3927 13.3736 23.6246C16.2062 28.842 16.3929 34.6768 14.342 39.177Z" fill="#E9EFF4"/>
<path d="M29.5396 37.5729C20.6172 42.4169 9.63744 39.7687 3.83008 31.7696C9.94818 37.2139 19.0581 38.534 26.6701 34.4016C36.3765 29.1319 39.9728 16.9915 34.7031 7.28506C34.2773 6.50108 33.8072 5.75733 33.2962 5.05469C34.9792 6.55179 36.4361 8.36204 37.5735 10.4565C42.8432 20.1628 39.246 32.3032 29.5396 37.5729Z" fill="#6DB944"/>
<path d="M15.202 36.7338C14.9839 37.5822 14.6966 38.4 14.3415 39.1784C14.2626 39.155 14.1838 39.1317 14.1057 39.1076C13.45 38.9047 12.804 38.6696 12.1712 38.4014C12.0624 38.3552 10.674 37.7313 10.6856 37.6974C10.8836 37.1243 11.0575 36.5319 11.2007 35.9258C12.5016 36.3298 13.8426 36.601 15.202 36.7338Z" fill="#D3DCE2"/>
<path d="M39.9063 21.9009C39.7904 23.1107 39.5643 24.3052 39.2318 25.469C34.4378 24.6561 29.7733 21.3495 26.994 16.2295C24.2074 11.0966 23.9804 5.36731 25.9275 0.898438C27.1034 1.26386 28.2456 1.73633 29.3387 2.31264C28.1925 5.76969 27.9574 9.98503 29.7162 13.8373C31.7703 18.3391 35.881 20.8473 39.9063 21.9009Z" fill="#E9EFF4"/>
<path d="M39.9053 21.9003C39.8605 22.3683 39.8002 22.8162 39.725 23.2791C39.6967 23.4532 39.2652 25.4743 39.2308 25.4684C38.017 25.2624 36.8113 24.897 35.6426 24.3818C36.1207 23.2082 36.487 21.992 36.7364 20.75C37.7723 21.2418 38.842 21.6217 39.9053 21.9003Z" fill="#D3DCE2"/>
<path d="M39.9054 21.9001C39.8909 22.0515 39.8748 22.2019 39.8571 22.3525C39.8483 22.4281 39.8386 22.5031 39.8289 22.5787C39.8185 22.6535 39.8088 22.7292 39.7975 22.804C39.7887 22.8684 39.779 22.9328 39.7694 22.9973C39.7557 23.0914 39.7404 23.1848 39.7251 23.279C39.709 23.3716 39.6929 23.465 39.676 23.5575C39.6712 23.584 39.6663 23.6106 39.6615 23.6372C39.6437 23.7329 39.6253 23.8287 39.6059 23.9245C39.6059 23.9253 39.6059 23.9262 39.6052 23.927C39.5851 24.0284 39.5641 24.129 39.5416 24.2296C39.5287 24.2924 39.5142 24.3552 39.4997 24.418C39.4868 24.4751 39.4739 24.5323 39.4602 24.5894C39.4433 24.6635 39.4248 24.7376 39.4063 24.8108C39.3878 24.8841 39.3693 24.9573 39.35 25.0306C39.3122 25.1771 39.2727 25.3228 39.2308 25.4684C38.017 25.2624 36.8113 24.897 35.6426 24.3818C36.1207 23.2082 36.487 21.992 36.7364 20.75C37.7724 21.2417 38.8421 21.6216 39.9054 21.9001Z" fill="#D3DCE2"/>
</g>
<defs>
<clipPath id="clip0_43_4489">
<rect width="40" height="40" fill="white"/>
</clipPath>
</defs>
</svg>
