<svg width="40" height="40" viewBox="0 0 40 40" fill="none" xmlns="http://www.w3.org/2000/svg">
<g clip-path="url(#clip0_45_12761)">
<path d="M27.4708 0.860315C25.4196 0.613127 23.456 1.36157 21.7387 2.24852L21.7034 2.21821C21.7034 2.21821 21.3439 2.40813 20.7646 2.80852C19.8548 3.38751 19.0253 4.08095 18.2955 4.86821C16.4455 6.69314 14.2907 9.52455 13.0581 13.5581C10.5881 21.642 2.42024 26.6669 2.42024 26.6669C2.42024 26.6669 8.6226 27.2002 11.2616 24.5611C11.2616 24.5611 4.56946 36.1934 0 39.1911C0 39.1911 13.9896 36.0468 21.2875 26.7278C21.2875 26.7278 19.6785 32.3303 14.1391 37.8697C14.1391 37.8697 30.1265 30.5099 36.7907 21.7116C38.7734 19.4981 39.9797 16.5746 39.9797 13.3692C39.9798 13.3693 41.06 2.49766 27.4708 0.860315Z" fill="#EA5149"/>
<path d="M37.6184 13.5934C37.5224 16.0214 36.5474 18.4212 34.6934 20.2754C32.8392 22.1295 30.4395 23.1044 28.0114 23.2004C27.807 23.2085 27.6027 23.2106 27.3983 23.2062C24.9073 23.1534 22.4319 22.1765 20.5308 20.2754C18.6296 18.3743 17.6527 15.8988 17.6 13.4079C17.5955 13.2035 17.5975 12.9991 17.6058 12.7947C17.7018 10.3668 18.6767 7.96691 20.5308 6.11276C22.3844 4.25909 24.7843 3.28377 27.2123 3.18776C27.4162 3.17963 27.621 3.17752 27.8254 3.18198C30.3168 3.23471 32.7922 4.21167 34.6933 6.11276C36.5944 8.01386 37.5713 10.4893 37.6241 12.9803C37.6286 13.1847 37.6265 13.3889 37.6184 13.5934Z" fill="#FCF6D6"/>
<path d="M24.7574 20.2751C20.8464 16.3641 20.8464 10.0233 24.7574 6.11247C26.1716 4.69825 27.9036 3.79575 29.7235 3.40442C26.5106 2.71341 23.0237 3.61591 20.527 6.11247C16.616 10.0234 16.616 16.3642 20.527 20.2751C23.0237 22.7718 26.5106 23.6743 29.7235 22.9832C27.9036 22.5918 26.1715 21.6893 24.7574 20.2751Z" fill="#EAE3C5"/>
<path d="M27.8254 3.18198V3.18315C27.8009 5.903 26.7275 8.46106 24.803 10.3854C22.8786 12.3098 20.3211 13.3828 17.6008 13.4077H17.6C17.5955 13.2033 17.5975 12.999 17.6058 12.7946C20.1605 12.7684 22.5619 11.7592 24.3698 9.95168C26.1774 8.14418 27.1866 5.7423 27.2123 3.18761C27.4163 3.17964 27.621 3.17753 27.8254 3.18198Z" fill="#C1BBA0"/>
<path d="M37.6185 13.5936C35.0638 13.6198 32.662 14.629 30.8545 16.4365C29.0466 18.244 28.0373 20.6459 28.0116 23.2006C27.8072 23.2087 27.6028 23.2108 27.3984 23.2063V23.2059C27.423 20.4852 28.4963 17.9272 30.4208 16.0028C32.3452 14.0784 34.9032 13.005 37.6235 12.9805H37.6243C37.6288 13.1848 37.6267 13.3891 37.6185 13.5936Z" fill="#C1BBA0"/>
<path d="M36.0447 14.5789C35.979 14.5789 35.9127 14.5579 35.8568 14.5143C35.7231 14.4104 35.699 14.2178 35.803 14.0841C36.099 13.7035 36.0302 13.1531 35.6497 12.8572C35.516 12.7533 35.4918 12.5606 35.5959 12.427C35.6998 12.2933 35.8925 12.2692 36.0261 12.3732C36.6736 12.8767 36.7906 13.8131 36.2871 14.4605C36.2265 14.5382 36.1361 14.5789 36.0447 14.5789Z" fill="#EA5149"/>
<path d="M34.4979 14.9266C34.4475 14.9266 34.3965 14.9142 34.3493 14.8879C34.2013 14.8057 34.148 14.6191 34.2302 14.471C34.3288 14.2936 34.3523 14.0885 34.2966 13.8934C34.2409 13.6982 34.1124 13.5365 33.9351 13.4379C33.7871 13.3557 33.7338 13.1691 33.8159 13.021C33.8981 12.8731 34.0849 12.8197 34.2328 12.9019C34.5534 13.08 34.7854 13.3723 34.8862 13.7249C34.987 14.0774 34.9443 14.4482 34.7662 14.7687C34.7101 14.8696 34.6056 14.9266 34.4979 14.9266Z" fill="#EA5149"/>
<path d="M33.0179 15.5671C32.9858 15.5671 32.9531 15.562 32.921 15.5513C32.7603 15.4978 32.6735 15.3241 32.7271 15.1635C32.7842 14.9923 32.7711 14.809 32.6904 14.6474C32.6097 14.4859 32.4709 14.3655 32.2996 14.3084C32.1389 14.2549 32.0521 14.0812 32.1056 13.9206C32.1592 13.76 32.3329 13.6732 32.4935 13.7268C32.8201 13.8357 33.0849 14.0652 33.2389 14.3733C33.3928 14.6812 33.4177 15.0308 33.3088 15.3574C33.2659 15.4858 33.1463 15.5671 33.0179 15.5671Z" fill="#EA5149"/>
<path d="M31.6433 16.5043C31.632 16.5043 31.6206 16.5037 31.609 16.5025C31.4407 16.4837 31.3195 16.3322 31.3382 16.1639C31.3767 15.8179 31.1265 15.5051 30.7805 15.4668C30.6122 15.448 30.491 15.2965 30.5097 15.1282C30.5285 14.9599 30.6803 14.8386 30.8483 14.8574C31.5304 14.9332 32.0235 15.5496 31.9478 16.2317C31.9303 16.3884 31.7975 16.5043 31.6433 16.5043Z" fill="#EA5149"/>
<path d="M30.4708 17.678C30.3167 17.678 30.1839 17.562 30.1665 17.4053C30.1281 17.0592 29.8153 16.8092 29.4694 16.8475C29.3009 16.8662 29.1496 16.7449 29.1308 16.5767C29.1121 16.4085 29.2334 16.2569 29.4016 16.2381C30.0832 16.1624 30.7001 16.6556 30.7759 17.3376C30.7946 17.5059 30.6733 17.6574 30.505 17.6762C30.4936 17.6774 30.4821 17.678 30.4708 17.678Z" fill="#EA5149"/>
<path d="M29.6081 18.981C29.4797 18.981 29.3601 18.8998 29.3173 18.7713C29.2602 18.6 29.1399 18.4611 28.9783 18.3804C28.8168 18.2997 28.6335 18.2867 28.4622 18.3438C28.3016 18.3974 28.1279 18.3106 28.0744 18.1499C28.0209 17.9893 28.1076 17.8157 28.2683 17.7621C28.595 17.6532 28.9445 17.6781 29.2525 17.8321C29.5604 17.986 29.79 18.2507 29.8989 18.5774C29.9525 18.7381 29.8657 18.9117 29.705 18.9653C29.6729 18.976 29.6402 18.981 29.6081 18.981Z" fill="#EA5149"/>
<path d="M29.0108 20.4163C28.9031 20.4163 28.7986 20.3594 28.7425 20.2585C28.6439 20.0812 28.4822 19.9526 28.2871 19.8969C28.0919 19.8412 27.8867 19.8648 27.7094 19.9633C27.5614 20.0455 27.3747 19.9922 27.2925 19.8442C27.2103 19.6962 27.2636 19.5096 27.4117 19.4273C27.7323 19.2492 28.1028 19.2066 28.4556 19.3073C28.8082 19.4081 29.1004 19.6401 29.2785 19.9607C29.3607 20.1087 29.3075 20.2953 29.1594 20.3776C29.1122 20.4039 29.0611 20.4163 29.0108 20.4163Z" fill="#EA5149"/>
<path d="M28.6866 21.9395C28.5952 21.9395 28.5049 21.8989 28.4444 21.8212C28.1484 21.4406 27.598 21.3718 27.2175 21.6678C27.0837 21.7717 26.8912 21.7476 26.7872 21.614C26.6833 21.4804 26.7074 21.2878 26.841 21.1838C27.4884 20.6803 28.4248 20.7973 28.9282 21.4448C29.0321 21.5784 29.0081 21.771 28.8745 21.875C28.8186 21.9184 28.7524 21.9395 28.6866 21.9395Z" fill="#EA5149"/>
<path d="M28.1866 5.27235C28.0952 5.27235 28.0048 5.23173 27.9444 5.15399C27.8011 4.9697 27.5944 4.8522 27.3627 4.82321C27.1308 4.79415 26.9018 4.85727 26.7175 5.00063C26.5838 5.10454 26.3912 5.08048 26.2872 4.94688C26.1833 4.81321 26.2074 4.62063 26.341 4.51665C26.6546 4.27274 27.0446 4.16555 27.4387 4.21485C27.8329 4.26415 28.1843 4.46399 28.4284 4.77759C28.5323 4.91126 28.5082 5.10384 28.3746 5.20782C28.3186 5.25126 28.2523 5.27235 28.1866 5.27235Z" fill="#EA5149"/>
<path d="M27.6319 7.02863C27.5242 7.02863 27.4197 6.97175 27.3636 6.87089C27.1602 6.50464 26.6968 6.37222 26.3305 6.57573C26.1824 6.65792 25.9958 6.60456 25.9136 6.45659C25.8314 6.30862 25.8847 6.12198 26.0328 6.03972C26.6945 5.67206 27.532 5.91144 27.8996 6.57308C27.9817 6.72105 27.9284 6.90769 27.7804 6.98995C27.7335 7.0162 27.6823 7.02863 27.6319 7.02863Z" fill="#EA5149"/>
<path d="M26.7839 8.71151C26.6554 8.71151 26.5359 8.63026 26.4931 8.50175C26.436 8.33042 26.3156 8.19159 26.1541 8.11089C25.9926 8.03018 25.8093 8.01714 25.638 8.07425C25.4773 8.12776 25.3037 8.04104 25.2502 7.88042C25.1967 7.71979 25.2834 7.54612 25.4441 7.4926C25.7708 7.3837 26.1203 7.40854 26.4282 7.56253C26.7362 7.71651 26.9658 7.9812 27.0747 8.30792C27.1282 8.46854 27.0415 8.64222 26.8808 8.69573C26.8487 8.70643 26.816 8.71151 26.7839 8.71151Z" fill="#EA5149"/>
<path d="M25.6388 10.2953C25.4846 10.2953 25.3519 10.1793 25.3345 10.0225C25.296 9.67652 24.9835 9.4262 24.6374 9.46472C24.4689 9.48339 24.3175 9.36214 24.2988 9.19394C24.28 9.02566 24.4014 8.87409 24.5696 8.85534C25.2514 8.77956 25.8681 9.27277 25.9439 9.9548C25.9626 10.1231 25.8413 10.2746 25.6731 10.2934C25.6616 10.2947 25.6501 10.2953 25.6388 10.2953Z" fill="#EA5149"/>
<path d="M24.2606 11.6724C24.2493 11.6724 24.2379 11.6717 24.2263 11.6705C24.058 11.6517 23.9368 11.5003 23.9555 11.3319C23.9742 11.1643 23.9264 10.9996 23.821 10.8678C23.7156 10.7362 23.5653 10.6534 23.3977 10.6347C23.2294 10.616 23.1082 10.4645 23.1269 10.2961C23.1457 10.1278 23.2975 10.0067 23.4655 10.0253C23.7959 10.062 24.0922 10.2252 24.2998 10.4847C24.5074 10.7442 24.6016 11.0692 24.5649 11.3996C24.5475 11.5564 24.4147 11.6724 24.2606 11.6724Z" fill="#EA5149"/>
<path d="M22.7523 12.7468C22.7202 12.7468 22.6874 12.7417 22.6553 12.731C22.4947 12.6775 22.4079 12.5039 22.4614 12.3432C22.5185 12.172 22.5055 11.9887 22.4248 11.8271C22.3441 11.6656 22.2053 11.5453 22.0339 11.4881C21.8733 11.4346 21.7865 11.261 21.84 11.1003C21.8935 10.9397 22.0671 10.8529 22.2278 10.9064C22.5545 11.0153 22.8192 11.2449 22.9732 11.5529C23.1272 11.8609 23.1521 12.2105 23.0431 12.5371C23.0003 12.6657 22.8806 12.7468 22.7523 12.7468Z" fill="#EA5149"/>
<path d="M21.1073 13.5516C21.0569 13.5516 21.0059 13.5392 20.9587 13.5129C20.8107 13.4307 20.7574 13.2441 20.8395 13.096C20.9381 12.9186 20.9617 12.7135 20.9059 12.5184C20.8502 12.3232 20.7218 12.1615 20.5445 12.0629C20.3965 11.9807 20.3431 11.7941 20.4253 11.646C20.5076 11.4981 20.6941 11.4447 20.8422 11.5269C21.1628 11.705 21.3948 11.9973 21.4956 12.3499C21.5963 12.7024 21.5537 13.0732 21.3756 13.3937C21.3196 13.4946 21.215 13.5516 21.1073 13.5516Z" fill="#EA5149"/>
<path d="M19.3767 14.0828C19.311 14.0828 19.2447 14.0618 19.1888 14.0182C19.0551 13.9143 19.031 13.7216 19.135 13.588C19.2784 13.4037 19.3414 13.1745 19.3124 12.9428C19.2835 12.7111 19.166 12.5044 18.9817 12.3611C18.848 12.2572 18.8239 12.0645 18.9279 11.9308C19.0318 11.7972 19.2245 11.7732 19.3581 11.8771C19.6717 12.121 19.8717 12.4725 19.9209 12.8668C19.9702 13.261 19.863 13.6508 19.619 13.9645C19.5585 14.0422 19.4681 14.0828 19.3767 14.0828Z" fill="#EA5149"/>
</g>
<defs>
<clipPath id="clip0_45_12761">
<rect width="40" height="40" fill="white"/>
</clipPath>
</defs>
</svg>
