<svg width="24" height="24" viewBox="0 0 24 24" fill="none" xmlns="http://www.w3.org/2000/svg">
<path d="M12.0176 7.5C8.42773 7.5 5.51758 10.4101 5.51758 14H18.5176C18.5176 10.4101 15.6074 7.5 12.0176 7.5Z" fill="#0E795D"/>
<path fill-rule="evenodd" clip-rule="evenodd" d="M12.0008 5L11.9657 5.00007C11.4134 5.00221 10.964 4.55624 10.9618 4.00396C10.9597 3.45168 11.4057 3.00223 11.9579 3.00008L12.0008 3L12.0436 3.00008C12.5958 3.00223 13.0418 3.45168 13.0397 4.00396C13.0375 4.55624 12.5881 5.00221 12.0358 5.00007L12.0008 5ZM5.66711 6.19711C6.05612 6.58915 6.05366 7.22231 5.66162 7.61131L5.63679 7.63604C5.24627 8.02656 4.6131 8.02656 4.22258 7.63604C3.83206 7.24551 3.83206 6.61235 4.22258 6.22182L4.25291 6.19161C4.64495 5.80261 5.27811 5.80507 5.66711 6.19711ZM18.3344 6.19711C18.7234 5.80507 19.3566 5.80261 19.7486 6.19161L19.7789 6.22183C20.1695 6.61235 20.1695 7.24551 19.7789 7.63604C19.3884 8.02656 18.7552 8.02656 18.3647 7.63604L18.3399 7.61131C17.9479 7.22231 17.9454 6.58915 18.3344 6.19711Z" fill="#0E795D"/>
<path fill-rule="evenodd" clip-rule="evenodd" d="M2 14.3016C2 13.915 2.3134 13.6016 2.7 13.6016H21.3C21.6866 13.6016 22 13.915 22 14.3016C22 14.6882 21.6866 15.0016 21.3 15.0016H2.7C2.3134 15.0016 2 14.6882 2 14.3016Z" fill="#0E795D"/>
<path fill-rule="evenodd" clip-rule="evenodd" d="M5 17.3016C5 16.915 5.3134 16.6016 5.7 16.6016L18.3 16.6016C18.6866 16.6016 19 16.915 19 17.3016C19 17.6882 18.6866 18.0016 18.3 18.0016L5.7 18.0016C5.3134 18.0016 5 17.6882 5 17.3016Z" fill="#0E795D"/>
</svg>
