<svg width="18" height="17" viewBox="0 0 18 17" fill="none" xmlns="http://www.w3.org/2000/svg">
<path d="M7.09371 1.63912C7.8902 0.399065 9.70268 0.399067 10.4992 1.63912L11.8199 3.69535C12.0939 4.12202 12.5182 4.43025 13.0087 4.55904L15.3724 5.17971C16.7979 5.55402 17.358 7.27779 16.4247 8.4185L14.8773 10.31C14.5562 10.7025 14.3941 11.2012 14.4232 11.7075L14.5633 14.1473C14.6478 15.6187 13.1815 16.684 11.8082 16.149L9.53114 15.2618C9.05864 15.0777 8.53424 15.0777 8.06175 15.2618L5.78464 16.149C4.41138 16.684 2.94505 15.6187 3.02956 14.1473L3.16969 11.7075C3.19877 11.2012 3.03672 10.7025 2.71563 10.31L1.16816 8.4185C0.234927 7.27779 0.795017 5.55402 2.22051 5.17971L4.58422 4.55904C5.07469 4.43025 5.49894 4.12202 5.77299 3.69535L7.09371 1.63912Z" stroke="#030401" stroke-width="1.4"/>
</svg>
