<svg width="24" height="24" viewBox="0 0 24 24" fill="none" xmlns="http://www.w3.org/2000/svg">
<path fill-rule="evenodd" clip-rule="evenodd" d="M12.0127 22.9478C6.00646 22.9478 1.10156 18.0832 1.10156 12.0367C1.10156 5.99338 6.00089 1.125 12.0127 1.125C18.0542 1.125 22.9244 6.02308 22.9244 12.0367C22.9244 13.4538 22.6557 14.8349 22.1252 16.1424C20.4933 20.1657 16.5535 22.9478 12.0127 22.9478ZM4.82713 19.2223C8.78918 23.1843 15.2362 23.1843 19.1982 19.2223C23.1602 15.2602 23.1602 8.81323 19.1982 4.85118C15.2275 0.880463 8.79847 0.87861 4.82713 4.85118C0.855173 8.82313 0.855792 15.2509 4.82713 19.2223Z" fill="#030401"/>
<path fill-rule="evenodd" clip-rule="evenodd" d="M21.9798 15.5316C18.6993 14.6736 16.3276 12.1849 15.7835 8.13933C15.7036 7.5444 15.5656 6.97548 15.3737 6.44865C14.936 5.24704 14.0581 3.4635 12.3594 1.78582C12.2121 1.64035 12.2108 1.40324 12.3563 1.25589C12.5018 1.10855 12.7389 1.10732 12.8862 1.2528C14.6834 3.02768 15.6139 4.91831 16.0776 6.19237C16.288 6.76996 16.4385 7.39151 16.5258 8.03967C16.7864 9.9755 17.4859 11.5578 18.6052 12.744C19.7753 13.984 21.1892 14.5504 22.1692 14.8073C22.3692 14.86 22.4892 15.0642 22.4366 15.2648C22.384 15.4697 22.1729 15.5836 21.9798 15.5316Z" fill="#030401"/>
<path fill-rule="evenodd" clip-rule="evenodd" d="M22.3047 14.1647C21.0777 13.8384 19.9572 13.2206 19.0824 12.2932C18.0591 11.2092 17.4178 9.74824 17.1757 7.95109C17.0822 7.25649 16.92 6.58913 16.6934 5.96698C16.1976 4.60689 15.4621 3.29321 14.5366 2.11822C14.4171 1.97088 14.4258 1.75483 14.5632 1.61739C14.7093 1.47129 14.9464 1.47129 15.0932 1.61739C15.1037 1.62791 15.1136 1.63905 15.1223 1.6502C16.0973 2.88772 16.873 4.27011 17.398 5.71007C17.6425 6.38237 17.8177 7.10297 17.9186 7.8508C18.3383 10.9685 20.0327 12.7842 22.4972 13.4391C22.6972 13.4924 22.816 13.6973 22.7628 13.8972C22.7127 14.0904 22.517 14.2179 22.3047 14.1647Z" fill="#030401"/>
<path fill-rule="evenodd" clip-rule="evenodd" d="M14.7417 22.5506C14.5417 22.4973 14.4229 22.2924 14.4755 22.0924C14.8915 20.525 15.224 18.2709 14.3368 16.9139C13.5271 15.6764 11.92 15.6616 11.7442 15.6089C11.7281 15.6058 10.0987 15.2703 6.37931 14.9688C4.63478 14.8277 2.9373 14.3603 1.37847 13.5895C1.19276 13.4979 1.11723 13.2732 1.20885 13.0875C1.30047 12.9017 1.5252 12.8262 1.71091 12.9178C3.13663 13.6217 4.73506 14.0842 6.44061 14.2222C7.97529 14.3466 10.4379 14.5881 11.941 14.8815C13.1798 15.0208 14.2848 15.4635 14.9646 16.5029C16.0052 18.0957 15.6666 20.5256 15.1998 22.2837C15.1497 22.4757 14.9547 22.6038 14.7417 22.5506Z" fill="#030401"/>
<path fill-rule="evenodd" clip-rule="evenodd" d="M16.3433 21.9792C16.1409 21.9377 16.0097 21.7402 16.0511 21.5372C16.8275 17.7305 15.8964 14.6797 12.0365 14.2346C11.9851 14.2284 10.4114 13.8879 6.4952 13.5704C4.66584 13.4224 2.86806 12.8628 1.29625 11.9527C1.11733 11.8493 1.05605 11.6197 1.16005 11.4408C1.26344 11.2619 1.49311 11.2006 1.67201 11.3046C3.14788 12.1595 4.8367 12.6845 6.55586 12.8238C10.1 13.111 11.7963 13.4243 12.138 13.4923C15.6215 13.8997 17.852 16.4453 16.786 21.6876C16.7451 21.8838 16.5538 22.02 16.3433 21.9792Z" fill="#030401"/>
<path fill-rule="evenodd" clip-rule="evenodd" d="M12.1395 13.4902C15.4527 13.8776 17.6324 16.1993 16.9204 20.9358C17.7385 20.4853 18.5072 19.9136 19.2 19.2209C20.309 18.1119 21.1075 16.8083 21.5957 15.4189C18.5162 14.4707 16.3084 12.0215 15.7858 8.13647C15.7059 7.54154 15.5679 6.97262 15.376 6.44579C14.9468 5.26752 14.0944 3.5297 12.4598 1.88084C9.71349 1.76078 6.92791 2.75018 4.82891 4.84983C3.00149 6.67724 2.01497 9.02445 1.86914 11.4131C3.29775 12.2027 4.91368 12.6884 6.55734 12.8216C10.1015 13.1088 11.7978 13.4221 12.1395 13.4902Z" fill="#B0D97A"/>
<path fill-rule="evenodd" clip-rule="evenodd" d="M17.9197 7.84737C18.3159 10.79 19.8476 12.5728 22.0907 13.3144C22.4696 10.3042 21.5058 7.15564 19.1993 4.8492C18.2026 3.85248 17.051 3.10585 15.8223 2.60938C16.4738 3.58527 17.0065 4.62985 17.3991 5.70663C17.6436 6.37893 17.8188 7.09953 17.9197 7.84737Z" fill="#B0D97A"/>
<path fill-rule="evenodd" clip-rule="evenodd" d="M11.7449 15.6069C11.7288 15.6038 10.0995 15.2682 6.38009 14.9667C4.87094 14.8446 3.397 14.4784 2.01758 13.8828C2.37782 15.8372 3.31449 17.7068 4.82747 19.2197C7.45296 21.8452 11.1696 22.7309 14.5313 21.8768C14.9195 20.3237 15.1852 18.2084 14.3376 16.9119C13.5279 15.6743 11.9208 15.6595 11.7449 15.6069Z" fill="#B0D97A"/>
<path fill-rule="evenodd" clip-rule="evenodd" d="M6.44191 14.2228C7.97659 14.3472 10.4392 14.5886 11.9423 14.8821C13.1811 15.0213 14.2861 15.464 14.9659 16.5034C15.8827 17.9068 15.7289 19.96 15.3601 21.631C15.606 21.5457 15.8493 21.4506 16.0893 21.3459C16.796 17.6283 15.8323 14.6716 12.0371 14.2339C11.9857 14.2277 10.412 13.8872 6.49578 13.5696C4.87822 13.4388 3.28537 12.9861 1.85156 12.2539C1.85692 12.5053 1.87156 12.7566 1.89548 13.0071C3.2744 13.6611 4.80907 14.0906 6.44191 14.2228Z" fill="#F0F0F0"/>
<path fill-rule="evenodd" clip-rule="evenodd" d="M16.5267 8.0359C16.7873 9.97173 17.4869 11.5541 18.6061 12.7402C19.6418 13.8378 20.8687 14.4077 21.8164 14.7023C21.8737 14.4905 21.924 14.2773 21.9673 14.0629C20.8728 13.7177 19.8766 13.1311 19.0828 12.2895C18.0595 11.2055 17.4181 9.74453 17.1761 7.94738C17.0826 7.25278 16.9204 6.58542 16.6938 5.96327C16.2108 4.63841 15.5004 3.35759 14.6085 2.20609C14.2708 2.11712 13.9295 2.04581 13.5859 1.99219C14.9334 3.53645 15.6791 5.09123 16.0785 6.1886C16.289 6.76619 16.4394 7.38773 16.5267 8.0359Z" fill="#F0F0F0"/>
</svg>
