<svg width="24" height="24" viewBox="0 0 24 24" fill="none" xmlns="http://www.w3.org/2000/svg">
<path d="M9.34163 20.6739L8.28563 21.7299C6.6262 23.3893 3.93134 23.3893 2.27192 21.7299C0.612487 20.0704 0.612487 17.3756 2.27192 15.7162L3.32791 14.6602L9.34163 20.6739Z" fill="#E5E8F9"/>
<path d="M9.3416 20.674L8.2856 21.7299C6.62274 23.3928 3.93474 23.3928 2.27531 21.7334L2.27188 21.7299C1.74388 21.2019 1.38731 20.5745 1.19531 19.906C1.23988 19.954 1.28788 20.0054 1.33931 20.0534C3.00217 21.7162 5.69017 21.7162 7.3496 20.0568L8.03531 19.3711L9.3416 20.674Z" fill="#D6DBF2"/>
<path d="M2.89569 20.3205C2.85112 20.3205 2.80997 20.2999 2.78597 20.2588C2.23054 19.3571 2.20654 18.2222 2.72083 17.2965C2.75512 17.2348 2.83397 17.2108 2.89569 17.2485C2.9574 17.2828 2.9814 17.3617 2.94712 17.4234C2.4774 18.2668 2.49797 19.3022 3.0054 20.1251C3.04312 20.1868 3.02254 20.2657 2.96426 20.3034C2.94026 20.3137 2.91969 20.3205 2.89569 20.3205Z" fill="white"/>
<path d="M12.3139 3.66666L5.95733 14.4324L4.75391 13.2289L9.18705 2.13066C9.65333 0.964948 11.1585 0.656377 12.0465 1.54438C12.6088 2.10666 12.7185 2.98095 12.3139 3.66666Z" fill="#D6DBF2"/>
<path d="M5.95781 14.4331L4.75781 13.2297L5.59781 11.1211L7.05496 12.5748L5.95781 14.4331Z" fill="#C5CEEA"/>
<path d="M14.8027 6.56041L7.16046 15.6358L5.95703 14.4324L11.8542 4.44155C12.4336 3.45755 13.7879 3.28612 14.5936 4.09527L14.6965 4.19812C15.341 4.83927 15.3856 5.86441 14.8027 6.56041Z" fill="#E5E8F9"/>
<path d="M17.2093 9.39116L8.36358 16.838L7.16016 15.6346L14.607 6.78887C15.2653 6.00716 16.455 5.95573 17.1784 6.67916L17.319 6.81973C18.0459 7.54316 17.9944 8.72944 17.2093 9.39116Z" fill="#D6DBF2"/>
<path d="M10.2184 15.2758L8.36358 16.8393L7.16016 15.6358L8.51101 14.0312L8.72016 14.2404C9.16244 14.6827 9.66987 15.029 10.2184 15.2758Z" fill="#C5CEEA"/>
<path d="M17.291 9.31641C17.2636 9.34383 17.2361 9.36783 17.2053 9.39183L9.875 15.5015L17.291 9.31641Z" fill="#A9DCEA"/>
<path d="M19.5576 12.1403L9.56671 18.0374L8.36328 16.834L17.4421 9.19169C18.1347 8.60883 19.1599 8.64998 19.8044 9.29455L19.9073 9.3974C20.713 10.21 20.5416 11.5608 19.5576 12.1403Z" fill="#E5E8F9"/>
<path d="M21.8715 14.8145L10.7698 19.2477L9.56641 18.0443L20.3356 11.6877C21.0213 11.2831 21.8955 11.3928 22.4578 11.9585C23.3458 12.8431 23.0373 14.3483 21.8715 14.8145Z" fill="#D6DBF2"/>
<path d="M22.9687 13.1849C22.9687 13.8638 22.5778 14.5289 21.8681 14.8135L10.7698 19.2467L9.56641 18.0432L14.0647 15.3895C14.0921 15.3827 14.1195 15.3724 14.1504 15.3587L22.1733 12.1598C22.2864 12.1152 22.3927 12.0569 22.4887 11.9952C22.4818 11.9815 22.4715 11.9712 22.4613 11.9609C22.8041 12.3038 22.9687 12.7461 22.9687 13.1849Z" fill="#C5CEEA"/>
<path d="M7.16046 15.6359L5.95703 14.4325L7.05417 12.5742L8.51132 14.0314L7.16046 15.6359Z" fill="#D6DBF2"/>
<path d="M14.0611 15.3866L9.5628 18.0403L8.35938 16.8369L10.2142 15.2734C11.4142 15.8117 12.7959 15.8734 14.0611 15.3866Z" fill="#D6DBF2"/>
<path d="M8.21641 6.92939C8.19584 6.92939 8.17527 6.92596 8.15813 6.91568C8.09641 6.88139 8.07241 6.80596 8.10327 6.74082L9.53298 4.01511C9.56727 3.95339 9.6427 3.92596 9.70784 3.96025C9.76956 3.99453 9.79356 4.06996 9.7627 4.13511L8.33298 6.86082C8.30898 6.90539 8.26441 6.92939 8.21641 6.92939Z" fill="white"/>
<path d="M3.69531 14.2891L4.75218 13.2322L10.7637 19.2437L9.70683 20.3006L3.69531 14.2891Z" fill="#666666"/>
<path d="M8.40234 18.9922L9.45937 17.9352L10.7661 19.2419L9.70908 20.2989L8.40234 18.9922Z" fill="#595857"/>
<path d="M2.64062 15.3477L3.69749 14.2908L9.70901 20.3023L8.65214 21.3592L2.64062 15.3477Z" fill="#FF4848"/>
<path d="M7.34766 20.0508L8.40468 18.9938L9.71141 20.3005L8.65439 21.3575L7.34766 20.0508Z" fill="#F91C1C"/>
</svg>
