<svg width="24" height="24" viewBox="0 0 24 24" fill="none" xmlns="http://www.w3.org/2000/svg">
<path d="M2 12C2 6.47715 6.47715 2 12 2V2C17.5228 2 22 6.47715 22 12V12C22 17.5228 17.5228 22 12 22V22C6.47715 22 2 17.5228 2 12V12Z" stroke="#030401" stroke-width="1.4"/>
<path d="M12.7835 7.32631C12.7835 7.75893 12.4328 8.10964 12.0001 8.10964C11.5675 8.10964 11.2168 7.75893 11.2168 7.32631C11.2168 6.89368 11.5675 6.54297 12.0001 6.54297C12.4328 6.54297 12.7835 6.89368 12.7835 7.32631Z" fill="#030401"/>
<path d="M12 10.332V15.8876" stroke="#030401" stroke-width="1.4" stroke-linecap="round" stroke-linejoin="round"/>
</svg>
