<svg width="24" height="24" viewBox="0 0 24 24" fill="none" xmlns="http://www.w3.org/2000/svg">
<rect x="2" y="4" width="20" height="18" rx="6" stroke="#7B7676" stroke-width="1.4"/>
<line x1="16.7" y1="2.7" x2="16.7" y2="5.3" stroke="#7B7676" stroke-width="1.4" stroke-linecap="round"/>
<line x1="7.7" y1="2.7" x2="7.7" y2="5.3" stroke="#7B7676" stroke-width="1.4" stroke-linecap="round"/>
<path d="M12.7008 10.0008C12.7008 10.3874 12.3874 10.7008 12.0008 10.7008C11.6142 10.7008 11.3008 10.3874 11.3008 10.0008C11.3008 9.61416 11.6142 9.30076 12.0008 9.30076C12.3874 9.30076 12.7008 9.61416 12.7008 10.0008Z" fill="#7B7676"/>
<path d="M17.7008 10.0008C17.7008 10.3874 17.3874 10.7008 17.0008 10.7008C16.6142 10.7008 16.3008 10.3874 16.3008 10.0008C16.3008 9.61416 16.6142 9.30076 17.0008 9.30076C17.3874 9.30076 17.7008 9.61416 17.7008 10.0008Z" fill="#7B7676"/>
<path d="M7.70078 10.0008C7.70078 10.3874 7.38738 10.7008 7.00078 10.7008C6.61418 10.7008 6.30078 10.3874 6.30078 10.0008C6.30078 9.61416 6.61418 9.30076 7.00078 9.30076C7.38738 9.30076 7.70078 9.61416 7.70078 10.0008Z" fill="#7B7676"/>
<path d="M12.7008 14.0008C12.7008 14.3874 12.3874 14.7008 12.0008 14.7008C11.6142 14.7008 11.3008 14.3874 11.3008 14.0008C11.3008 13.6142 11.6142 13.3008 12.0008 13.3008C12.3874 13.3008 12.7008 13.6142 12.7008 14.0008Z" fill="#7B7676"/>
<path d="M7.70078 14.0008C7.70078 14.3874 7.38738 14.7008 7.00078 14.7008C6.61418 14.7008 6.30078 14.3874 6.30078 14.0008C6.30078 13.6142 6.61418 13.3008 7.00078 13.3008C7.38738 13.3008 7.70078 13.6142 7.70078 14.0008Z" fill="#7B7676"/>
<path d="M17.7008 14.0008C17.7008 14.3874 17.3874 14.7008 17.0008 14.7008C16.6142 14.7008 16.3008 14.3874 16.3008 14.0008C16.3008 13.6142 16.6142 13.3008 17.0008 13.3008C17.3874 13.3008 17.7008 13.6142 17.7008 14.0008Z" fill="#7B7676"/>
<path d="M17.7008 18.0008C17.7008 18.3874 17.3874 18.7008 17.0008 18.7008C16.6142 18.7008 16.3008 18.3874 16.3008 18.0008C16.3008 17.6142 16.6142 17.3008 17.0008 17.3008C17.3874 17.3008 17.7008 17.6142 17.7008 18.0008Z" fill="#7B7676"/>
<path d="M12.7008 18.0008C12.7008 18.3874 12.3874 18.7008 12.0008 18.7008C11.6142 18.7008 11.3008 18.3874 11.3008 18.0008C11.3008 17.6142 11.6142 17.3008 12.0008 17.3008C12.3874 17.3008 12.7008 17.6142 12.7008 18.0008Z" fill="#7B7676"/>
<path d="M7.70078 18.0008C7.70078 18.3874 7.38738 18.7008 7.00078 18.7008C6.61418 18.7008 6.30078 18.3874 6.30078 18.0008C6.30078 17.6142 6.61418 17.3008 7.00078 17.3008C7.38738 17.3008 7.70078 17.6142 7.70078 18.0008Z" fill="#7B7676"/>
</svg>
