<svg width="40" height="40" viewBox="0 0 40 40" fill="none" xmlns="http://www.w3.org/2000/svg">
<g clip-path="url(#clip0_45_12724)">
<path d="M2.71086 34.5777C2.40019 34.5783 2.12889 34.368 2.05229 34.0671C1.97569 33.7662 2.11302 33.4516 2.38585 33.3036L15.592 26.1252C15.805 26.0096 16.0635 26.0163 16.2701 26.1429C16.4767 26.2696 16.6 26.4966 16.5939 26.7389C16.5875 26.9809 16.4523 27.2016 16.2396 27.3172L3.03496 34.4956C2.93547 34.5496 2.82378 34.5777 2.71086 34.5777Z" fill="#394F63"/>
<path d="M20.0519 25.1513C19.7409 25.1526 19.469 24.942 19.3921 24.6408C19.3155 24.3393 19.4534 24.0243 19.7272 23.8766L25.7672 20.5942C26.0962 20.4153 26.5079 20.5371 26.6867 20.8661C26.8655 21.1954 26.7438 21.607 26.4145 21.7859L20.3744 25.0686C20.2756 25.1227 20.1645 25.151 20.0519 25.1513Z" fill="#394F63"/>
<path d="M30.2106 18.9334L28.5544 17.5271C28.3624 17.3645 28.2001 17.1695 28.0743 16.9516L26.1392 13.6004C25.6384 12.7322 24.8938 12.0303 23.9978 11.5814L21.2018 10.1834C19.4473 9.30629 17.3129 9.97005 16.3656 11.6879L12.3074 19.0432C11.2994 20.8706 11.7187 23.1558 13.3102 24.5062L19.252 29.5462C19.7906 30.0033 19.9258 30.7803 19.5724 31.3922L16.9562 35.9231C16.3367 36.9479 16.6165 38.2775 17.597 38.9651C18.1015 39.2941 18.7189 39.4009 19.3045 39.2605C19.8901 39.1204 20.3924 38.7457 20.6933 38.2241L24.2865 32.001C25.1672 30.4711 24.8288 28.5305 23.4823 27.3889L18.8519 23.4567C18.2669 22.9605 18.165 22.0962 18.6188 21.4776L22.5366 16.1352L24.5923 19.696C24.7601 19.9865 24.9765 20.2459 25.2322 20.4635L27.4695 22.3617C27.9285 22.7514 28.5275 22.9354 29.1263 22.8701C29.725 22.8051 30.2704 22.4966 30.6351 22.0175C31.3284 21.0382 31.1426 19.689 30.2106 18.9334Z" fill="#668892"/>
<path d="M28.4594 5.21362C28.3618 5.27954 28.2544 5.3299 28.1408 5.36285C28.0093 5.40375 27.872 5.4245 27.734 5.42358H24.4055C23.6483 5.43152 23.0368 6.04309 23.0291 6.79993C23.0304 7.16004 22.8878 7.50549 22.6333 7.76032C22.3788 8.01483 22.0331 8.15735 21.6733 8.15582H20.0189C19.8929 8.15491 19.7671 8.1369 19.646 8.10181C19.154 7.96509 18.7826 7.55981 18.6902 7.0575C18.2562 4.83398 17.9715 0 23.7069 0C27.619 0 28.7442 2.23053 29.0493 3.83728C29.1565 4.37378 28.9221 4.92096 28.4594 5.21362Z" fill="#943F51"/>
<path d="M8.67165 24.0133C8.60268 24.013 8.53401 24.0023 8.4684 23.9815L5.88173 23.1637C5.71022 23.1096 5.5674 22.9894 5.4847 22.8298C5.40169 22.6702 5.38551 22.4843 5.43984 22.3128L5.64308 21.6668C5.69771 21.4956 5.68184 21.3094 5.59914 21.1498C5.51643 20.9902 5.37392 20.8697 5.20241 20.8153L3.90968 20.4085C3.1971 20.1815 2.80281 19.4207 3.02834 18.7075L3.43514 17.4138C3.66188 16.7007 4.42391 16.3061 5.13741 16.5325L6.42555 16.9393C6.59706 16.9939 6.78322 16.9777 6.94283 16.8947C7.10274 16.812 7.22298 16.6689 7.27699 16.4974L9.32167 10.0335C9.67079 8.97635 10.8051 8.39621 11.8668 8.7319C12.9285 9.0679 13.5224 10.1949 13.1998 11.2606L9.31496 23.5421C9.22554 23.8219 8.96553 24.0124 8.67165 24.0133Z" fill="#5496CE"/>
<path d="M7.64971 27.2458C7.58074 27.2458 7.51207 27.2348 7.44615 27.214L4.85979 26.3965C4.50304 26.2833 4.30559 25.9024 4.4185 25.5456L5.44023 22.3129C5.55345 21.9562 5.93431 21.7587 6.29106 21.8716L8.87956 22.6892C9.23631 22.8024 9.43376 23.1833 9.32085 23.54L8.29851 26.7718C8.20909 27.055 7.94634 27.247 7.64971 27.2458Z" fill="#394F63"/>
<path d="M12.5563 11.7292C12.4873 11.7292 12.4186 11.7182 12.353 11.6975C11.9963 11.5849 11.7982 11.2046 11.9102 10.8479L14.9775 1.15303C15.0904 0.796283 15.4713 0.598529 15.8284 0.711444L16.4744 0.914997C16.7149 0.979694 16.9004 1.17104 16.9581 1.41335C17.0155 1.65566 16.9352 1.90987 16.7494 2.07589C16.5635 2.2416 16.3017 2.29195 16.0676 2.20711L13.2032 11.2547C13.1144 11.5369 12.8526 11.7292 12.5563 11.7292Z" fill="#5496CE"/>
<path d="M30.218 19.6247C29.9077 19.625 29.6367 19.4144 29.5601 19.1138C29.4835 18.8129 29.6211 18.4986 29.8939 18.3506L33.571 16.352C33.9003 16.1731 34.3123 16.2949 34.4911 16.6239C34.6702 16.9532 34.5485 17.3648 34.2192 17.544L30.5412 19.5426C30.442 19.5963 30.331 19.6247 30.218 19.6247Z" fill="#394F63"/>
<path d="M6.77825 35.2523C6.52007 35.2538 6.28356 35.1083 6.1682 34.8776L4.1342 30.8096C3.96666 30.4745 4.10277 30.0671 4.43785 29.8998C4.77294 29.7323 5.18035 29.8684 5.34758 30.2035L7.38158 34.2712C7.48625 34.4811 7.47557 34.7298 7.35259 34.9294C7.22991 35.1293 7.01262 35.2514 6.77825 35.2523Z" fill="#394F63"/>
<path d="M16.9537 35.9229C16.3342 36.9477 16.614 38.2773 17.5945 38.9649C18.099 39.2936 18.7164 39.4004 19.302 39.26C19.8873 39.1199 20.3896 38.7452 20.6909 38.2239L21.4901 36.8448L17.5579 34.8789L16.9537 35.9229Z" fill="#394F63"/>
<path d="M30.2133 18.9325L28.5571 17.5271C28.3651 17.3645 28.2028 17.1695 28.077 16.9516L26.1419 13.6004C25.6411 12.7322 24.8965 12.0303 24.0005 11.5814L21.2045 10.1834C19.45 9.30629 17.3156 9.97005 16.3683 11.6879L12.3101 19.0432C12.1096 19.4155 11.9644 19.8153 11.8789 20.2294L18.3447 22.3849C18.3325 22.0596 18.4301 21.7395 18.6215 21.4764L22.5393 16.134L24.595 19.6948C24.7628 19.985 24.9792 20.2447 25.2349 20.462L27.4722 22.3605C27.9312 22.7502 28.5302 22.9339 29.129 22.8689C29.7277 22.8036 30.2731 22.4954 30.6378 22.0159C31.3299 21.0366 31.1444 19.6884 30.2133 18.9325Z" fill="#FF6C77"/>
<path d="M30.2109 18.9349L29.5328 18.3594L25.9336 21.0583L27.468 22.3602C27.927 22.7499 28.5261 22.9337 29.1245 22.8687C29.7233 22.8036 30.2689 22.4951 30.6333 22.0157C31.3242 21.0376 31.1396 19.6912 30.2109 18.9349Z" fill="#668892"/>
<path d="M28.4717 5.4248V6.10291C28.469 8.73627 26.3389 10.8725 23.7055 10.8826C21.9053 10.9366 20.2735 9.82941 19.6583 8.1369C19.6512 8.12317 19.6512 8.11646 19.6445 8.10303C19.7657 8.13812 19.8914 8.15613 20.0175 8.15704H21.6718C22.0316 8.15857 22.3774 8.01605 22.6319 7.76154C22.8864 7.50671 23.0289 7.16126 23.0277 6.80115C23.0353 6.04431 23.6469 5.43274 24.4041 5.4248H27.7326C27.8705 5.42572 28.0079 5.40497 28.1394 5.36407C28.2529 5.33112 28.3604 5.28076 28.458 5.21484C28.458 5.28931 28.4717 5.34363 28.4717 5.4248Z" fill="#FEDEBB"/>
<path d="M8.94375 27.6528C8.87478 27.6528 8.80612 27.6418 8.7405 27.6211L3.56838 25.985C3.32791 25.9203 3.14205 25.729 3.08468 25.4867C3.02731 25.2444 3.10726 24.9898 3.29312 24.8241C3.47897 24.6584 3.74081 24.6081 3.97518 24.6929L9.15188 26.3287C9.47018 26.43 9.66732 26.7477 9.61666 27.0779C9.566 27.4078 9.2825 27.6519 8.94863 27.6528H8.94375Z" fill="#445C71"/>
<path d="M33.8982 39.9997H6.77966C6.40521 39.9997 6.10156 39.696 6.10156 39.3216C6.10156 38.9474 6.40521 38.6438 6.77966 38.6438H33.8982C35.396 38.6438 36.6103 37.4295 36.6103 35.932C36.6103 35.5576 36.9136 35.2539 37.2881 35.2539C37.6625 35.2539 37.9662 35.5576 37.9662 35.932C37.9637 38.1775 36.144 39.9976 33.8982 39.9997Z" fill="#394F63"/>
</g>
<defs>
<clipPath id="clip0_45_12724">
<rect width="40" height="40" fill="white"/>
</clipPath>
</defs>
</svg>
