<svg width="40" height="40" viewBox="0 0 40 40" fill="none" xmlns="http://www.w3.org/2000/svg">
<path d="M23.0643 33.7516H14.1211L14.1031 33.7461L13.4492 35.7852L13.4961 35.8L23.7164 35.7852L23.0643 33.7516Z" fill="#AF6E41"/>
<path d="M15.381 30.7227L15.3724 30.7609L14.4154 33.7453L13.7615 35.7844L13.0959 37.8586C13.0425 38.0291 12.9559 38.1874 12.8412 38.3243C12.7264 38.4612 12.5856 38.574 12.427 38.6563C12.2685 38.7385 12.0952 38.7886 11.9171 38.8036C11.7391 38.8186 11.5599 38.7982 11.3898 38.7437C11.2196 38.6891 11.062 38.6014 10.9259 38.4856C10.7899 38.3699 10.678 38.2283 10.5969 38.0691C10.5158 37.91 10.4669 37.7363 10.4532 37.5582C10.4395 37.3801 10.4612 37.201 10.517 37.0313L12.8248 29.8359C13.6452 30.2158 14.5015 30.5129 15.381 30.7227Z" fill="#E8A467"/>
<path d="M11.7024 37.4463C11.7024 37.3055 11.7246 37.1655 11.768 37.0315L13.9305 30.2885C13.5546 30.1531 13.1863 30.0022 12.8257 29.8359L10.5179 37.0312C10.4359 37.2868 10.4317 37.5609 10.5057 37.8188C10.5798 38.0767 10.7289 38.3068 10.934 38.4798C11.1391 38.6529 11.391 38.7611 11.6577 38.7907C11.9244 38.8203 12.1939 38.77 12.4319 38.6462C12.2123 38.532 12.0282 38.3597 11.8995 38.1482C11.7709 37.9366 11.7027 37.6939 11.7024 37.4463Z" fill="#FFC28F"/>
<path d="M18.5547 31.1094C26.1486 31.1094 32.3047 24.9533 32.3047 17.3594C32.3047 9.76546 26.1486 3.60938 18.5547 3.60938C10.9608 3.60938 4.80469 9.76546 4.80469 17.3594C4.80469 24.9533 10.9608 31.1094 18.5547 31.1094Z" fill="#FB6771"/>
<path d="M18.5547 27.7891C24.3148 27.7891 28.9844 23.1195 28.9844 17.3594C28.9844 11.5992 24.3148 6.92969 18.5547 6.92969C12.7945 6.92969 8.125 11.5992 8.125 17.3594C8.125 23.1195 12.7945 27.7891 18.5547 27.7891Z" fill="#D4E1F4"/>
<path d="M7.14844 17.3594C7.14865 13.9156 8.44106 10.5973 10.7701 8.0605C13.0992 5.52375 16.2953 3.95327 19.7266 3.65961C19.3402 3.62695 18.9495 3.60938 18.5547 3.60938C14.908 3.60938 11.4106 5.05803 8.83197 7.63666C6.25334 10.2153 4.80469 13.7126 4.80469 17.3594C4.80469 21.0061 6.25334 24.5035 8.83197 27.0821C11.4106 29.6607 14.908 31.1094 18.5547 31.1094C18.9495 31.1094 19.3402 31.0918 19.7266 31.0591C16.2953 30.7655 13.0992 29.195 10.7701 26.6582C8.44106 24.1215 7.14865 20.8032 7.14844 17.3594Z" fill="#FF97A1"/>
<path d="M10.4678 17.3594C10.468 14.7962 11.4119 12.3229 13.1195 10.4113C14.8271 8.49975 17.1787 7.28384 19.7256 6.99563C18.3156 6.83632 16.8879 6.96641 15.5299 7.37794C14.1719 7.78947 12.9121 8.47379 11.8278 9.38901C10.7434 10.3042 9.85714 11.4311 9.2233 12.7007C8.58947 13.9702 8.22137 15.3558 8.14152 16.7725C8.06168 18.1893 8.27177 19.6074 8.75894 20.9401C9.24612 22.2729 10.0001 23.4922 10.9748 24.5234C11.9495 25.5547 13.1244 26.3762 14.4275 26.9377C15.7307 27.4992 17.1347 27.7889 18.5537 27.7891C18.9453 27.7889 19.3365 27.7669 19.7256 27.7231C17.1787 27.4349 14.8271 26.219 13.1195 24.3075C11.4119 22.3959 10.468 19.9225 10.4678 17.3594Z" fill="#F4F8FC"/>
<path d="M35.0832 3.50938C35.0969 3.5116 35.1097 3.51761 35.1201 3.52672C35.1305 3.53583 35.1382 3.54767 35.1423 3.56092C35.1463 3.57416 35.1466 3.58828 35.1431 3.60167C35.1395 3.61507 35.1323 3.62721 35.1223 3.63672L32.3879 6.28828C32.3704 6.30497 32.3494 6.31761 32.3264 6.3253C32.3035 6.333 32.2791 6.33556 32.2551 6.33281L30.1152 6.07734V6.07656L33.0543 3.16719L33.1371 3.14844L35.0832 3.50938Z" fill="#7F3D32"/>
<path d="M32.8212 1.26135L33.1376 3.14651L33.0548 3.16526L30.1158 6.07464L29.9322 3.95901C29.9302 3.93446 29.9338 3.90978 29.9429 3.88688C29.952 3.86398 29.9662 3.84348 29.9845 3.82698L32.6955 1.21917C32.7054 1.21001 32.7177 1.20369 32.7309 1.20087C32.7442 1.19806 32.758 1.19884 32.7708 1.20315C32.7836 1.20746 32.7951 1.21513 32.804 1.22537C32.8128 1.2356 32.8188 1.24803 32.8212 1.26135Z" fill="#C2684F"/>
<path d="M26.6488 37.0313C26.7556 37.3724 26.7231 37.7419 26.5585 38.0593C26.3939 38.3766 26.1105 38.6159 25.7701 38.7251C25.4297 38.8343 25.0599 38.8045 24.7414 38.6422C24.423 38.4799 24.1816 38.1982 24.0699 37.8586L23.4043 35.7844L22.7504 33.7453L21.791 30.7547L21.7832 30.7234C22.6627 30.5134 23.519 30.2161 24.3395 29.8359L24.3426 29.843L26.6488 37.0313Z" fill="#E8A467"/>
<path d="M23.0625 33.7461L23.0643 33.7516L23.0625 33.7461Z" fill="#A66633"/>
<path d="M18.5547 24.1953C22.3301 24.1953 25.3906 21.1348 25.3906 17.3594C25.3906 13.584 22.3301 10.5234 18.5547 10.5234C14.7793 10.5234 11.7188 13.584 11.7188 17.3594C11.7188 21.1348 14.7793 24.1953 18.5547 24.1953Z" fill="#50DD5A"/>
<path d="M18.5547 19.7031C19.8491 19.7031 20.8984 18.6538 20.8984 17.3594C20.8984 16.065 19.8491 15.0156 18.5547 15.0156C17.2603 15.0156 16.2109 16.065 16.2109 17.3594C16.2109 18.6538 17.2603 19.7031 18.5547 19.7031Z" fill="#D4E1F4"/>
<path d="M14.0622 17.3594C14.0624 15.7495 14.6305 14.1914 15.6666 12.9593C16.7027 11.7272 18.1403 10.9002 19.7263 10.6239C18.7444 10.4537 17.7371 10.5002 16.7751 10.7602C15.8131 11.0202 14.9195 11.4874 14.157 12.1291C13.3945 12.7707 12.7816 13.5714 12.3611 14.4748C11.9405 15.3783 11.7227 16.3628 11.7227 17.3594C11.7227 18.3559 11.9405 19.3404 12.3611 20.2439C12.7816 21.1474 13.3945 21.948 14.157 22.5897C14.9195 23.2314 15.8131 23.6986 16.7751 23.9586C17.7371 24.2186 18.7444 24.2651 19.7263 24.0948C18.1403 23.8186 16.7027 22.9915 15.6666 21.7595C14.6305 20.5274 14.0624 18.9692 14.0622 17.3594Z" fill="#D8FF33"/>
<path d="M17.4611 17.3594C17.4612 16.8467 17.6294 16.3483 17.9398 15.9403C18.2502 15.5323 18.6858 15.2373 19.1799 15.1005C18.8318 15.0042 18.4662 14.9896 18.1116 15.0579C17.757 15.1262 17.423 15.2754 17.1356 15.4941C16.8482 15.7128 16.6152 15.9949 16.4548 16.3184C16.2944 16.642 16.2109 16.9982 16.2109 17.3594C16.2109 17.7205 16.2944 18.0767 16.4548 18.4003C16.6152 18.7239 16.8482 19.006 17.1356 19.2246C17.423 19.4433 17.757 19.5926 18.1116 19.6609C18.4662 19.7291 18.8318 19.7145 19.1799 19.6182C18.6858 19.4814 18.2502 19.1864 17.9398 18.7785C17.6294 18.3705 17.4612 17.872 17.4611 17.3594Z" fill="#F4F8FC"/>
<path d="M18.601 28.3748C18.2519 28.3748 17.8978 28.3583 17.5486 28.3257C17.3678 28.3088 17.1849 28.2874 17.0049 28.262C16.8818 28.2445 16.7706 28.1789 16.6959 28.0796C16.6212 27.9802 16.589 27.8552 16.6064 27.7321C16.6239 27.609 16.6895 27.4979 16.7888 27.4232C16.8882 27.3484 17.0132 27.3163 17.1363 27.3337C17.3015 27.3571 17.4696 27.3768 17.6357 27.3923C18.0644 27.4322 18.4951 27.4455 18.9255 27.4321C18.9872 27.43 19.0486 27.44 19.1064 27.4617C19.1642 27.4833 19.2171 27.5161 19.2622 27.5583C19.3072 27.6005 19.3435 27.6511 19.3689 27.7073C19.3944 27.7635 19.4085 27.8242 19.4104 27.8859C19.4123 27.9475 19.4021 28.009 19.3802 28.0667C19.3584 28.1244 19.3253 28.1772 19.283 28.2221C19.2407 28.267 19.1899 28.3031 19.1336 28.3283C19.0773 28.3536 19.0166 28.3674 18.9549 28.3692C18.8374 28.3729 18.7184 28.3748 18.601 28.3748ZM20.7985 28.1471C20.6826 28.1471 20.5707 28.1041 20.4846 28.0264C20.3985 27.9487 20.3443 27.8419 20.3323 27.7266C20.3204 27.6112 20.3517 27.4955 20.4201 27.4019C20.4885 27.3082 20.5892 27.2433 20.7027 27.2195C21.2876 27.0966 21.8605 26.9226 22.4149 26.6994C22.4721 26.676 22.5333 26.6642 22.5951 26.6646C22.6568 26.665 22.7179 26.6775 22.7748 26.7016C22.8317 26.7256 22.8832 26.7607 22.9265 26.8047C22.9698 26.8488 23.004 26.9009 23.027 26.9582C23.0501 27.0155 23.0616 27.0768 23.0609 27.1385C23.0603 27.2003 23.0474 27.2613 23.0231 27.318C22.9987 27.3748 22.9634 27.4262 22.9192 27.4692C22.8749 27.5123 22.8226 27.5462 22.7652 27.569C22.1597 27.8127 21.534 28.0028 20.8953 28.137C20.8635 28.1437 20.831 28.1471 20.7985 28.1471ZM15.2471 27.8438C15.1976 27.8438 15.1485 27.8359 15.1016 27.8204C14.4809 27.6177 13.8792 27.3608 13.3035 27.0526C13.2491 27.0236 13.201 26.9842 13.1618 26.9365C13.1227 26.8889 13.0933 26.834 13.0754 26.775C13.0575 26.716 13.0514 26.6541 13.0575 26.5927C13.0635 26.5314 13.0817 26.4718 13.1108 26.4175C13.1399 26.3631 13.1795 26.3151 13.2272 26.276C13.2749 26.237 13.3299 26.2078 13.3889 26.19C13.4479 26.1722 13.5099 26.1663 13.5712 26.1725C13.6326 26.1787 13.6921 26.197 13.7464 26.2263C14.2733 26.5085 14.8242 26.7438 15.3924 26.9294C15.4986 26.9639 15.589 27.0352 15.6473 27.1304C15.7056 27.2256 15.728 27.3385 15.7104 27.4488C15.6929 27.559 15.6366 27.6594 15.5517 27.7318C15.4667 27.8043 15.3587 27.844 15.2471 27.8439V27.8438ZM24.2591 26.754C24.1572 26.7541 24.0581 26.7211 23.9768 26.6598C23.8954 26.5986 23.8361 26.5125 23.808 26.4146C23.7799 26.3168 23.7845 26.2124 23.8209 26.1173C23.8574 26.0222 23.9239 25.9416 24.0103 25.8877C24.5174 25.5707 24.9957 25.2099 25.4399 24.8095C25.4856 24.7682 25.539 24.7362 25.5971 24.7155C25.6551 24.6947 25.7167 24.6857 25.7783 24.6888C25.8399 24.6919 25.9002 24.7071 25.9559 24.7336C26.0116 24.76 26.0615 24.7972 26.1028 24.843C26.144 24.8888 26.1759 24.9422 26.1965 25.0003C26.2171 25.0584 26.226 25.12 26.2228 25.1816C26.2195 25.2432 26.2042 25.3035 26.1776 25.3591C26.151 25.4147 26.1137 25.4645 26.0678 25.5057C25.583 25.9427 25.0609 26.3364 24.5074 26.6824C24.4331 26.7291 24.347 26.754 24.2591 26.754ZM11.9585 26.0821C11.8532 26.0822 11.751 26.0466 11.6684 25.9813C11.156 25.5766 10.6802 25.1277 10.2465 24.6397C10.2048 24.5938 10.1726 24.5401 10.1518 24.4817C10.131 24.4233 10.122 24.3614 10.1253 24.2994C10.1286 24.2375 10.1442 24.1769 10.1711 24.121C10.198 24.0652 10.2357 24.0152 10.2821 23.974C10.3284 23.9328 10.3825 23.9013 10.4411 23.8811C10.4997 23.861 10.5618 23.8527 10.6237 23.8567C10.6855 23.8607 10.746 23.8769 10.8015 23.9044C10.8571 23.932 10.9066 23.9702 10.9473 24.017C11.3444 24.4639 11.78 24.8749 12.2492 25.2454C12.3256 25.3058 12.3814 25.3884 12.4087 25.482C12.436 25.5755 12.4335 25.6752 12.4016 25.7672C12.3696 25.8592 12.3097 25.939 12.2303 25.9955C12.1509 26.0519 12.056 26.0822 11.9585 26.0821ZM27.0277 24.2553C26.94 24.2553 26.854 24.2306 26.7796 24.1842C26.7052 24.1377 26.6454 24.0713 26.6068 23.9925C26.5683 23.9137 26.5527 23.8257 26.5617 23.7385C26.5707 23.6512 26.604 23.5683 26.6578 23.499C27.0241 23.0272 27.3476 22.5236 27.6242 21.9942C27.6525 21.9392 27.6913 21.8903 27.7385 21.8504C27.7857 21.8104 27.8404 21.7802 27.8993 21.7615C27.9582 21.7428 28.0203 21.7359 28.0819 21.7412C28.1435 21.7466 28.2034 21.7641 28.2583 21.7927C28.3131 21.8213 28.3617 21.8605 28.4013 21.908C28.4409 21.9555 28.4707 22.0103 28.489 22.0694C28.5073 22.1285 28.5138 22.1906 28.508 22.2521C28.5022 22.3137 28.4843 22.3735 28.4553 22.4281C28.1526 23.0071 27.7989 23.5579 27.3983 24.074C27.3545 24.1305 27.2983 24.1762 27.234 24.2076C27.1698 24.239 27.0992 24.2553 27.0277 24.2552V24.2553ZM9.48206 23.2933C9.40176 23.2934 9.32279 23.2728 9.25272 23.2336C9.18265 23.1944 9.12383 23.1378 9.0819 23.0693C8.74077 22.5123 8.44991 21.926 8.21276 21.3174C8.16769 21.2015 8.17052 21.0725 8.22061 20.9586C8.2707 20.8448 8.36396 20.7555 8.47987 20.7105C8.59578 20.6654 8.72484 20.6682 8.83866 20.7183C8.95249 20.7684 9.04176 20.8617 9.08682 20.9776C9.30371 21.5341 9.56971 22.0703 9.88166 22.5797C9.92518 22.6507 9.949 22.732 9.95065 22.8153C9.9523 22.8986 9.93173 22.9808 9.89107 23.0535C9.8504 23.1262 9.79109 23.1867 9.71926 23.2289C9.64743 23.271 9.56566 23.2933 9.48237 23.2934L9.48206 23.2933ZM28.7536 20.9489C28.6802 20.9489 28.6077 20.9317 28.5421 20.8986C28.4766 20.8654 28.4197 20.8174 28.3761 20.7582C28.3325 20.6991 28.3035 20.6305 28.2912 20.5581C28.279 20.4856 28.284 20.4113 28.3058 20.3412C28.4824 19.7707 28.6078 19.1856 28.6803 18.5929C28.687 18.5312 28.706 18.4714 28.736 18.417C28.766 18.3627 28.8065 18.3148 28.8551 18.2763C28.9038 18.2377 28.9596 18.2092 29.0194 18.1924C29.0792 18.1755 29.1417 18.1708 29.2033 18.1783C29.2649 18.1859 29.3244 18.2056 29.3784 18.2363C29.4323 18.267 29.4796 18.3082 29.5176 18.3574C29.5555 18.4065 29.5832 18.4627 29.5992 18.5227C29.6152 18.5827 29.6192 18.6453 29.6108 18.7068C29.5315 19.3551 29.3944 19.9951 29.2012 20.619C29.1716 20.7146 29.1121 20.7981 29.0316 20.8575C28.9511 20.9168 28.8537 20.9489 28.7536 20.9489ZM8.13018 19.818C8.02134 19.8179 7.91593 19.7799 7.83204 19.7105C7.74815 19.6412 7.691 19.5448 7.67041 19.4379C7.54693 18.7963 7.48141 18.1449 7.47463 17.4915C7.474 17.4299 7.48551 17.3689 7.50849 17.3117C7.53146 17.2546 7.56547 17.2026 7.60855 17.1586C7.65164 17.1147 7.70296 17.0796 7.75959 17.0555C7.81623 17.0313 7.87706 17.0186 7.93862 17.018H7.94346C8.06695 17.018 8.18545 17.0667 8.27322 17.1536C8.36099 17.2404 8.41094 17.3584 8.41221 17.4819C8.41835 18.0789 8.4782 18.6741 8.59104 19.2604C8.60404 19.3283 8.60189 19.3982 8.58474 19.4651C8.56759 19.5321 8.53586 19.5944 8.49183 19.6477C8.44779 19.701 8.39253 19.7438 8.33 19.7733C8.26747 19.8027 8.19929 19.818 8.13018 19.818ZM29.2072 17.2472C29.0875 17.2471 28.9724 17.2012 28.8854 17.119C28.7985 17.0367 28.7463 16.9243 28.7396 16.8048C28.7059 16.2087 28.6186 15.6168 28.4787 15.0364C28.4637 14.9764 28.4607 14.914 28.4699 14.8528C28.4791 14.7916 28.5003 14.7328 28.5324 14.6799C28.5644 14.6269 28.6066 14.5808 28.6565 14.5443C28.7065 14.5077 28.7632 14.4814 28.8233 14.4669C28.8835 14.4524 28.9459 14.4499 29.007 14.4596C29.0681 14.4693 29.1267 14.4911 29.1794 14.5235C29.2321 14.556 29.2778 14.5986 29.314 14.6488C29.3501 14.6991 29.3759 14.756 29.3899 14.8163C29.5432 15.4516 29.6388 16.0996 29.6756 16.7521C29.6826 16.8762 29.64 16.9981 29.5571 17.0908C29.4743 17.1835 29.3581 17.2395 29.2339 17.2465C29.225 17.247 29.2161 17.2472 29.2072 17.2472ZM8.09104 16.0891C8.02286 16.0891 7.95549 16.0742 7.89364 16.0455C7.83179 16.0168 7.77693 15.975 7.73289 15.9229C7.68885 15.8709 7.65667 15.8098 7.63861 15.7441C7.62055 15.6783 7.61703 15.6094 7.62831 15.5422C7.73711 14.898 7.90348 14.2649 8.12542 13.6505C8.1677 13.5336 8.25471 13.4382 8.36728 13.3855C8.47985 13.3327 8.60878 13.3268 8.72569 13.3691C8.8426 13.4114 8.93793 13.4984 8.99069 13.611C9.04346 13.7235 9.04935 13.8525 9.00706 13.9694C8.80418 14.531 8.65211 15.1096 8.55268 15.6984C8.53425 15.8075 8.47779 15.9066 8.3933 15.9781C8.3088 16.0496 8.20173 16.0889 8.09104 16.0891ZM28.3332 13.6222C28.2424 13.6222 28.1536 13.5959 28.0774 13.5463C28.0013 13.4968 27.9412 13.4262 27.9045 13.3432C27.6622 12.797 27.3718 12.2734 27.0369 11.7786C27.0013 11.7277 26.9762 11.6702 26.9631 11.6095C26.9499 11.5487 26.949 11.486 26.9603 11.4249C26.9716 11.3638 26.9949 11.3056 27.0289 11.2536C27.0629 11.2016 27.1069 11.1569 27.1584 11.1221C27.2098 11.0872 27.2677 11.063 27.3286 11.0507C27.3895 11.0384 27.4522 11.0384 27.5131 11.0506C27.574 11.0627 27.6319 11.0869 27.6834 11.1217C27.7349 11.1564 27.779 11.201 27.8131 11.253C28.1793 11.7939 28.4967 12.3663 28.7616 12.9634C28.7931 13.0347 28.8064 13.1128 28.8001 13.1906C28.7939 13.2684 28.7683 13.3434 28.7258 13.4088C28.6833 13.4742 28.6251 13.528 28.5566 13.5652C28.488 13.6025 28.4113 13.6221 28.3332 13.6222ZM9.35854 12.5827C9.27615 12.5826 9.19523 12.5608 9.12395 12.5194C9.05267 12.4781 8.99354 12.4187 8.95252 12.3473C8.9115 12.2758 8.89004 12.1948 8.8903 12.1124C8.89056 12.03 8.91254 11.9492 8.95401 11.878C9.28289 11.3136 9.66133 10.7796 10.0849 10.2823C10.1246 10.2349 10.1734 10.1959 10.2283 10.1674C10.2832 10.1389 10.3432 10.1216 10.4048 10.1165C10.4665 10.1113 10.5285 10.1184 10.5874 10.1373C10.6463 10.1563 10.7008 10.1866 10.7479 10.2267C10.795 10.2669 10.8337 10.3159 10.8617 10.371C10.8898 10.4261 10.9066 10.4862 10.9113 10.5479C10.916 10.6096 10.9085 10.6716 10.8891 10.7303C10.8698 10.7891 10.839 10.8434 10.7985 10.8902C10.4112 11.345 10.065 11.8334 9.76409 12.3495C9.72282 12.4205 9.66364 12.4794 9.59247 12.5203C9.5213 12.5612 9.44063 12.5827 9.35854 12.5827ZM11.7771 9.74251C11.6805 9.74255 11.5863 9.71275 11.5073 9.65719C11.4283 9.60163 11.3684 9.52302 11.3358 9.43211C11.3031 9.3412 11.2994 9.24244 11.325 9.14932C11.3507 9.0562 11.4044 8.97328 11.479 8.91188C11.983 8.4971 12.5223 8.12723 13.0908 7.80649C13.1991 7.74543 13.3272 7.72989 13.447 7.76329C13.5667 7.79669 13.6683 7.87629 13.7294 7.98458C13.7904 8.09287 13.806 8.22099 13.7726 8.34074C13.7392 8.46049 13.6596 8.56207 13.5513 8.62313C13.0305 8.91689 12.5364 9.25569 12.0747 9.63563C11.991 9.70479 11.8857 9.74259 11.7771 9.74251ZM24.0696 8.77532C23.9841 8.77533 23.9004 8.75187 23.8274 8.70751C23.318 8.40004 22.78 8.14289 22.2208 7.9397C22.1624 7.91909 22.1086 7.88711 22.0626 7.84559C22.0166 7.80408 21.9793 7.75385 21.9528 7.69783C21.9264 7.6418 21.9113 7.58108 21.9084 7.51919C21.9056 7.45729 21.915 7.39544 21.9362 7.33722C21.9574 7.279 21.99 7.22556 22.032 7.17999C22.0739 7.13443 22.1245 7.09763 22.1808 7.07175C22.2371 7.04586 22.298 7.03139 22.3599 7.02917C22.4218 7.02696 22.4836 7.03704 22.5416 7.05884C23.158 7.28287 23.7512 7.5664 24.3127 7.9054C24.4004 7.95839 24.4683 8.03864 24.506 8.13387C24.5437 8.22911 24.5492 8.33408 24.5217 8.43274C24.4941 8.5314 24.435 8.61832 24.3533 8.68018C24.2717 8.74205 24.172 8.77547 24.0696 8.77532ZM15.0259 7.91048C14.9152 7.91054 14.808 7.87143 14.7234 7.80006C14.6388 7.72869 14.5821 7.62967 14.5635 7.52054C14.5449 7.41141 14.5655 7.29921 14.6217 7.20383C14.6779 7.10844 14.766 7.03602 14.8705 6.99938C15.4864 6.78311 16.1202 6.62139 16.7644 6.5161C16.8253 6.50588 16.8876 6.50778 16.9477 6.52169C17.0079 6.53561 17.0647 6.56128 17.1149 6.59721C17.1651 6.63314 17.2077 6.67864 17.2403 6.73109C17.2728 6.78353 17.2947 6.8419 17.3047 6.90283C17.3146 6.96376 17.3124 7.02605 17.2983 7.08614C17.2841 7.14622 17.2581 7.20291 17.222 7.25295C17.1858 7.30298 17.1401 7.34538 17.0875 7.37771C17.0349 7.41004 16.9765 7.43167 16.9155 7.44134C16.3255 7.53778 15.7452 7.68585 15.1811 7.88384C15.1312 7.9014 15.0788 7.9104 15.0259 7.91048ZM20.5718 7.48782C20.5444 7.48781 20.517 7.48541 20.49 7.48063C20.1801 7.42595 19.8572 7.38298 19.5314 7.35267C19.2557 7.32696 18.9762 7.3122 18.7008 7.3086C18.6392 7.30821 18.5784 7.29569 18.5217 7.27177C18.4649 7.24785 18.4135 7.21299 18.3702 7.16918C18.327 7.12538 18.2928 7.07348 18.2696 7.01646C18.2464 6.95943 18.2347 6.8984 18.2351 6.83685C18.2355 6.77529 18.248 6.71441 18.2719 6.65769C18.2958 6.60097 18.3307 6.54952 18.3745 6.50627C18.4183 6.46302 18.4702 6.42883 18.5272 6.40563C18.5842 6.38244 18.6453 6.37071 18.7068 6.3711H18.7131C19.0132 6.37493 19.3178 6.3911 19.6183 6.41907C19.9699 6.45181 20.3177 6.49829 20.6525 6.5572C20.7681 6.57733 20.872 6.64011 20.9436 6.73311C21.0151 6.82611 21.0492 6.94258 21.0391 7.05949C21.0289 7.17641 20.9753 7.28527 20.8888 7.36456C20.8023 7.44385 20.6892 7.48789 20.5718 7.48782Z" fill="#6D7486"/>
<path d="M18.5839 17.9616C18.491 17.9615 18.4002 17.9339 18.323 17.8822C18.2458 17.8305 18.1858 17.757 18.1504 17.6711C18.1151 17.5851 18.1061 17.4906 18.1246 17.3996C18.1431 17.3086 18.1882 17.225 18.2542 17.1597L32.7251 2.83461C32.8138 2.74898 32.9327 2.70175 33.056 2.70316C33.1792 2.70456 33.297 2.75449 33.3838 2.84212C33.4705 2.92975 33.5192 3.04803 33.5194 3.17133C33.5195 3.29463 33.4711 3.41302 33.3845 3.50086L18.9137 17.8259C18.826 17.913 18.7074 17.9617 18.5839 17.9616Z" fill="#867AF4"/>
</svg>
