<svg width="20" height="20" viewBox="0 0 20 20" fill="none" xmlns="http://www.w3.org/2000/svg">
<rect x="1.66602" y="3.33594" width="16.6667" height="15" rx="6" stroke="#7B7676" stroke-width="1.4"/>
<line x1="14.032" y1="2.36797" x2="14.032" y2="4.3013" stroke="#7B7676" stroke-width="1.4" stroke-linecap="round"/>
<line x1="6.53203" y1="2.36797" x2="6.53203" y2="4.3013" stroke="#7B7676" stroke-width="1.4" stroke-linecap="round"/>
<path d="M10.5827 8.33332C10.5827 8.65548 10.3215 8.91665 9.99935 8.91665C9.67718 8.91665 9.41601 8.65548 9.41601 8.33332C9.41601 8.01115 9.67718 7.74998 9.99935 7.74998C10.3215 7.74998 10.5827 8.01115 10.5827 8.33332Z" fill="#7B7676"/>
<path d="M14.7487 8.33332C14.7487 8.65548 14.4875 8.91665 14.1654 8.91665C13.8432 8.91665 13.582 8.65548 13.582 8.33332C13.582 8.01115 13.8432 7.74998 14.1654 7.74998C14.4875 7.74998 14.7487 8.01115 14.7487 8.33332Z" fill="#7B7676"/>
<path d="M6.41666 8.33332C6.41666 8.65548 6.1555 8.91665 5.83333 8.91665C5.51116 8.91665 5.25 8.65548 5.25 8.33332C5.25 8.01115 5.51116 7.74998 5.83333 7.74998C6.1555 7.74998 6.41666 8.01115 6.41666 8.33332Z" fill="#7B7676"/>
<path d="M10.5827 11.6693C10.5827 11.9914 10.3215 12.2526 9.99935 12.2526C9.67718 12.2526 9.41601 11.9914 9.41601 11.6693C9.41601 11.3471 9.67718 11.0859 9.99935 11.0859C10.3215 11.0859 10.5827 11.3471 10.5827 11.6693Z" fill="#7B7676"/>
<path d="M6.41666 11.6693C6.41666 11.9914 6.1555 12.2526 5.83333 12.2526C5.51116 12.2526 5.25 11.9914 5.25 11.6693C5.25 11.3471 5.51116 11.0859 5.83333 11.0859C6.1555 11.0859 6.41666 11.3471 6.41666 11.6693Z" fill="#7B7676"/>
<path d="M14.7487 11.6693C14.7487 11.9914 14.4875 12.2526 14.1654 12.2526C13.8432 12.2526 13.582 11.9914 13.582 11.6693C13.582 11.3471 13.8432 11.0859 14.1654 11.0859C14.4875 11.0859 14.7487 11.3471 14.7487 11.6693Z" fill="#7B7676"/>
<path d="M14.7487 15.0013C14.7487 15.3235 14.4875 15.5846 14.1654 15.5846C13.8432 15.5846 13.582 15.3235 13.582 15.0013C13.582 14.6791 13.8432 14.418 14.1654 14.418C14.4875 14.418 14.7487 14.6791 14.7487 15.0013Z" fill="#7B7676"/>
<path d="M10.5827 15.0013C10.5827 15.3235 10.3215 15.5846 9.99935 15.5846C9.67718 15.5846 9.41601 15.3235 9.41601 15.0013C9.41601 14.6791 9.67718 14.418 9.99935 14.418C10.3215 14.418 10.5827 14.6791 10.5827 15.0013Z" fill="#7B7676"/>
<path d="M6.41666 15.0013C6.41666 15.3235 6.1555 15.5846 5.83333 15.5846C5.51116 15.5846 5.25 15.3235 5.25 15.0013C5.25 14.6791 5.51116 14.418 5.83333 14.418C6.1555 14.418 6.41666 14.6791 6.41666 15.0013Z" fill="#7B7676"/>
</svg>
