<svg width="24" height="24" viewBox="0 0 24 24" fill="none" xmlns="http://www.w3.org/2000/svg">
<path d="M15.4435 3.37272C15.8403 2.90038 16.4885 2.78804 16.9802 3.08148C17.6302 3.4694 18.3437 3.9307 18.8333 4.34214C19.3142 4.74616 19.8663 5.3435 20.3392 5.89562C20.7068 6.325 20.7067 6.97592 20.3119 7.44573L10.1571 19.5316C9.81602 19.9375 9.35348 20.2075 8.84643 20.2916C8.12447 20.4114 7.15637 20.5564 6.32426 20.6287C5.90592 20.665 5.54219 20.6811 5.26931 20.6704C5.18723 20.6672 5.12037 20.6618 5.06748 20.6554C5.05203 20.6044 5.03518 20.5395 5.01787 20.4592C4.96033 20.1922 4.91347 19.8311 4.87716 19.4128C4.80494 18.5807 4.78094 17.6021 4.77452 16.8703C4.77002 16.3563 4.95621 15.8542 5.29725 15.4483L15.4435 3.37272ZM4.94175 20.6315C4.94187 20.6314 4.94398 20.6321 4.9478 20.6336C4.94354 20.6323 4.94163 20.6315 4.94175 20.6315ZM5.10958 20.7695C5.11175 20.773 5.11274 20.775 5.1127 20.7751C5.11265 20.7752 5.11157 20.7735 5.10958 20.7695Z" stroke="#030401" stroke-width="1.4"/>
<path d="M14.0117 5.73047C14.0117 5.73047 15.1828 7.41208 16.2049 8.08502C17.227 8.75796 18.4993 9.49769 18.4993 9.49769" stroke="#030401" stroke-width="1.4" stroke-linecap="round"/>
</svg>
