<svg width="40" height="40" viewBox="0 0 40 40" fill="none" xmlns="http://www.w3.org/2000/svg">
<path d="M28.3086 20V38.75H30.8969C31.0626 38.75 31.2216 38.6842 31.3388 38.5669C31.456 38.4497 31.5219 38.2908 31.5219 38.125V20H28.3086Z" fill="#A85542"/>
<path d="M30.8969 1.25H28.3086V20H31.5219V1.875C31.5219 1.70924 31.456 1.55027 31.3388 1.43306C31.2216 1.31585 31.0626 1.25 30.8969 1.25Z" fill="#C2684F"/>
<path d="M11.6914 33.6445H28.3117V38.7508H11.6914V33.6445Z" fill="#BF9066"/>
<path d="M11.6914 29.8555H28.3117V33.6453H11.6914V29.8555Z" fill="#E8D972"/>
<path d="M11.6914 20H28.3117V29.8539H11.6914V20Z" fill="#BF9066"/>
<path d="M11.6914 6.35547H28.3117V10.1453H11.6914V6.35547Z" fill="#FFF27D"/>
<path d="M11.6914 1.25H28.3117V6.35625H11.6914V1.25Z" fill="#DAAA79"/>
<path d="M8.47656 20V38.125C8.47656 38.2908 8.54241 38.4497 8.65962 38.5669C8.77683 38.6842 8.9358 38.75 9.10156 38.75H11.6898V20H8.47656Z" fill="#A85542"/>
<path d="M9.10156 1.25C8.9358 1.25 8.77683 1.31585 8.65962 1.43306C8.54241 1.55027 8.47656 1.70924 8.47656 1.875V20H11.6898V1.25H9.10156Z" fill="#C2684F"/>
<path d="M11.6914 10.1445H28.3117V19.9984H11.6914V10.1445Z" fill="#DAAA79"/>
<path d="M10.6641 38.125V20H8.47656V38.125C8.47656 38.2908 8.54241 38.4497 8.65962 38.5669C8.77683 38.6842 8.9358 38.75 9.10156 38.75H11.2891C11.1233 38.75 10.9643 38.6842 10.8471 38.5669C10.7299 38.4497 10.6641 38.2908 10.6641 38.125Z" fill="#893F33"/>
<path d="M11.2891 1.25H9.10156C8.9358 1.25 8.77683 1.31585 8.65962 1.43306C8.54241 1.55027 8.47656 1.70924 8.47656 1.875V20H10.6641V1.875C10.6641 1.70924 10.7299 1.55027 10.8471 1.43306C10.9643 1.31585 11.1233 1.25 11.2891 1.25Z" fill="#A85542"/>
</svg>
