<svg width="40" height="40" viewBox="0 0 40 40" fill="none" xmlns="http://www.w3.org/2000/svg">
<g clip-path="url(#clip0_45_12743)">
<path d="M16.2725 16.2697L16.9504 21.0154L16.2725 27.1992C16.2722 27.4804 16.4457 27.7326 16.7084 27.8331L20.625 29.3246C21.6782 29.722 22.375 30.7304 22.3742 31.8561V32.5205C29.8057 32.1847 35.8535 26.4242 36.5505 19.0179C37.2475 11.6115 32.3804 4.82393 25.142 3.10761C17.9037 1.3913 10.5072 5.27107 7.80469 12.2019H8.13689C9.63384 12.2037 10.8469 13.4168 10.8488 14.9137V16.1266L16.2725 16.2697Z" fill="#E64C3C"/>
<path d="M32.5414 17.6288C32.5423 21.5046 30.4751 25.0865 27.1187 27.0248C23.7624 28.9631 19.6268 28.9633 16.2702 27.0254V25.0525C16.2698 23.4462 15.3242 21.9905 13.8567 21.3372L11.5245 20.3V17.6288C11.5191 17.1255 11.3312 16.6412 10.9956 16.2661C10.9793 16.2463 10.9612 16.2281 10.9414 16.2118V16.205C11.6952 10.5442 16.7089 6.43728 22.4074 6.81289C28.1058 7.18849 32.5371 11.918 32.5414 17.6288Z" fill="#ECF0F1"/>
<path d="M21.6937 24.407C25.438 24.407 28.4734 21.3716 28.4734 17.6273C28.4734 13.883 25.438 10.8477 21.6937 10.8477C17.9494 10.8477 14.9141 13.883 14.9141 17.6273C14.9141 21.3716 17.9494 24.407 21.6937 24.407Z" fill="#E64C3C"/>
<path d="M21.6962 20.3378C23.194 20.3378 24.4081 19.1236 24.4081 17.6259C24.4081 16.1282 23.194 14.9141 21.6962 14.9141C20.1985 14.9141 18.9844 16.1282 18.9844 17.6259C18.9844 19.1236 20.1985 20.3378 21.6962 20.3378Z" fill="#ECF0F1"/>
<path d="M39.3214 18.3052H31.1858C30.8113 18.3052 30.5078 18.0016 30.5078 17.6272C30.5078 17.2528 30.8113 16.9492 31.1858 16.9492H39.3214C39.6958 16.9492 39.9993 17.2528 39.9993 17.6272C39.9993 18.0016 39.6958 18.3052 39.3214 18.3052Z" fill="#C03A2B"/>
<path d="M21.6936 8.81356C21.3192 8.81356 21.0156 8.51002 21.0156 8.13559V0.677966C21.0156 0.303536 21.3192 0 21.6936 0C22.068 0 22.3716 0.303536 22.3716 0.677966V8.13559C22.3716 8.51002 22.068 8.81356 21.6936 8.81356Z" fill="#C03A2B"/>
<path d="M14.9141 25.0518V30.5101H13.5582V25.0518C13.5581 24.5162 13.2427 24.0308 12.7534 23.8131L8.17578 21.7738L8.72697 20.5352L13.3053 22.5779C14.2826 23.013 14.9127 23.982 14.9141 25.0518Z" fill="#7F8C8D"/>
<path d="M4.06687 13.5586H8.13467C8.8826 13.5608 9.48836 14.1666 9.4906 14.9145V16.9484H6.77873C6.4043 16.9484 6.10077 17.252 6.10077 17.6264V37.6467L4.2567 36.6027C3.95669 36.4763 3.67776 36.3048 3.42958 36.0942C2.97751 35.7289 2.71363 35.1798 2.71094 34.5986V14.9145C2.71317 14.1666 3.31894 13.5608 4.06687 13.5586Z" fill="#BDC3C7"/>
<path d="M6.77953 16.9492H9.49139C9.86582 16.9492 10.1694 17.2528 10.1694 17.6272V26.7662C10.2314 26.8045 10.2973 26.8364 10.366 26.8611L11.5253 27.3018L20.1422 30.5899C20.6708 30.7887 21.0198 31.2956 21.0168 31.8604V36.674C21.0169 37.1197 20.7979 37.537 20.431 37.7902C20.0641 38.0433 19.5962 38.1 19.1795 37.9418L14.2304 36.057C12.6233 35.4397 10.8063 36.0876 9.95241 37.5824C9.49014 38.3628 8.56142 38.7354 7.688 38.4909C7.58551 38.4638 7.48567 38.4275 7.3897 38.3824L6.10156 37.6502V17.6272C6.10156 17.2528 6.4051 16.9492 6.77953 16.9492Z" fill="#95A5A5"/>
<path d="M10.168 26.7695C10.23 26.8079 10.2959 26.8397 10.3646 26.8644L11.5239 27.3051V32.8916C11.5239 33.266 11.2204 33.5695 10.8459 33.5695C10.4715 33.5695 10.168 33.266 10.168 32.8916V26.7695Z" fill="#7F8C8D"/>
<path d="M2.71215 14.9141V19.6598H0.698589C0.511081 19.6577 0.33259 19.579 0.20455 19.442C0.0765107 19.305 0.0100596 19.1216 0.0206229 18.9344C0.28503 14.9141 2.71215 14.9141 2.71215 14.9141Z" fill="#7F8C8D"/>
<path d="M3.43157 36.0977C3.67975 36.3083 3.95868 36.4798 4.25869 36.6061L6.10276 37.6502L7.39089 38.3824C7.48686 38.4275 7.5867 38.4638 7.6892 38.4909C6.54461 39.6304 4.93961 40.1804 3.33665 39.9824C3.07381 39.9584 2.83827 39.8102 2.70288 39.5837C2.56748 39.3571 2.54854 39.0795 2.65191 38.8366C3.01751 37.9571 3.27916 37.0379 3.43157 36.0977Z" fill="#7F8C8D"/>
</g>
<defs>
<clipPath id="clip0_45_12743">
<rect width="40" height="40" fill="white"/>
</clipPath>
</defs>
</svg>
