<svg width="40" height="40" viewBox="0 0 40 40" fill="none" xmlns="http://www.w3.org/2000/svg">
<g clip-path="url(#clip0_43_4478)">
<path d="M37.5004 10.2799C35.9129 14.3674 34.5316 17.7799 34.3754 18.0049C33.8504 18.4924 31.8754 19.3737 30.6254 19.9987C29.3754 20.6237 20.0004 19.9987 20.0004 19.9987L0.775391 14.4612C1.82981 10.7915 3.91261 7.50038 6.7777 4.9766C9.6428 2.45282 13.1704 0.801902 16.9438 0.218906C20.7172 -0.364089 24.5786 0.145205 28.0717 1.68661C31.5649 3.22802 34.5439 5.73712 36.6566 8.91744C36.9504 9.37369 37.2316 9.81119 37.5004 10.2799Z" fill="#FEC027"/>
<path d="M39.9999 19.9992C40.0003 25.0874 38.0613 29.9845 34.5778 33.6933C31.0943 37.4021 26.3282 39.6437 21.2499 39.9617C16.0749 29.1367 19.9999 19.9992 19.9999 19.9992C22.0064 19.6739 23.9555 19.0614 25.7874 18.1805C30.1844 16.1376 33.9419 12.9354 36.6562 8.91797C38.8434 12.1991 40.0071 16.0559 39.9999 19.9992Z" fill="#F26635"/>
<path opacity="0.15" d="M40.0004 19.9992C40.0008 25.0874 38.0618 29.9845 34.5783 33.6933C31.0948 37.4021 26.3287 39.6437 21.2504 39.9617C21.1379 39.7305 21.0316 39.493 20.9316 39.2617C24.2182 38.9002 27.3639 37.7296 30.0872 35.8545C32.8105 33.9794 35.0264 31.4584 36.5367 28.5171C38.047 25.5758 38.8045 22.306 38.7415 19.0002C38.6784 15.6944 37.7967 12.4558 36.1754 9.57422C36.3316 9.36172 36.4879 9.14297 36.6379 8.91797C38.8317 12.197 40.0021 16.0539 40.0004 19.9992Z" fill="#030401"/>
<path d="M21.2493 39.9641C20.8305 39.9641 20.4055 40.0016 19.9993 40.0016C16.5969 40.0024 13.2505 39.1353 10.2766 37.4821C7.30283 35.829 4.79993 33.4445 3.00469 30.5542C1.20946 27.664 0.181264 24.3635 0.0173628 20.965C-0.146539 17.5665 0.559275 14.1824 2.06804 11.1328C14.0555 12.0328 19.9993 20.0016 19.9993 20.0016C19.9993 20.0016 16.0743 29.1391 21.2493 39.9641Z" fill="#5190C4"/>
<path opacity="0.15" d="M21.2493 39.9641C20.8305 39.9641 20.4055 40.0016 19.9993 40.0016C16.5969 40.0024 13.2505 39.1353 10.2766 37.4821C7.30283 35.829 4.79993 33.4445 3.00469 30.5542C1.20946 27.664 0.181264 24.3635 0.0173628 20.965C-0.146539 17.5665 0.559275 14.1824 2.06804 11.1328C2.37429 11.1328 2.69304 11.1828 2.97429 11.2203C1.62196 14.2475 1.0434 17.5634 1.29069 20.8696C1.53797 24.1759 2.60333 27.3688 4.39091 30.1611C6.1785 32.9535 8.63223 35.2576 11.5313 36.8662C14.4305 38.4748 17.684 39.3375 20.9993 39.3766C21.0805 39.5703 21.1743 39.7703 21.2493 39.9641Z" fill="#030401"/>
<path opacity="0.2" d="M20.0008 34.2633C27.8777 34.2633 34.2633 27.8777 34.2633 20.0008C34.2633 12.1238 27.8777 5.73828 20.0008 5.73828C12.1238 5.73828 5.73828 12.1238 5.73828 20.0008C5.73828 27.8777 12.1238 34.2633 20.0008 34.2633Z" fill="white"/>
<path opacity="0.25" d="M20 29.0625C25.0051 29.0625 29.0625 25.0051 29.0625 20C29.0625 14.9949 25.0051 10.9375 20 10.9375C14.9949 10.9375 10.9375 14.9949 10.9375 20C10.9375 25.0051 14.9949 29.0625 20 29.0625Z" fill="white"/>
<path d="M26.918 17.6187C26.5367 17.825 26.1555 18.0063 25.793 18.175C21.543 6.60625 9.32422 3.75 8.57422 3.5875C9.03672 3.2625 9.51797 2.9625 10.0117 2.675C13.4492 3.69375 23.1242 7.41875 26.918 17.6187ZM32.8742 13.375C32.4992 13.75 32.143 14.0437 31.7742 14.375C31.7404 14.302 31.7192 14.2238 31.7117 14.1437C31.0555 6.5375 19.8805 0.10625 19.768 0.04375L19.7117 0H19.9992C20.7489 0.000610829 21.4979 0.0423402 22.243 0.125C25.5055 2.31875 31.9492 7.34375 32.8742 13.375ZM11.5055 38.125C11.0055 37.8875 10.518 37.6312 10.043 37.3563C9.18672 33.4313 7.93672 23.5438 14.5555 15.2563C14.9242 15.4937 15.268 15.7313 15.593 15.9625C8.49922 24.7563 10.818 35.5563 11.5055 38.125ZM9.01172 12.5562C3.28672 16.7188 2.76172 27.875 2.71797 30.0562C2.28596 29.3245 1.90384 28.5645 1.57422 27.7812C1.87422 23.75 3.08047 16.0188 7.57422 12.1C8.06797 12.2375 8.54922 12.3875 9.01172 12.5562ZM39.9992 19.6687C37.6242 21.875 30.9805 27.275 21.968 27.275C20.8445 27.2765 19.7226 27.1929 18.6117 27.025C18.6117 26.5875 18.6617 26.175 18.7055 25.775C30.5055 27.575 38.9117 19.0562 39.8992 18C39.9659 18.55 39.9992 19.1062 39.9992 19.6687ZM37.5617 29.5688C37.1679 30.2911 36.7296 30.9883 36.2492 31.6562C33.593 32.9688 28.4055 35.1813 23.4742 35.1813C22.068 35.2025 20.6679 34.9914 19.3305 34.5563C19.2055 34.0625 19.1055 33.5812 19.018 33.1C26.093 36.1937 37.2742 29.7062 37.393 29.6375C37.4441 29.6036 37.5015 29.5802 37.5617 29.5688Z" fill="#414042"/>
</g>
<defs>
<clipPath id="clip0_43_4478">
<rect width="40" height="40" fill="white"/>
</clipPath>
</defs>
</svg>
