<svg width="56" height="56" viewBox="0 0 56 56" fill="none" xmlns="http://www.w3.org/2000/svg">
<g clip-path="url(#clip0_95_4668)">
<path d="M27.7524 55.9992C27.4467 55.9992 27.1481 55.8778 26.9264 55.6585C26.6511 55.3832 26.5297 54.9865 26.6067 54.6062L28.2564 46.3578C28.3031 46.1292 28.4104 45.9215 28.5761 45.7605L46.7247 27.6118C48.0874 26.2492 50.3111 26.2492 51.6737 27.6118L54.9731 30.9112C56.3381 32.2762 56.3381 34.4952 54.9731 35.8602L36.8244 54.0088C36.6634 54.1722 36.4557 54.2818 36.2271 54.3285L27.9787 55.9782C27.9041 55.9922 27.8271 55.9992 27.7524 55.9992ZM30.4777 47.1582L29.2411 53.3438L35.4267 52.1072L53.3257 34.2082C53.7807 33.7532 53.7807 33.0135 53.3257 32.5585L50.0264 29.2592C49.5714 28.8042 48.8317 28.8042 48.3767 29.2592L30.4777 47.1582Z" fill="white"/>
<path d="M22.1667 49H5.83333C2.61567 49 0 46.3843 0 43.1667V12.8333C0 9.61567 2.61567 7 5.83333 7H10.5C11.144 7 11.6667 7.52267 11.6667 8.16667C11.6667 8.81067 11.144 9.33333 10.5 9.33333H5.83333C3.90367 9.33333 2.33333 10.9037 2.33333 12.8333V43.1667C2.33333 45.0963 3.90367 46.6667 5.83333 46.6667H22.1667C22.8107 46.6667 23.3333 47.1893 23.3333 47.8333C23.3333 48.4773 22.8107 49 22.1667 49Z" fill="white"/>
<path d="M38.5 28C37.856 28 37.3333 27.4773 37.3333 26.8333V12.8333C37.3333 10.9037 35.763 9.33333 33.8333 9.33333H29.1667C28.5227 9.33333 28 8.81067 28 8.16667C28 7.52267 28.5227 7 29.1667 7H33.8333C37.051 7 39.6667 9.61567 39.6667 12.8333V26.8333C39.6667 27.4773 39.144 28 38.5 28Z" fill="white"/>
<path d="M26.834 14H12.834C10.9043 14 9.33398 12.4297 9.33398 10.5V5.83333C9.33398 5.18933 9.85665 4.66667 10.5007 4.66667H14.1173C14.6587 2.00667 17.0177 0 19.834 0C22.6503 0 25.0093 2.00667 25.5506 4.66667H29.1673C29.8113 4.66667 30.334 5.18933 30.334 5.83333V10.5C30.334 12.4297 28.7637 14 26.834 14ZM11.6673 7V10.5C11.6673 11.1417 12.1923 11.6667 12.834 11.6667H26.834C27.4757 11.6667 28.0007 11.1417 28.0007 10.5V7H24.5007C23.8567 7 23.334 6.47733 23.334 5.83333C23.334 3.90367 21.7637 2.33333 19.834 2.33333C17.9043 2.33333 16.334 3.90367 16.334 5.83333C16.334 6.47733 15.8113 7 15.1673 7H11.6673Z" fill="white"/>
<path d="M31.5 21.0013H8.16667C7.52267 21.0013 7 20.4786 7 19.8346C7 19.1906 7.52267 18.668 8.16667 18.668H31.5C32.144 18.668 32.6667 19.1906 32.6667 19.8346C32.6667 20.4786 32.144 21.0013 31.5 21.0013Z" fill="white"/>
<path d="M31.5 28.0013H8.16667C7.52267 28.0013 7 27.4786 7 26.8346C7 26.1906 7.52267 25.668 8.16667 25.668H31.5C32.144 25.668 32.6667 26.1906 32.6667 26.8346C32.6667 27.4786 32.144 28.0013 31.5 28.0013Z" fill="white"/>
<path d="M31.5 35.0013H8.16667C7.52267 35.0013 7 34.4786 7 33.8346C7 33.1906 7.52267 32.668 8.16667 32.668H31.5C32.144 32.668 32.6667 33.1906 32.6667 33.8346C32.6667 34.4786 32.144 35.0013 31.5 35.0013Z" fill="white"/>
</g>
<defs>
<clipPath id="clip0_95_4668">
<rect width="56" height="56" fill="white"/>
</clipPath>
</defs>
</svg>
