<svg width="61" height="62" viewBox="0 0 61 62" fill="none" xmlns="http://www.w3.org/2000/svg">
<path fill-rule="evenodd" clip-rule="evenodd" d="M52.4497 5.98185H49.3084V5.03348C49.3084 3.69852 48.7781 2.41823 47.8341 1.47427C46.8901 0.530312 45.6098 0 44.2749 0C42.9399 0 41.6596 0.530312 40.7157 1.47427C39.7717 2.41823 39.2414 3.69852 39.2414 5.03348V5.98185H21.615V5.03348C21.615 3.69852 21.0847 2.41823 20.1408 1.47427C19.1968 0.530312 17.9165 0 16.5816 0C15.2466 0 13.9663 0.530312 13.0223 1.47427C12.0784 2.41823 11.5481 3.69852 11.5481 5.03348V5.98185H8.40674C6.17809 5.98495 4.0416 6.87165 2.4657 8.44755C0.889801 10.0234 0.00309819 12.1599 0 14.3886V53.5933C0.00267386 55.822 0.88924 57.9588 2.46523 59.5348C4.04122 61.1108 6.17796 61.9973 8.40674 62H52.4497C54.6785 61.9974 56.8152 61.1109 58.3912 59.5349C59.9672 57.959 60.8538 55.8223 60.8564 53.5935V14.3884C60.8534 12.1597 59.9667 10.0232 58.3908 8.44734C56.8149 6.87146 54.6784 5.98483 52.4497 5.98185ZM43.834 5.03348C43.834 4.91655 43.8805 4.80441 43.9631 4.72172C44.0458 4.63904 44.158 4.59259 44.2749 4.59259C44.3918 4.59259 44.504 4.63904 44.5866 4.72172C44.6693 4.80441 44.7158 4.91655 44.7158 5.03348V11.5249C44.7158 11.6418 44.6693 11.754 44.5866 11.8366C44.504 11.9193 44.3918 11.9658 44.2749 11.9658C44.158 11.9658 44.0458 11.9193 43.9631 11.8366C43.8805 11.754 43.834 11.6418 43.834 11.5249V5.03348ZM16.1407 5.03348C16.1407 4.91655 16.1871 4.80441 16.2698 4.72172C16.3525 4.63904 16.4646 4.59259 16.5816 4.59259C16.6985 4.59259 16.8106 4.63904 16.8933 4.72172C16.976 4.80441 17.0224 4.91655 17.0224 5.03348V11.5249C17.0224 11.6418 16.976 11.754 16.8933 11.8366C16.8106 11.9193 16.6985 11.9658 16.5816 11.9658C16.4646 11.9658 16.3525 11.9193 16.2698 11.8366C16.1871 11.754 16.1407 11.6418 16.1407 11.5249V5.03348ZM8.40674 10.5744H11.5481V11.5249C11.5481 12.8598 12.0784 14.1401 13.0223 15.0841C13.9663 16.0281 15.2466 16.5584 16.5816 16.5584C17.9165 16.5584 19.1968 16.0281 20.1408 15.0841C21.0847 14.1401 21.615 12.8598 21.615 11.5249V10.5742H39.2414V11.5247C39.2414 12.8596 39.7717 14.1399 40.7157 15.0839C41.6596 16.0278 42.9399 16.5581 44.2749 16.5581C45.6098 16.5581 46.8901 16.0278 47.8341 15.0839C48.7781 14.1399 49.3084 12.8596 49.3084 11.5247V10.574H52.4497C53.461 10.575 54.4305 10.9772 55.1456 11.6923C55.8606 12.4073 56.2628 13.3769 56.2639 14.3881V21.0015H4.59282V14.3881C4.59392 13.377 4.9961 12.4076 5.71112 11.6926C6.42614 10.9776 7.39559 10.5755 8.40674 10.5744ZM52.4497 57.4074H8.40674C7.39551 57.4064 6.42596 57.0043 5.71089 56.2893C4.99581 55.5742 4.59363 54.6047 4.59259 53.5935V25.5945H56.2639V53.5933C56.2628 54.6045 55.8606 55.5741 55.1456 56.2891C54.4305 57.0042 53.461 57.4064 52.4497 57.4074Z" fill="white"/>
</svg>
