<svg width="24" height="24" viewBox="0 0 24 24" fill="none" xmlns="http://www.w3.org/2000/svg">
<path fill-rule="evenodd" clip-rule="evenodd" d="M2.33196 21.7176C0.697001 20.0826 0.685866 17.4255 2.33196 15.777L3.07051 15.039C3.21228 14.896 3.44999 14.8905 3.60044 15.039L9.01049 20.4491C9.15474 20.5933 9.15845 20.8298 9.01049 20.979L8.27194 21.7176C6.63697 23.3525 3.98054 23.363 2.33196 21.7176ZM2.86188 21.1877C4.21084 22.5366 6.39366 22.5366 7.74263 21.1877L8.21622 20.7141L3.33609 15.8339L2.8625 16.3075C1.51293 17.6546 1.51293 19.8387 2.86188 21.1877Z" fill="#7B7676"/>
<path fill-rule="evenodd" clip-rule="evenodd" d="M8.48057 20.9772L3.07051 15.5665C2.92318 15.4179 2.92566 15.1827 3.07051 15.0366L4.78658 13.3205C4.93268 13.1744 5.16978 13.1744 5.31651 13.3205L10.7266 18.7306C10.8727 18.8767 10.8727 19.1138 10.7266 19.2605L9.0105 20.9772C8.86625 21.1214 8.62977 21.1251 8.48057 20.9772ZM3.86541 15.3022L8.74554 20.1823L9.9323 18.9955L5.05155 14.1154L3.86541 15.3022Z" fill="#7B7676"/>
<path fill-rule="evenodd" clip-rule="evenodd" d="M6.14062 15.1969C5.96975 15.0806 5.92519 14.8478 6.04096 14.6763L13.3057 3.98437C13.4221 3.8135 13.6549 3.76894 13.8264 3.88471C13.9972 4.00109 14.0418 4.23387 13.926 4.40534L6.66127 15.0979C6.54612 15.2669 6.31459 15.3146 6.14062 15.1969Z" fill="#7B7676"/>
<path fill-rule="evenodd" clip-rule="evenodd" d="M7.75595 16.6655C7.42476 16.6655 7.25451 16.2631 7.49099 16.026L16.47 7.04708C16.6161 6.90097 16.8538 6.90097 16.9999 7.04708C17.146 7.19318 17.146 7.43028 16.9999 7.57701L8.02091 16.556C7.94786 16.629 7.8519 16.6655 7.75595 16.6655Z" fill="#7B7676"/>
<path fill-rule="evenodd" clip-rule="evenodd" d="M8.85196 17.9082C8.73558 17.7374 8.78016 17.504 8.95101 17.3876L19.6436 10.1235C19.8144 10.0071 20.0478 10.0516 20.1642 10.2225C20.2806 10.3934 20.236 10.6267 20.0652 10.7431L9.3726 18.0073C9.20298 18.123 8.96959 18.081 8.85196 17.9082Z" fill="#7B7676"/>
<path fill-rule="evenodd" clip-rule="evenodd" d="M13.2233 17.8413C11.5871 15.0487 9.00246 12.4616 6.20489 10.8229C6.02659 10.7183 5.96654 10.4886 6.07055 10.3104C6.17517 10.1321 6.40485 10.072 6.58314 10.176C9.48967 11.8766 12.1746 14.5652 13.8696 17.4625C13.9742 17.6407 13.9141 17.8704 13.7352 17.975C13.5681 18.0772 13.3322 18.027 13.2233 17.8413Z" fill="#7B7676"/>
<path fill-rule="evenodd" clip-rule="evenodd" d="M10.1192 19.1461C10.0368 18.9566 10.1235 18.7356 10.3129 18.6533L22.1737 13.4921C22.1743 13.4921 22.1749 13.4915 22.1749 13.4915C22.1749 13.4902 22.1749 13.489 22.1749 13.4878C22.1743 13.4878 22.1737 13.4871 22.1731 13.4871L21.1751 13.0885C20.8198 12.9467 20.535 12.6613 20.3933 12.3066L19.9847 11.2833C19.8157 10.8605 19.4764 10.5218 19.0542 10.3528L18.0309 9.94424C17.6756 9.80247 17.3908 9.51708 17.249 9.16236L16.8404 8.13904C16.6714 7.71622 16.3322 7.37759 15.91 7.20859L14.8867 6.8C14.5313 6.65822 14.2465 6.37284 14.1048 6.01812L13.6962 4.9948C13.5272 4.57198 13.1879 4.23335 12.7657 4.06435L11.7424 3.65576C11.3871 3.51398 11.1023 3.22859 10.9605 2.87388L10.5618 1.87654C10.5618 1.87592 10.5612 1.87529 10.5612 1.87469C10.56 1.87469 10.5587 1.87469 10.5575 1.87469C10.5575 1.87531 10.5569 1.87593 10.5569 1.87593L5.39567 13.736C5.31333 13.9255 5.09233 14.0128 4.90289 13.9298C4.71345 13.8475 4.62616 13.6265 4.70912 13.437L9.87032 1.57629C10.1353 0.967125 11.0088 0.975175 11.2583 1.59733L11.6569 2.59466C11.7232 2.75995 11.8557 2.89305 12.0209 2.95867L13.0443 3.36726C13.6565 3.61178 14.1481 4.10333 14.3926 4.7156L14.8012 5.73892C14.8674 5.90421 14.9999 6.03731 15.1652 6.10293L16.1885 6.51152C16.8008 6.75604 17.2923 7.24759 17.5369 7.85986L17.9455 8.88318C18.0117 9.04847 18.1442 9.18157 18.3095 9.24719L19.3328 9.65578C19.945 9.90031 20.4366 10.3918 20.6811 11.0041L21.0897 12.0274C21.156 12.1927 21.2884 12.3252 21.4537 12.3914L22.4517 12.7901C23.0689 13.0359 23.0868 13.9113 22.4727 14.1781L10.612 19.3392C10.43 19.4222 10.2034 19.3405 10.1192 19.1461Z" fill="#7B7676"/>
<path fill-rule="evenodd" clip-rule="evenodd" d="M8.2153 20.7124L3.33545 15.832L2.86187 16.3056C1.5123 17.6527 1.51229 19.8368 2.86124 21.1858C4.2102 22.5347 6.39303 22.5347 7.74199 21.1858L8.2153 20.7124Z" fill="#F0F0F0"/>
<path fill-rule="evenodd" clip-rule="evenodd" d="M12.7207 15.7318C13.0721 16.2049 13.3993 16.6885 13.6986 17.1789L22.1723 13.4916C22.1729 13.4916 22.1735 13.491 22.1735 13.491V13.4873C22.1729 13.4873 22.1723 13.4867 22.1717 13.4867L21.1737 13.088C20.8184 12.9462 20.5336 12.6608 20.3918 12.3061L19.9832 11.2828C19.9329 11.1569 19.8675 11.0384 19.7892 10.9297L12.7207 15.7318Z" fill="#F0F0F0"/>
<path fill-rule="evenodd" clip-rule="evenodd" d="M12.2631 15.1392L19.2045 10.4235C19.1556 10.398 19.1054 10.3749 19.0539 10.3543L18.0306 9.94569C17.6752 9.80391 17.3905 9.51853 17.2487 9.16381L16.8401 8.14049C16.803 8.04762 16.7577 7.95882 16.705 7.875L10.9414 13.6386C11.4066 14.12 11.8489 14.622 12.2631 15.1392Z" fill="#F0F0F0"/>
<path fill-rule="evenodd" clip-rule="evenodd" d="M10.4108 13.1068L16.1744 7.34319C16.0905 7.29057 16.0018 7.24524 15.909 7.2081L14.8856 6.79951C14.5303 6.65773 14.2455 6.37235 14.1038 6.01763L13.6952 4.99431C13.6746 4.94283 13.6515 4.89259 13.626 4.84375L8.91016 11.7848C9.42771 12.1993 9.92969 12.6418 10.4108 13.1068Z" fill="#F0F0F0"/>
<path fill-rule="evenodd" clip-rule="evenodd" d="M8.31576 11.3266L13.1181 4.25869C13.0094 4.18045 12.8909 4.11502 12.7651 4.06466L11.7418 3.65607C11.3865 3.51429 11.1017 3.22891 10.9599 2.87419L10.5612 1.87685C10.5612 1.87623 10.5606 1.87561 10.5606 1.875H10.5568C10.5568 1.87563 10.5562 1.87625 10.5562 1.87625L6.86914 10.349C7.35971 10.6484 7.84316 10.9756 8.31576 11.3266Z" fill="#F0F0F0"/>
<path fill-rule="evenodd" clip-rule="evenodd" d="M7.89315 11.9471C7.45933 11.6238 7.01596 11.3214 6.56618 11.043L5.49609 13.502L6.29433 14.3002L7.89315 11.9471Z" fill="#F0F0F0"/>
<path fill-rule="evenodd" clip-rule="evenodd" d="M8.48676 12.4062L6.83398 14.8389L7.75566 15.7606L9.87998 13.6362C9.43263 13.2045 8.96671 12.7929 8.48676 12.4062Z" fill="#F0F0F0"/>
<path fill-rule="evenodd" clip-rule="evenodd" d="M10.4114 14.168L8.28711 16.2923L9.20856 17.2137L11.6411 15.5611C11.2546 15.0813 10.8432 14.6154 10.4114 14.168Z" fill="#F0F0F0"/>
<path fill-rule="evenodd" clip-rule="evenodd" d="M12.1011 16.1523L9.74805 17.751L10.5469 18.5498L13.0057 17.4798C12.7272 17.03 12.4247 16.5865 12.1011 16.1523Z" fill="#F0F0F0"/>
</svg>
