<svg width="48" height="48" viewBox="0 0 48 48" fill="none" xmlns="http://www.w3.org/2000/svg">
<g clip-path="url(#clip0_98_5409)">
<path d="M47.8749 18.4139C47.5607 17.442 46.6986 16.7516 45.6787 16.6597L31.8245 15.4017L26.3462 2.57926C25.9423 1.63954 25.0224 1.03125 24.0002 1.03125C22.9781 1.03125 22.0582 1.63954 21.6542 2.58146L16.1759 15.4017L2.31963 16.6597C1.30154 16.7538 0.441656 17.442 0.125608 18.4139C-0.190441 19.3858 0.101437 20.4519 0.871598 21.1239L11.3437 30.308L8.2557 43.9105C8.02974 44.9107 8.41793 45.9445 9.24779 46.5444C9.69384 46.8667 10.2157 47.0307 10.742 47.0307C11.1957 47.0307 11.6458 46.9084 12.0497 46.6667L24.0002 39.5243L35.9464 46.6667C36.8205 47.1926 37.9225 47.1446 38.7505 46.5444C39.5807 45.9427 39.9685 44.9085 39.7426 43.9105L36.6546 30.308L47.1267 21.1258C47.8969 20.4519 48.1909 19.3877 47.8749 18.4139Z" fill="#FFC107"/>
</g>
<defs>
<clipPath id="clip0_98_5409">
<rect width="48" height="48" fill="white"/>
</clipPath>
</defs>
</svg>
