<svg width="24" height="24" viewBox="0 0 24 24" fill="none" xmlns="http://www.w3.org/2000/svg">
<g clip-path="url(#clip0_31_20586)">
<mask id="mask0_31_20586" style="mask-type:luminance" maskUnits="userSpaceOnUse" x="0" y="0" width="24" height="24">
<path d="M0 1.90735e-06H24V24H0V1.90735e-06Z" fill="white"/>
</mask>
<g mask="url(#mask0_31_20586)">
<path d="M20.3398 3.86877L22.4943 7.48892L22.7638 7.54297C22.2132 6.21153 21.4055 4.96156 20.3398 3.86877Z" fill="#78AD63"/>
<path d="M21.6006 5.50716C21.6172 5.53434 21.6334 5.56186 21.6493 5.5897C22.0026 6.19031 22.2841 6.82702 22.4952 7.48828L19.6868 6.92316L17.0762 4.31259L16.457 1.23469C17.8316 1.80314 19.1193 2.64539 20.2366 3.7627C20.2718 3.79786 20.3063 3.83297 20.3407 3.86813C20.8293 4.37325 21.2489 4.92281 21.6006 5.50716Z" fill="#9AC470"/>
<path d="M22.7647 7.54359C22.6722 7.35741 22.5306 7.19203 22.3423 7.04883L20.5352 17.7417L20.7306 19.7109C23.7454 16.3037 24.4235 11.5546 22.7647 7.54359Z" fill="#FAC75A"/>
<path d="M22.3426 7.04935C21.8885 6.70402 21.1614 6.48858 20.1844 6.42769L19.6953 9.27638L20.5355 17.7422C22.9577 14.4634 23.5924 10.3971 22.3426 7.04935Z" fill="#FCE06F"/>
<path d="M20.7309 19.7111C21.6625 18.5459 22.0468 17.0216 21.9343 15.3448L8.05469 22.9625C12.1666 24.4394 16.9428 23.5315 20.2371 20.2373C20.4084 20.0659 20.5725 19.8902 20.7309 19.7111Z" fill="#FC7C49"/>
<path d="M19.2426 19.2432C20.4143 18.0716 21.3129 16.7418 21.9342 15.3451C21.8056 13.427 21.0268 11.3093 19.6723 9.30062L16.851 9.82919L8.23047 22.7002C11.8783 23.5538 16.121 22.3648 19.2426 19.2432Z" fill="#FC954C"/>
<path d="M16.4564 1.23498C17.0916 1.55059 17.4867 2.43358 17.5728 3.81569L14.7241 4.30469L4.28906 3.26913C7.69627 0.25436 12.4454 -0.423781 16.4564 1.23498Z" fill="#67E9E7"/>
<path d="M4.28891 3.26909C6.78702 1.27184 10.935 1.78906 14.6997 4.32753L14.1711 7.14884L1.03752 15.9453C-0.43942 11.8334 0.468501 7.05716 3.76274 3.76292C3.93406 3.59159 4.10985 3.42748 4.28891 3.26909Z" fill="#60B5D6"/>
<path d="M3.82031 20.2923C5.06264 21.5181 6.51164 22.4081 8.05444 22.9622C8.38509 23.0552 8.76084 23.0275 9.17447 22.8732L3.82031 20.2923Z" fill="#DB4F84"/>
<path d="M16.8505 9.82658L14.1715 7.14749C9.63225 8.26316 4.82485 10.5969 2.41707 13.0046C1.25391 14.1678 0.822238 15.1769 1.03786 15.9439C1.60046 17.5102 2.50833 18.9801 3.76308 20.2349C3.78183 20.2537 3.8011 20.2716 3.81994 20.2902C5.30016 21.7451 7.17253 22.5999 9.17405 22.8711C9.71986 22.6674 10.3317 22.2427 10.9934 21.581C13.4012 19.1732 15.7348 14.3658 16.8505 9.82658Z" fill="#F25E91"/>
<path d="M19.1767 4.82371L15.1992 8.80119C16.5722 10.1741 18.5756 10.3967 19.6739 9.29835C20.7722 8.20002 20.5497 6.19668 19.1767 4.82371Z" fill="#FBF0A8"/>
<path d="M18.6791 8.30626C19.7775 7.20793 20.0001 5.64976 19.1763 4.82598C17.8033 3.45301 15.8 3.23045 14.7016 4.32877C13.6033 5.42715 13.8259 7.43049 15.1988 8.80346C16.0226 9.6272 17.5807 9.40463 18.6791 8.30626Z" fill="#FFFBDB"/>
<path d="M12 23.6484C5.56673 23.6484 0.351562 18.4333 0.351562 12C0.351562 5.56674 5.56673 0.351564 12 0.351564C18.4333 0.351564 23.6484 5.56674 23.6484 12C23.6484 18.4333 18.4333 23.6484 12 23.6484Z" stroke="#030401" stroke-miterlimit="10" stroke-linecap="round" stroke-linejoin="round"/>
<path d="M19.6734 9.29835C18.5751 10.3967 16.5717 10.1741 15.1988 8.80119C13.8259 7.42822 13.6033 5.42483 14.7017 4.3265C15.7999 3.22813 17.8033 3.45074 19.1763 4.82371C20.5492 6.19663 20.7718 8.19997 19.6734 9.29835Z" stroke="#030401" stroke-miterlimit="10" stroke-linecap="round" stroke-linejoin="round"/>
<path d="M22.7643 7.54297C22.4487 6.90772 21.5657 6.51266 20.1836 6.42659" stroke="#030401" stroke-miterlimit="10" stroke-linecap="round" stroke-linejoin="round"/>
<path d="M16.457 1.2357C17.0923 1.55131 17.4873 2.4343 17.5734 3.81641" stroke="#030401" stroke-miterlimit="10" stroke-linecap="round" stroke-linejoin="round"/>
<path d="M20.7303 19.7109C22.7276 17.2128 22.2103 13.0649 19.6719 9.30019" stroke="#030401" stroke-miterlimit="10" stroke-linecap="round" stroke-linejoin="round"/>
<path d="M4.28906 3.26969C6.78717 1.27244 10.9351 1.78966 14.6998 4.32812" stroke="#030401" stroke-miterlimit="10" stroke-linecap="round" stroke-linejoin="round"/>
<path d="M8.05469 22.9621C8.8217 23.1778 9.83088 22.7461 10.994 21.5829C13.4018 19.1752 15.7354 14.3677 16.8512 9.82854" stroke="#030401" stroke-miterlimit="10" stroke-linecap="round" stroke-linejoin="round"/>
<path d="M14.1708 7.14961C11.804 7.73138 9.36492 8.64469 7.23047 9.72656" stroke="#030401" stroke-miterlimit="10" stroke-linecap="round" stroke-linejoin="round"/>
<path d="M5.9868 10.395C4.55426 11.2151 3.31774 12.1053 2.41709 13.006C1.25388 14.1691 0.822211 15.1783 1.03788 15.9453" stroke="#030401" stroke-miterlimit="10" stroke-linecap="round" stroke-linejoin="round"/>
</g>
</g>
<defs>
<clipPath id="clip0_31_20586">
<rect width="24" height="24" fill="white"/>
</clipPath>
</defs>
</svg>
