<svg width="24" height="24" viewBox="0 0 24 24" fill="none" xmlns="http://www.w3.org/2000/svg">
<rect x="2" y="2" width="20" height="20" rx="6" stroke="#F48FB1" stroke-width="1.4"/>
<path d="M11.9999 8C10.5636 8 9.5 8.90982 9.5 10.3461C9.49994 11.5 9.88392 12.0335 10.5813 12.5L10.5798 14.5477C10.5797 14.6525 10.5592 14.756 10.5422 14.8593C10.4405 15.479 10.9283 16.0676 11.5813 16.0676H12.6175C13.1053 16.0676 13.6171 15.4964 13.5405 14.887C13.5251 14.7651 13.5033 14.6429 13.5098 14.5202L13.6175 12.5C14.3149 12.0335 14.7014 11.5 14.7014 10.3461C14.7014 8.90982 13.4363 8 11.9999 8Z" stroke="#F48FB1" stroke-width="1.4" stroke-linejoin="round"/>
</svg>
