<svg width="24" height="24" viewBox="0 0 24 24" fill="none" xmlns="http://www.w3.org/2000/svg">
<g clip-path="url(#clip0_62_14899)">
<path d="M11.9988 23.9977C18.6256 23.9977 23.9977 18.6256 23.9977 11.9988C23.9977 5.37206 18.6256 0 11.9988 0C5.37206 0 0 5.37206 0 11.9988C0 18.6256 5.37206 23.9977 11.9988 23.9977Z" fill="#94E061"/>
<path d="M8.60677 23.5062C7.84953 23.2836 7.11445 22.9861 6.41323 22.6176C7.23231 20.2483 7.35016 17.3439 5.7714 14.8108C4.41241 12.6308 2.1928 11.3462 0.0625 10.7825C0.13882 10.0427 0.283209 9.31244 0.493276 8.60156C3.43633 9.03234 6.32144 11.0356 8.02575 14.1747C9.72527 17.3052 9.83731 20.8061 8.60677 23.5062Z" fill="#E9EFF4"/>
<path d="M17.7226 22.5422C12.3691 25.4485 5.78129 23.8597 2.29688 19.0602C5.96773 22.3268 11.4337 23.1188 16.0009 20.6394C21.8247 17.4776 23.9825 10.1933 20.8207 4.36947C20.5652 3.89908 20.2832 3.45284 19.9765 3.03125C20.9864 3.92951 21.8605 5.01566 22.5429 6.27232C25.7047 12.0961 23.5464 19.3804 17.7226 22.5422Z" fill="#70CF3D"/>
<path d="M9.12003 22.0395C8.98914 22.5485 8.81676 23.0392 8.60374 23.5062C8.55639 23.4922 8.50909 23.4782 8.46226 23.4638C8.0688 23.3421 7.6812 23.201 7.30157 23.0401C7.23627 23.0124 6.40321 22.638 6.4102 22.6176C6.52899 22.2738 6.6333 21.9183 6.71928 21.5547C7.49978 21.7971 8.30437 21.9598 9.12003 22.0395Z" fill="#D3DCE2"/>
<path d="M23.9454 13.1405C23.8758 13.8664 23.7401 14.5831 23.5407 15.2814C20.6642 14.7936 17.8656 12.8097 16.198 9.73773C14.526 6.65797 14.3898 3.22039 15.558 0.539062C16.2636 0.758318 16.9489 1.0418 17.6048 1.38758C16.917 3.46182 16.776 5.99102 17.8313 8.30237C19.0637 11.0035 21.5302 12.5084 23.9454 13.1405Z" fill="#E9EFF4"/>
<path d="M23.9444 13.1394C23.9175 13.4202 23.8813 13.6889 23.8362 13.9667C23.8192 14.0712 23.5603 15.2838 23.5397 15.2803C22.8114 15.1567 22.0879 14.9374 21.3867 14.6283C21.6736 13.9241 21.8933 13.1944 22.043 12.4492C22.6646 12.7443 23.3064 12.9723 23.9444 13.1394Z" fill="#D3DCE2"/>
<path d="M23.9444 13.1393C23.9357 13.2301 23.926 13.3204 23.9154 13.4107C23.9102 13.4561 23.9043 13.5011 23.8985 13.5464C23.8922 13.5913 23.8864 13.6367 23.8797 13.6816C23.8744 13.7203 23.8686 13.7589 23.8628 13.7976C23.8546 13.8541 23.8454 13.9101 23.8362 13.9666C23.8266 14.0222 23.8169 14.0782 23.8068 14.1337C23.8039 14.1496 23.801 14.1656 23.7981 14.1815C23.7874 14.239 23.7764 14.2965 23.7647 14.3539C23.7647 14.3544 23.7647 14.3549 23.7643 14.3554C23.7522 14.4162 23.7397 14.4766 23.7261 14.537C23.7184 14.5746 23.7097 14.6123 23.701 14.65C23.6932 14.6843 23.6855 14.7186 23.6773 14.7529C23.6672 14.7973 23.6561 14.8418 23.645 14.8857C23.6338 14.9297 23.6227 14.9736 23.6112 15.0176C23.5885 15.1055 23.5648 15.1929 23.5397 15.2803C22.8114 15.1567 22.0879 14.9374 21.3867 14.6283C21.6736 13.9241 21.8933 13.1944 22.043 12.4492C22.6646 12.7442 23.3064 12.9722 23.9444 13.1393Z" fill="#D3DCE2"/>
</g>
<defs>
<clipPath id="clip0_62_14899">
<rect width="24" height="24" fill="white"/>
</clipPath>
</defs>
</svg>
