<svg width="24" height="24" viewBox="0 0 24 24" fill="none" xmlns="http://www.w3.org/2000/svg">
<path d="M10.1083 4.03266C10.9926 2.65578 13.0051 2.65578 13.8895 4.03266L15.3559 6.31577C15.6602 6.78951 16.1313 7.13175 16.6758 7.27475L19.3004 7.96391C20.8831 8.37952 21.505 10.2935 20.4688 11.5601L18.7506 13.6602C18.3941 14.096 18.2142 14.6498 18.2465 15.2119L18.402 17.9209C18.4959 19.5547 16.8678 20.7376 15.343 20.1435L12.8146 19.1584C12.29 18.954 11.7077 18.954 11.1831 19.1584L8.65474 20.1435C7.12996 20.7376 5.50184 19.5547 5.59568 17.9209L5.75127 15.2119C5.78356 14.6498 5.60363 14.096 5.2471 13.6602L3.5289 11.5601C2.49269 10.2935 3.11458 8.37952 4.69736 7.96391L7.32188 7.27475C7.86647 7.13175 8.33752 6.78951 8.64181 6.31577L10.1083 4.03266Z" fill="#FFCD19"/>
</svg>
