<svg width="44" height="13" viewBox="0 0 44 13" fill="none" xmlns="http://www.w3.org/2000/svg">
<path d="M34.014 3.77344H31.6395C31.4998 3.77344 31.3601 3.92645 31.2903 4.07947L30.3125 10.8121C30.3125 10.9652 30.3823 11.0417 30.522 11.0417H31.7791C31.9188 11.0417 31.9887 10.9652 31.9887 10.8121L32.268 8.89945C32.268 8.74644 32.4077 8.59342 32.6172 8.59342H33.3855C34.9918 8.59342 35.8997 7.75184 36.1092 6.06867C36.2489 5.3801 36.1092 4.76804 35.8299 4.3855C35.4108 4.00296 34.7823 3.77344 34.014 3.77344ZM34.2934 6.29819C34.1537 7.21628 33.5252 7.21628 32.8966 7.21628H32.4775L32.7569 5.45661C32.7569 5.3801 32.8267 5.30359 32.9664 5.30359H33.1061C33.5252 5.30359 33.9442 5.30359 34.1537 5.60962C34.2934 5.68613 34.2934 5.91565 34.2934 6.29819Z" fill="#139AD6"/>
<path d="M16.9047 3.77344H14.5301C14.3904 3.77344 14.2507 3.92645 14.1809 4.07947L13.2031 10.8121C13.2031 10.9652 13.273 11.0417 13.4126 11.0417H14.5301C14.6698 11.0417 14.8095 10.8887 14.8793 10.7356L15.1587 8.89945C15.1587 8.74644 15.2983 8.59342 15.5079 8.59342H16.2761C17.8824 8.59342 18.7903 7.75184 18.9999 6.06867C19.1395 5.3801 18.9999 4.76804 18.7205 4.3855C18.3015 4.00296 17.7427 3.77344 16.9047 3.77344ZM17.184 6.29819C17.0443 7.21628 16.4158 7.21628 15.7872 7.21628H15.438L15.7174 5.45661C15.7174 5.3801 15.7872 5.30359 15.9269 5.30359H16.0666C16.4856 5.30359 16.9047 5.30359 17.1142 5.60962C17.184 5.68613 17.2539 5.91565 17.184 6.29819Z" fill="#263B80"/>
<path d="M24.0933 6.22333H22.9759C22.906 6.22333 22.7664 6.29984 22.7664 6.37634L22.6965 6.75888L22.6267 6.60587C22.3473 6.22333 21.8584 6.07031 21.2997 6.07031C20.0426 6.07031 18.9251 7.14142 18.7156 8.59507C18.5759 9.36014 18.7855 10.0487 19.1347 10.5078C19.4839 10.9668 19.9728 11.1198 20.6013 11.1198C21.6489 11.1198 22.2076 10.4312 22.2076 10.4312L22.1378 10.8138C22.1378 10.9668 22.2076 11.0433 22.3473 11.0433H23.3949C23.5346 11.0433 23.6743 10.8903 23.7441 10.7373L24.3727 6.45285C24.3028 6.37634 24.1632 6.22333 24.0933 6.22333ZM22.487 8.67157C22.3473 9.36014 21.8584 9.8957 21.16 9.8957C20.8108 9.8957 20.5315 9.74268 20.3918 9.58967C20.2521 9.36014 20.1823 9.05411 20.1823 8.67157C20.2521 7.983 20.8108 7.44745 21.4394 7.44745C21.7886 7.44745 21.9981 7.60047 22.2076 7.75348C22.4172 7.983 22.487 8.36554 22.487 8.67157Z" fill="#263B80"/>
<path d="M41.1324 6.22333H40.0149C39.9451 6.22333 39.8054 6.29984 39.8054 6.37634L39.7356 6.75888L39.6657 6.60587C39.3864 6.22333 38.8975 6.07031 38.3388 6.07031C37.0817 6.07031 35.9642 7.14142 35.7547 8.59507C35.615 9.36014 35.8245 10.0487 36.1737 10.5078C36.5229 10.9668 37.0118 11.1198 37.6404 11.1198C38.688 11.1198 39.2467 10.4312 39.2467 10.4312L39.1769 10.8138C39.1769 10.9668 39.2467 11.0433 39.3864 11.0433H40.434C40.5737 11.0433 40.7133 10.8903 40.7832 10.7373L41.4118 6.45285C41.3419 6.37634 41.2721 6.22333 41.1324 6.22333ZM39.5261 8.67157C39.3864 9.36014 38.8975 9.8957 38.1991 9.8957C37.8499 9.8957 37.5705 9.74268 37.4309 9.58967C37.2912 9.36014 37.2213 9.05411 37.2213 8.67157C37.2912 7.983 37.8499 7.44745 38.4785 7.44745C38.8277 7.44745 39.0372 7.60047 39.2467 7.75348C39.5261 7.983 39.5959 8.36554 39.5261 8.67157Z" fill="#139AD6"/>
<path d="M30.1707 6.22266H28.9834C28.8437 6.22266 28.7739 6.29916 28.704 6.37567L27.1675 8.97693L26.4691 6.52869C26.3993 6.37567 26.3295 6.29916 26.1199 6.29916H25.0025C24.8628 6.29916 24.793 6.45218 24.793 6.60519L26.0501 10.6601L24.8628 12.4963C24.793 12.6493 24.8628 12.8788 25.0025 12.8788H26.1199C26.2596 12.8788 26.3295 12.8023 26.3993 12.7258L30.2405 6.6817C30.45 6.45218 30.3103 6.22266 30.1707 6.22266Z" fill="#263B80"/>
<path d="M42.4621 4.00334L41.4844 10.889C41.4844 11.042 41.5542 11.1186 41.6939 11.1186H42.6717C42.8113 11.1186 42.951 10.9655 43.0209 10.8125L43.9986 4.07985C43.9986 3.92683 43.9288 3.85033 43.7891 3.85033H42.6717C42.6018 3.77382 42.532 3.85033 42.4621 4.00334Z" fill="#139AD6"/>
<path d="M8.03163 1.47669C7.54275 0.864624 6.63482 0.558594 5.3777 0.558594H1.88569C1.67617 0.558594 1.46665 0.788116 1.39681 1.01764L0 11.0401C0 11.2697 0.139681 11.4227 0.279361 11.4227H2.44441L3.00313 7.67381V7.82682C3.07297 7.5973 3.28249 7.36778 3.49201 7.36778H4.53962C6.56498 7.36778 8.10147 6.44969 8.59035 3.92493C8.59035 3.84842 8.59035 3.77192 8.59035 3.69541C8.52051 3.69541 8.52051 3.69541 8.59035 3.69541C8.66019 2.70081 8.52051 2.08875 8.03163 1.47669Z" fill="#263B80"/>
<path d="M8.52 3.69141C8.52 3.76791 8.52 3.84442 8.52 3.92093C8.03112 6.52219 6.49463 7.36377 4.46926 7.36377H3.42166C3.21214 7.36377 3.00262 7.5933 2.93278 7.82282L2.23438 12.4898C2.23438 12.6428 2.30422 12.7958 2.51374 12.7958H4.32958C4.5391 12.7958 4.74862 12.6428 4.74862 12.4133V12.3368L5.09783 9.96504V9.81202C5.09783 9.5825 5.30735 9.42948 5.51687 9.42948H5.79623C7.54224 9.42948 8.93904 8.66441 9.28824 6.36918C9.42792 5.45108 9.35808 4.6095 8.93904 4.07394C8.8692 3.92093 8.72952 3.76791 8.52 3.69141Z" fill="#139AD6"/>
<path d="M8.0285 3.4678C7.95866 3.4678 7.88882 3.3913 7.81898 3.3913C7.74914 3.3913 7.6793 3.3913 7.60946 3.31479C7.3301 3.23828 7.05074 3.23828 6.70153 3.23828H3.97776C3.90792 3.23828 3.83808 3.23828 3.76824 3.31479C3.62856 3.3913 3.55872 3.54431 3.55872 3.69733L3 7.67573V7.82874C3.06984 7.59922 3.27936 7.36969 3.48888 7.36969H4.53649C6.56185 7.36969 8.09834 6.4516 8.58722 3.92685C8.58722 3.85034 8.58722 3.77383 8.65706 3.69733C8.51738 3.62082 8.44754 3.54431 8.30786 3.54431C8.09834 3.4678 8.09834 3.4678 8.0285 3.4678Z" fill="#232C65"/>
</svg>
