<svg width="25" height="24" viewBox="0 0 25 24" fill="none" xmlns="http://www.w3.org/2000/svg">
<path d="M3 14.6037C3 12.4636 3 11.3935 3.40671 10.4477C3.46615 10.3095 3.53179 10.1741 3.60344 10.0418C4.09373 9.13653 4.93362 8.47346 6.61338 7.14733V7.14733C9.28372 5.03917 10.6189 3.98509 12.1661 3.88154C12.3885 3.86666 12.6115 3.86666 12.8339 3.88154C14.3811 3.98509 15.7163 5.03917 18.3866 7.14733V7.14733C20.0664 8.47346 20.9063 9.13653 21.3966 10.0418C21.4682 10.1741 21.5339 10.3095 21.5933 10.4477C22 11.3935 22 12.4636 22 14.6037V16C22 18.8284 22 20.2426 21.1213 21.1213C20.2426 22 18.8284 22 16 22H12.5H9C6.17157 22 4.75736 22 3.87868 21.1213C3 20.2426 3 18.8284 3 16V14.6037Z" stroke="#F57E6C" stroke-width="1.4"/>
<path d="M15.5 22C15.5 21.606 15.4224 21.2159 15.2716 20.8519C15.1209 20.488 14.8999 20.1573 14.6213 19.8787C14.3427 19.6001 14.012 19.3791 13.6481 19.2284C13.2841 19.0776 12.894 19 12.5 19C12.106 19 11.7159 19.0776 11.3519 19.2284C10.988 19.3791 10.6573 19.6001 10.3787 19.8787C10.1001 20.1573 9.87913 20.488 9.72836 20.8519C9.5776 21.2159 9.5 21.606 9.5 22L12.5 22H15.5Z" stroke="#F57E6C" stroke-width="1.4"/>
</svg>
