<svg width="24" height="24" viewBox="0 0 24 24" fill="none" xmlns="http://www.w3.org/2000/svg">
<path d="M21.9712 11.9998C21.9712 14.9398 20.6912 17.5998 18.6512 19.4098C16.8912 21.0098 14.5613 21.9698 12.0013 21.9698C6.50125 21.9698 2.03125 17.4998 2.03125 11.9998C2.03125 6.49979 6.50125 2.02979 12.0013 2.02979C14.5613 2.02979 16.8912 2.98979 18.6512 4.58979C20.6912 6.39979 21.9712 9.05979 21.9712 11.9998Z" stroke="black" stroke-width="1.5" stroke-linecap="round" stroke-linejoin="round"/>
<path d="M11.9713 16.3902C11.9513 18.0402 10.7212 18.4402 9.57125 17.9802C7.20125 17.0302 5.53125 14.7102 5.53125 12.0002C5.53125 9.29024 7.20125 6.97024 9.57125 6.01024C10.7212 5.55024 11.9513 5.96024 11.9713 7.60024V16.3902Z" stroke="black" stroke-width="1.5" stroke-linecap="round" stroke-linejoin="round"/>
</svg>
